<?xml version="1.0" encoding="UTF-8"?>
<svg width="1900px" height="300px" viewBox="0 0 1920 163" version="1.1" xmlns="http://www.w3.org/2000/svg" xmlns:xlink="http://www.w3.org/1999/xlink">
    <title>layered-peaks-haikei(5)</title>
    <g id="Page-1" stroke="none" stroke-width="0" fill="none" fill-rule="evenodd">
        <g id="Desktop-HD-Copy" fill-rule="nonzero">
            <g id="layered-peaks-haikei(5)">
                <polygon id="Path" fill="#CE6807" points="0 7 160 36 320 33 480 13 640 10 800 28 960 0 1120 45 1280 1 1440 13 1600 17 1760 13 1920 48 1920 163 1760 163 1600 163 1440 163 1280 163 1120 163 960 163 800 163 640 163 480 163 320 163 160 163 0 163"></polygon>
                <polygon id="Path" fill="#C13A40" points="0 56 160 55 320 33 480 28 640 49 800 63 960 67 1120 34 1280 59 1440 33 1600 52 1760 38 1920 32 1920 163 1760 163 1600 163 1440 163 1280 163 1120 163 960 163 800 163 640 163 480 163 320 163 160 163 0 163"></polygon>
                <polygon id="Path" fill="#95275C" points="0 59 160 77 320 84 480 88 640 75 800 96 960 73 1120 65 1280 71 1440 95 1600 94 1760 98 1920 91 1920 163 1760 163 1600 163 1440 163 1280 163 1120 163 960 163 800 163 640 163 480 163 320 163 160 163 0 163"></polygon>
                <polygon id="Path" fill="#572961" points="0 90 160 110 320 108 480 91 640 99 800 104 960 111 1120 85 1280 114 1440 98 1600 92 1760 97 1920 91 1920 163 1760 163 1600 163 1440 163 1280 163 1120 163 960 163 800 163 640 163 480 163 320 163 160 163 0 163"></polygon>
                <polygon id="Path" fill="#16244C" points="0 133 160 120 320 122 480 141 640 148 800 125 960 146 1120 123 1280 128 1440 126 1600 141 1760 118 1920 123 1920 163 1760 163 1600 163 1440 163 1280 163 1120 163 960 163 800 163 640 163 480 163 320 163 160 163 0 163"></polygon>
            </g>
        </g>
    </g>
</svg>