<?xml version="1.0" encoding="UTF-8"?>
<svg width="1358px" height="259px" viewBox="0 0 1358 259" version="1.1" xmlns="http://www.w3.org/2000/svg" xmlns:xlink="http://www.w3.org/1999/xlink">
    <title>layered-peaks-haikei(3)</title>
    <g id="Page-1" stroke="none" stroke-width="1" fill="none" fill-rule="evenodd">
        <g id="Desktop-HD" transform="translate(0.000000, -450.000000)" fill-rule="nonzero">
            <g id="Header-+-hero" transform="translate(0.000000, 22.000000)">
                <g id="layered-peaks-haikei(3)" transform="translate(0.000000, 428.000000)">
                    <polygon id="Path" fill="#F56D0A" points="0 33.5546559 196 5.24291498 391 79.6923077 587 34.6032389 783 39.8461538 979 0 1174 30.4089069 1370 27.2631579 1370 259 1174 259 979 259 783 259 587 259 391 259 196 259 0 259"></polygon>
                    <polygon id="Path" fill="#DD374C" points="0 48.2427184 196 51.3883495 391 109.058252 587 43 783 47.1941748 979 58.7281553 1174 117.446602 1370 81.7961165 1370 259 1174 259 979 259 783 259 587 259 391 259 196 259 0 259"></polygon>
                    <polygon id="Path" fill="#A52769" points="0 95 196 115.764331 391 146.910828 587 146.910828 783 130.299363 979 159.369427 1174 160.407643 1370 126.146497 1370 258 1174 258 979 258 783 258 587 258 391 258 196 258 0 258"></polygon>
                    <polygon id="Path" fill="#5C2C69" points="0 135.1 196 133 391 186.55 587 141.4 783 168.7 979 146.65 1174 147.7 1370 162.4 1370 259 1174 259 979 259 783 259 587 259 391 259 196 259 0 259"></polygon>
                    <polygon id="Path" fill="#16244C" points="0 219.025974 196 216.922078 391 208.506494 587 178 783 188.519481 979 211.662338 1174 196.935065 1370 182.207792 1370 259 1174 259 979 259 783 259 587 259 391 259 196 259 0 259"></polygon>
                </g>
            </g>
        </g>
    </g>
</svg>