<?xml version="1.0" encoding="UTF-8"?>
<svg width="1370px" height="259px" viewBox="0 0 1370 259" version="1.1" xmlns="http://www.w3.org/2000/svg" xmlns:xlink="http://www.w3.org/1999/xlink">
    <title>layered-peaks-haikei(3) copy</title>
    <g id="Page-1" stroke="none" stroke-width="1" fill="none" fill-rule="evenodd">
        <g id="Desktop-HD" transform="translate(0.000000, -2104.000000)" fill-rule="nonzero">
            <g id="Footer" transform="translate(0.000000, 2104.000000)">
                <g id="layered-peaks-haikei(3)-copy" transform="translate(685.000000, 129.500000) rotate(180.000000) translate(-685.000000, -129.500000) translate(-0.000000, 0.000000)">
                  
                    <polygon id="Path" fill="#F56D0A" points="3.75721638e-13 33.5546559 196 5.24291498 391 79.6923077 587 34.6032389 783 39.8461538 979 0 1123.86611 22.5908724 1174 30.4089069 1370 27.2631579 1370 259 1174 259 979 259 783 259 587 259 391 259 196 259 3.75721638e-13 259"></polygon>
                    <polygon id="Path" fill="#DD374C" points="1.43081981e-13 48.2427184 196 51.3883495 391 109.058252 587 43 783 47.1941748 979 58.7281553 1174 117.446602 1370 81.7961165 1370 259 1174 259 979 259 783 259 587 259 391 259 196 259 1.43081981e-13 259"></polygon>
                    <polygon id="Path" fill="#A52769" points="1.36713818e-13 95 196 115.89172 391 147.229299 587 147.229299 783 130.515924 979 159.764331 1174 160.808917 1370 126.33758 1370 259 1174 259 979 259 783 259 587 259 391 259 196 259 1.36713818e-13 259"></polygon>
                    <polygon id="Path" fill="#5C2C69" points="3.59433836e-13 135.1 196 133 391 186.55 587 141.4 783 168.7 979 146.65 1174 147.7 1370 162.4 1370 259 1174 259 979 259 783 259 587 259 391 259 196 259 3.59433836e-13 259"></polygon>
                    <polygon id="Path" fill="#16244C" points="1.2654925e-13 219.025974 196 216.922078 391 208.506494 587 178 783 188.519481 979 211.662338 1174 196.935065 1370 182.207792 1370 259 1174 259 979 259 783 259 587 259 391 259 196 259 1.2654925e-13 259"></polygon>
                </g>
            </g>
        </g>
    </g>
</svg>