<?xml version="1.0" encoding="UTF-8"?>
<svg width="127px" height="140px" viewBox="0 0 127 140" version="1.1" xmlns="http://www.w3.org/2000/svg" xmlns:xlink="http://www.w3.org/1999/xlink">
    <title>Circles</title>
    <g id="Page-1" stroke="none" stroke-width="1" fill="none" fill-rule="evenodd" opacity="0.215983073">
        <g id="Desktop-HD" transform="translate(-775.000000, 57.000000)" fill="#FAAA5D">
            <g id="Header-+-hero" transform="translate(-116.226563, -661.000000)">
                <g id="Group-6" transform="translate(446.939941, 604.000000)">
                    <g id="Circles" transform="translate(444.286621, -0.000000)">
                        <g id="Group-5">
                            <circle id="Oval" cx="2.5" cy="2.5" r="2.5"></circle>
                            <circle id="Oval-Copy-9" cx="2.5" cy="17.5" r="2.5"></circle>
                            <circle id="Oval-Copy-18" cx="2.5" cy="32.5" r="2.5"></circle>
                            <circle id="Oval-Copy-27" cx="2.5" cy="47.5" r="2.5"></circle>
                            <circle id="Oval-Copy-36" cx="2.5" cy="62.5" r="2.5"></circle>
                            <circle id="Oval-Copy-3" cx="47.5" cy="2.5" r="2.5"></circle>
                            <circle id="Oval-Copy-10" cx="47.5" cy="17.5" r="2.5"></circle>
                            <circle id="Oval-Copy-19" cx="47.5" cy="32.5" r="2.5"></circle>
                            <circle id="Oval-Copy-28" cx="47.5" cy="47.5" r="2.5"></circle>
                            <circle id="Oval-Copy-37" cx="47.5" cy="62.5" r="2.5"></circle>
                            <circle id="Oval-Copy-6" cx="94.5" cy="2.5" r="2.5"></circle>
                            <circle id="Oval-Copy-11" cx="94.5" cy="17.5" r="2.5"></circle>
                            <circle id="Oval-Copy-20" cx="94.5" cy="32.5" r="2.5"></circle>
                            <circle id="Oval-Copy-29" cx="94.5" cy="47.5" r="2.5"></circle>
                            <circle id="Oval-Copy-38" cx="94.5" cy="62.5" r="2.5"></circle>
                            <circle id="Oval-Copy" cx="17.5" cy="2.5" r="2.5"></circle>
                            <circle id="Oval-Copy-12" cx="17.5" cy="17.5" r="2.5"></circle>
                            <circle id="Oval-Copy-21" cx="17.5" cy="32.5" r="2.5"></circle>
                            <circle id="Oval-Copy-30" cx="17.5" cy="47.5" r="2.5"></circle>
                            <circle id="Oval-Copy-39" cx="17.5" cy="62.5" r="2.5"></circle>
                            <circle id="Oval-Copy-4" cx="62.5" cy="2.5" r="2.5"></circle>
                            <circle id="Oval-Copy-13" cx="62.5" cy="17.5" r="2.5"></circle>
                            <circle id="Oval-Copy-22" cx="62.5" cy="32.5" r="2.5"></circle>
                            <circle id="Oval-Copy-31" cx="62.5" cy="47.5" r="2.5"></circle>
                            <circle id="Oval-Copy-40" cx="62.5" cy="62.5" r="2.5"></circle>
                            <circle id="Oval-Copy-7" cx="109.5" cy="2.5" r="2.5"></circle>
                            <circle id="Oval-Copy-14" cx="109.5" cy="17.5" r="2.5"></circle>
                            <circle id="Oval-Copy-23" cx="109.5" cy="32.5" r="2.5"></circle>
                            <circle id="Oval-Copy-32" cx="109.5" cy="47.5" r="2.5"></circle>
                            <circle id="Oval-Copy-41" cx="109.5" cy="62.5" r="2.5"></circle>
                            <circle id="Oval-Copy-2" cx="32.5" cy="2.5" r="2.5"></circle>
                            <circle id="Oval-Copy-15" cx="32.5" cy="17.5" r="2.5"></circle>
                            <circle id="Oval-Copy-24" cx="32.5" cy="32.5" r="2.5"></circle>
                            <circle id="Oval-Copy-33" cx="32.5" cy="47.5" r="2.5"></circle>
                            <circle id="Oval-Copy-42" cx="32.5" cy="62.5" r="2.5"></circle>
                            <circle id="Oval-Copy-5" cx="77.5" cy="2.5" r="2.5"></circle>
                            <circle id="Oval-Copy-16" cx="77.5" cy="17.5" r="2.5"></circle>
                            <circle id="Oval-Copy-25" cx="77.5" cy="32.5" r="2.5"></circle>
                            <circle id="Oval-Copy-34" cx="77.5" cy="47.5" r="2.5"></circle>
                            <circle id="Oval-Copy-43" cx="77.5" cy="62.5" r="2.5"></circle>
                            <circle id="Oval-Copy-8" cx="124.5" cy="2.5" r="2.5"></circle>
                            <circle id="Oval-Copy-17" cx="124.5" cy="17.5" r="2.5"></circle>
                            <circle id="Oval-Copy-26" cx="124.5" cy="32.5" r="2.5"></circle>
                            <circle id="Oval-Copy-35" cx="124.5" cy="47.5" r="2.5"></circle>
                            <circle id="Oval-Copy-44" cx="124.5" cy="62.5" r="2.5"></circle>
                        </g>
                        <g id="Group-5-Copy" transform="translate(0.000000, 75.000000)">
                            <circle id="Oval" cx="2.5" cy="2.5" r="2.5"></circle>
                            <circle id="Oval-Copy-9" cx="2.5" cy="17.5" r="2.5"></circle>
                            <circle id="Oval-Copy-18" cx="2.5" cy="32.5" r="2.5"></circle>
                            <circle id="Oval-Copy-27" cx="2.5" cy="47.5" r="2.5"></circle>
                            <circle id="Oval-Copy-36" cx="2.5" cy="62.5" r="2.5"></circle>
                            <circle id="Oval-Copy-3" cx="47.5" cy="2.5" r="2.5"></circle>
                            <circle id="Oval-Copy-10" cx="47.5" cy="17.5" r="2.5"></circle>
                            <circle id="Oval-Copy-19" cx="47.5" cy="32.5" r="2.5"></circle>
                            <circle id="Oval-Copy-28" cx="47.5" cy="47.5" r="2.5"></circle>
                            <circle id="Oval-Copy-37" cx="47.5" cy="62.5" r="2.5"></circle>
                            <circle id="Oval-Copy-6" cx="94.5" cy="2.5" r="2.5"></circle>
                            <circle id="Oval-Copy-11" cx="94.5" cy="17.5" r="2.5"></circle>
                            <circle id="Oval-Copy-20" cx="94.5" cy="32.5" r="2.5"></circle>
                            <circle id="Oval-Copy-29" cx="94.5" cy="47.5" r="2.5"></circle>
                            <circle id="Oval-Copy-38" cx="94.5" cy="62.5" r="2.5"></circle>
                            <circle id="Oval-Copy" cx="17.5" cy="2.5" r="2.5"></circle>
                            <circle id="Oval-Copy-12" cx="17.5" cy="17.5" r="2.5"></circle>
                            <circle id="Oval-Copy-21" cx="17.5" cy="32.5" r="2.5"></circle>
                            <circle id="Oval-Copy-30" cx="17.5" cy="47.5" r="2.5"></circle>
                            <circle id="Oval-Copy-39" cx="17.5" cy="62.5" r="2.5"></circle>
                            <circle id="Oval-Copy-4" cx="62.5" cy="2.5" r="2.5"></circle>
                            <circle id="Oval-Copy-13" cx="62.5" cy="17.5" r="2.5"></circle>
                            <circle id="Oval-Copy-22" cx="62.5" cy="32.5" r="2.5"></circle>
                            <circle id="Oval-Copy-31" cx="62.5" cy="47.5" r="2.5"></circle>
                            <circle id="Oval-Copy-40" cx="62.5" cy="62.5" r="2.5"></circle>
                            <circle id="Oval-Copy-7" cx="109.5" cy="2.5" r="2.5"></circle>
                            <circle id="Oval-Copy-14" cx="109.5" cy="17.5" r="2.5"></circle>
                            <circle id="Oval-Copy-23" cx="109.5" cy="32.5" r="2.5"></circle>
                            <circle id="Oval-Copy-32" cx="109.5" cy="47.5" r="2.5"></circle>
                            <circle id="Oval-Copy-41" cx="109.5" cy="62.5" r="2.5"></circle>
                            <circle id="Oval-Copy-2" cx="32.5" cy="2.5" r="2.5"></circle>
                            <circle id="Oval-Copy-15" cx="32.5" cy="17.5" r="2.5"></circle>
                            <circle id="Oval-Copy-24" cx="32.5" cy="32.5" r="2.5"></circle>
                            <circle id="Oval-Copy-33" cx="32.5" cy="47.5" r="2.5"></circle>
                            <circle id="Oval-Copy-42" cx="32.5" cy="62.5" r="2.5"></circle>
                            <circle id="Oval-Copy-5" cx="77.5" cy="2.5" r="2.5"></circle>
                            <circle id="Oval-Copy-16" cx="77.5" cy="17.5" r="2.5"></circle>
                            <circle id="Oval-Copy-25" cx="77.5" cy="32.5" r="2.5"></circle>
                            <circle id="Oval-Copy-34" cx="77.5" cy="47.5" r="2.5"></circle>
                            <circle id="Oval-Copy-43" cx="77.5" cy="62.5" r="2.5"></circle>
                            <circle id="Oval-Copy-8" cx="124.5" cy="2.5" r="2.5"></circle>
                            <circle id="Oval-Copy-17" cx="124.5" cy="17.5" r="2.5"></circle>
                            <circle id="Oval-Copy-26" cx="124.5" cy="32.5" r="2.5"></circle>
                            <circle id="Oval-Copy-35" cx="124.5" cy="47.5" r="2.5"></circle>
                            <circle id="Oval-Copy-44" cx="124.5" cy="62.5" r="2.5"></circle>
                        </g>
                    </g>
                </g>
            </g>
        </g>
    </g>
</svg>