<svg id="Layer_1" data-name="Layer 1" xmlns="http://www.w3.org/2000/svg" width="64" height="64" viewBox="0 0 64 64"><defs><style>.cls-1{fill:#1d1d1b;}.cls-2{fill:#ffe19b;}.cls-3{fill:#fab900;}.cls-4{fill:#f2910d;}.cls-5{fill:#1f4863;}.cls-6{fill:#85bfe9;}.cls-7{fill:#cbe7f5;}.cls-8{fill:#fff;}</style></defs><title>ring-ship</title><g id="ring-ship"><path class="cls-1" d="M16.2,19.62s-4.46-5.17-4.58-5.08a6,6,0,0,1-2.42,1,2.72,2.72,0,0,1-2.12-2.33C6.7,11.54,4.86,4.45,5.78,3.45S16.24,6.25,17.2,7.2s0,2.75,0,2.75l4.42,5s1.17-.79,1.67-.54a21.2,21.2,0,0,1,2.38,2.33s7.21-5.67,14.13-8.33S52.32,4.91,56.4,9.7,57.7,21.54,55.49,26,48,35.16,48,35.16s8.38,4.75,8.88,6a3.23,3.23,0,0,1-.42,3.42c-.79,1-1.67,1.88-1.67,1.88s3.38,3,3.33,3.92-3.29,3.83-6.83,6.83-5.46,3.83-6.12,3.33a25.66,25.66,0,0,1-2.58-3.75s-2.54,1.46-4.5.25-4.75-9.71-4.75-9.71a24.8,24.8,0,0,1-9.37,5.38c-6.08,2-12,2.13-15.92-2S7.28,38.29,9.65,34.37s8.08-10.21,8.08-10.21a25.3,25.3,0,0,1-1.92-2.71A2.14,2.14,0,0,1,16.2,19.62Z"/><path class="cls-2" d="M9.07,13.45c-.17-.37-2.33-8.71-2-8.83S15.74,8,15.61,8.45a10,10,0,0,1-3.25,3.29A8.65,8.65,0,0,1,9.07,13.45Z"/><path class="cls-1" d="M8.61,6.91c0-.21.54-.21.63,0A17.54,17.54,0,0,1,10,10c-.12.17-.46.42-.67.17A20.39,20.39,0,0,1,8.61,6.91Z"/><path class="cls-3" d="M12.82,13.45c-.07-.11.46-.42,1.46-1.25s1.33-1.29,1.46-1.25,4.42,5.17,4.42,5.33a3.92,3.92,0,0,1-1,1.38c-.58.58-1.29,1.25-1.46,1.08S12.95,13.66,12.82,13.45Z"/><path class="cls-4" d="M17.82,20.62c-.13-.16,1.88-1,2.75-2.17S22,16.29,22.4,16.33,33.53,27.41,33.49,27.79a14,14,0,0,1-3,3.33c-1.37,1.21-1.92,1.58-2,1.5S18.11,21,17.82,20.62Z"/><path class="cls-1" d="M20.49,21.83c-.18,0,.5-.58.63-.5s6.13,6.88,6,7.17-.46.79-.71.67S20.7,21.87,20.49,21.83Z"/><path class="cls-5" d="M12.15,40.87s.21-.79,1.67-1.83,5.71-3.33,7.67-5A10.41,10.41,0,0,0,24,31s-4.58-5.46-4.87-5.37-.83.67-.71.71,3.08,3.17,3,3.54-.12.54-.33.42S18.07,27,17.9,27a6,6,0,0,0-1,1.13c0,.13,4,4.25,4,4.5s-.5.5-.5.5l-4.08-4.33-1.21,1.42,3.71,4.25s-.42.42-.54.42S14.61,31,14.61,31s-1,1.25-1.12,1.5a3,3,0,0,1-.33.42s2.71,2.79,2.71,2.92-.33.42-.33.42l-2.87-2.62L12,34.87c-.12.25,2,2.29,1.92,2.42s-.21.42-.33.46S11.49,35.83,11.4,36s-.92,2.5-1.08,3S9.7,40.87,10,41A16.44,16.44,0,0,0,12.15,40.87Z"/><path class="cls-6" d="M13.53,40.75s0-.58.38-.79a48.26,48.26,0,0,0,7.21-4.62c3-2.42,3.54-3.37,3.67-3.33s1.63,1.63,1.63,1.63-1.5,2.21-1.62,2.25a51.82,51.82,0,0,1-6.12,3.42A18.54,18.54,0,0,1,13.53,40.75Z"/><path class="cls-5" d="M27,18.08l1-.87a41.1,41.1,0,0,0,3.42,3.13c.17-.08.33-.5.33-.5s-2.83-3.08-2.67-3.29,1.08-1.12,1.42-1,2.21,3,2.46,3,.58-.46.42-.67A18.79,18.79,0,0,1,31.61,15a8.83,8.83,0,0,1,.83-.54l1.83,2.21s.67-.25.46-.42A9.62,9.62,0,0,1,33.36,14c.13-.08,2-1.37,2.33-1.25s1.29,2,1.42,2,.63-.17.5-.37a13.74,13.74,0,0,1-1.25-2,6.47,6.47,0,0,1,1.83-1c.25,0,2.13,3,2.38,3s.54-.37.46-.5l-1.92-3.08a10.17,10.17,0,0,1,1.5-.62c.13,0,1.71,3,1.88,2.88s.58-.29.46-.54a23.35,23.35,0,0,1-1.5-2.75,13.26,13.26,0,0,1,3.08-1,1.41,1.41,0,0,1,.92,1.83c-.29.88-3.37,6.25-3.37,6.25s-.62-2-2.33-1.83a5.59,5.59,0,0,0-4.62,2.54c-1,1.75-2,3.46-2.37,4.13s-.67,1.33-1,1.29A65.86,65.86,0,0,1,27,18.08Z"/><path class="cls-6" d="M32.61,23.7a45.52,45.52,0,0,1,2.83-4.92c1.29-1.67,2.92-2.5,3.92-2.42a4.57,4.57,0,0,1,2.13,1.13L37.4,23.66a1.36,1.36,0,0,0-1.33.08,8.46,8.46,0,0,0-1.92,1.71Z"/><path class="cls-6" d="M8.57,42.54c.06-.2,1.62.33,2.54.33s2-.08,2-.08a10.35,10.35,0,0,0,2.25,5.83,31.28,31.28,0,0,0,4.54,3.75c-.17.08-6,1.08-8.83-1.5A7.9,7.9,0,0,1,8.57,42.54Z"/><path class="cls-7" d="M14.45,42.5a11.56,11.56,0,0,0,3.71-1.21c1.88-.92,3.33-1.75,3.33-1.75s-.62,3,2.92,6,4,3.08,4,3.08a39.91,39.91,0,0,1-4.08,2.17,16.83,16.83,0,0,1-3.12,1s-3.87-1.5-5.54-4.5S14.45,42.5,14.45,42.5Z"/><path class="cls-7" d="M22.53,39.16s1.67-.92,3.17-1.92a18.59,18.59,0,0,0,2.25-1.71,14.48,14.48,0,0,0,3.67,5.33,14.15,14.15,0,0,0,3.75,2.46s-2.25,1.92-3.37,3a14.72,14.72,0,0,1-2.58,1.83s-4-2.62-5.25-4.37A12.07,12.07,0,0,1,22.53,39.16Z"/><path class="cls-8" d="M29,34.7a29.11,29.11,0,0,0,3.79-3.29c2-2.08,3.46-3.42,3.46-3.42a28.39,28.39,0,0,1,4.67,4,13.86,13.86,0,0,1,2.71,4.46S41.57,38.62,39.9,40a36.12,36.12,0,0,1-3.5,2.58,14.84,14.84,0,0,1-4.79-3.54A11.37,11.37,0,0,1,29,34.7Z"/><path class="cls-7" d="M36.95,27.25a42.44,42.44,0,0,0,2.63-3.54c.88-1.42,1.25-2,1.25-2a8.13,8.13,0,0,1,6.38,3.17c2.67,3.38,2.88,5.21,2.88,5.21l-2.42,2.83a34.35,34.35,0,0,0-1.75-4.17c-.25-.08-.83.33-.71.46s1.67,4.25,1.67,4.25l-.71.67a41.32,41.32,0,0,0-2-4.42c-.21,0-1,.38-.92.5a49.63,49.63,0,0,1,2,4.58,12.15,12.15,0,0,1-.79,1A23.09,23.09,0,0,0,40.61,30,12.13,12.13,0,0,0,36.95,27.25Z"/><path class="cls-7" d="M42.07,20.54s2-3,3-4.92,1.29-2.54,1.29-2.54,4.13.42,6.29,3.33a16.49,16.49,0,0,1,2.67,4.71s-.75,1.92-1,2.63a4.16,4.16,0,0,1-.54,1.17S52.36,21.29,52,21.29s-.67.54-.54.63a18.2,18.2,0,0,1,1.83,3.58,12.38,12.38,0,0,0-.75,1.21s-1.75-3.37-1.87-3.42-.87.17-.62.46,1.92,3.58,1.75,4A16,16,0,0,1,51,29.08a11.86,11.86,0,0,0-4.17-6.29C43.61,20.54,42.07,20.54,42.07,20.54Z"/><path class="cls-6" d="M47,12.12a7.92,7.92,0,0,1,5.58,2.42,15.4,15.4,0,0,1,3.46,5s1.75-4.25.08-7.71-5.79-3.83-6.46-4A12.42,12.42,0,0,0,47,8.08a3.32,3.32,0,0,1,.67,2A6.62,6.62,0,0,1,47,12.12Z"/><path class="cls-3" d="M34.86,46.12a66.66,66.66,0,0,0,5.83-4.46c2.67-2.33,6.08-5.25,6.08-5.25L53.4,41l-5.87-.79s-.42.83-.17.88,7.21,1.21,7.29,1.42a2.41,2.41,0,0,1-.08,1.25c-.12,0-7-1.46-7.17-1.33a.73.73,0,0,0-.12.71c.08.17,6.67,1.38,6.58,1.58a5.56,5.56,0,0,1-.58.79s-5.08-1-5.33-.87-.42.71-.21.83,4.75.88,4.67,1-.71.75-.71.75a41.07,41.07,0,0,0-4.25-.71c-.17.13-.37.75-.25.83s3.88.58,3.67.79l-1,1A22.51,22.51,0,0,0,47,48.54c-.25.08-.42,1-.25,1.08s2.08.5,2.08.5-3.5,3-5.33,4.25S39.7,56,39.15,55.5,34.78,46.2,34.86,46.12Z"/><path class="cls-1" d="M37,46.83c-.14-.1.42-.5.58-.25s2,4.33,1.88,4.67-.33.63-.62.54S37.2,47,37,46.83Z"/><path class="cls-2" d="M44.4,55.58c.05-.22,2.13-1.25,5.17-4s4-3.67,4.13-3.62,2.38,2.29,2.25,2.54a13,13,0,0,1-1.42,1.33s-1.25-1.75-1.42-1.71-.79.33-.62.46a8.16,8.16,0,0,1,1.25,1.88c-.08.13-.71.79-.71.79a16.35,16.35,0,0,0-1.54-1.92c-.12,0-.62.46-.5.58s1.5,1.67,1.38,1.88-2.37,2.13-3.5,3-2.12,1.88-2.42,1.75A14.72,14.72,0,0,1,44.4,55.58Z"/></g></svg>