<?xml version="1.0" encoding="utf-8"?>
<!-- Generator: Adobe Illustrator 19.1.1, SVG Export Plug-In . SVG Version: 6.00 Build 0)  -->
<svg version="1.1" id="Layer_1" xmlns="http://www.w3.org/2000/svg" xmlns:xlink="http://www.w3.org/1999/xlink" x="0px" y="0px"
	 viewBox="0 0 1200 1200" enable-background="new 0 0 1200 1200" xml:space="preserve">
<g>
	<path fill="#FC523A" d="M842.666,1117.267C1024.718,1027.607,1150,840.247,1150,623.599c0-303.757-246.243-550-550-550
		s-550,246.243-550,550c0,216.648,125.282,404.008,307.334,493.668H842.666z"/>
	<path fill="#D3B9B9" d="M1095.981,782.563H942.893c-1.447,0-2.62-1.173-2.62-2.62v-38.81c0-1.447,1.173-2.62,2.62-2.62h153.088
		c1.447,0,2.62,1.173,2.62,2.62v38.81C1098.601,781.39,1097.428,782.563,1095.981,782.563z"/>
	<path fill="#FFFFFF" d="M1095.981,773.163H942.893c-1.447,0-2.62-1.173-2.62-2.62v-38.81c0-1.447,1.173-2.62,2.62-2.62h153.088
		c1.447,0,2.62,1.173,2.62,2.62v38.81C1098.601,771.99,1097.428,773.163,1095.981,773.163z"/>
	<g>
		<path fill="#50BAC9" d="M1126.696,666.645c-3.837-12.281-9.304-23.867-15.251-35.21c-12.278-23.42-26.522-45.582-43.359-66.021
			c-3.34-4.055-6.656-8.139-10.19-12.022c-4.065-4.465-8.29-8.818-13.624-11.819c-1.1-0.619-1.731-1.285-1.872-2.489
			c-1.027-8.744,1.329-16.436,6.859-23.3c2.014-2.5,3.903-5.254,5.15-8.189c2.958-6.963,2.105-14.124,0.299-21.253
			c-0.389-1.535-0.788-3.073-1.164-4.616c-0.015-0.048-0.039-0.086-0.053-0.135c-0.331-1.173-0.565-2.346-0.759-3.52
			c-0.213-1.097-0.4-2.197-0.529-3.303c-0.377-3.224,0.089-6.547,0.189-10.126c0.011,0.005,0.021,0.011,0.031,0.016
			c0.097-1.475,0.206-2.955,0.309-4.442c0.015-0.219,0.073-0.405,0.104-0.614c-0.115-0.253-0.247-0.473-0.443-0.58
			c-2.353-1.267-4.762-2.43-7.214-3.62c-1.16-0.563-2.271,0.018-2.459,1.294c-0.298,2.02-0.998,3.891-1.975,5.627
			c-2.41,7.297-5.493,14.097-11.658,19.037c-6.775,5.43-14.162,5.255-20.841-0.351c-4.515-3.788-7.331-8.765-9.537-14.12
			c-0.779-1.89-1.411-3.852-2.142-5.915c-0.032-0.092-0.065-0.182-0.096-0.276c-0.013-0.037-0.025-0.072-0.039-0.111
			c0.002,0,0.004-0.001,0.005-0.002c-0.462-1.408-0.826-2.873-1.186-4.276c-0.254-0.992-1.368-1.488-2.293-1.051
			c-2.473,1.167-4.87,2.287-7.215,3.508c-0.341,0.177-0.707,0.55-0.966,0.942c1.328,4.674,1.606,9.565,0.946,14.36
			c-0.099,2.11-0.345,4.216-0.857,6.314c-1.077,4.413-2.46,8.789-3.072,13.27c-1.107,8.097,0.671,15.593,6.362,21.748
			c2.347,2.537,4.046,5.383,5.263,8.549c1.849,4.811,2.915,9.758,1.981,14.935c-0.142,0.788-0.514,1.74-1.104,2.202
			c-2.367,1.853-5.039,3.341-7.273,5.33c-6.159,5.48-11.663,11.581-16.646,18.163c-3.708,4.899-7.741,9.557-11.343,14.529
			c-14.464,19.967-27.654,40.718-37.913,63.202c-2.99,6.553-5.765,13.211-8.417,19.909c-1.477,3.729-0.643,7.999,2.096,10.93
			c14.106,15.094,32.264,23.801,52.281,29.497c7.581,2.157,15.331,3.693,23.139,4.777c12.093,1.678,24.177,3.148,36.457,2.32
			c13.366-0.9,26.566-2.836,39.536-6.048c7.203-1.784,14.31-4.157,21.225-6.864c14.999-5.873,28.079-14.639,38.587-27.017
			C1126.873,668.81,1127.11,667.972,1126.696,666.645z"/>
		<path opacity="0.7" fill="#34AEBF" d="M1126.696,666.645c-3.837-12.28-9.304-23.868-15.251-35.21
			c-12.278-23.42-26.522-45.581-43.359-66.02c-0.51-0.618-1.024-1.236-1.534-1.855c-11.52-5.522-22.563-11.496-34.567-13.604
			c-0.215-0.038-0.407,0.18-0.345,0.389c8.346,28.154,40.334,44.487,48.83,72.566c0.076,0.252-0.203,0.486-0.429,0.35
			c-19.918-11.984-43.596-27.727-63.6-39.797c-0.271-0.164-0.524,0.181-0.325,0.427c19.483,24.139,23.794,52.055,39.631,76.12
			c0.134,0.204-0.037,0.477-0.279,0.444c-32.063-4.335-52.356-32.207-76.432-52.517c-0.223-0.188-0.567,0.059-0.473,0.335
			c8.095,23.848,20.027,43.914,32.004,67.776c0.128,0.254-0.143,0.532-0.388,0.386c-19.755-11.792-43.128-23.686-59.274-42.91
			c-0.214-0.255-0.575-0.038-0.433,0.262c7.449,15.757,11.678,34.878,23.011,50.477c0.171,0.236-0.075,0.545-0.341,0.425
			c-20.189-9.127-37.924-21.922-54.566-35.666c-0.146-0.121-0.366-0.067-0.442,0.107c-1.848,4.283-3.648,8.588-5.367,12.924
			c-1.523,3.842-0.647,8.247,2.183,11.259c14.835,15.792,34.124,24.563,55.331,30.216c6.442,1.717,13.011,2.931,19.614,3.849
			c12.2,1.696,24.389,3.2,36.778,2.364c13.366-0.9,26.566-2.836,39.536-6.048c7.203-1.784,14.31-4.157,21.225-6.865
			c14.999-5.873,28.079-14.64,38.587-27.016C1126.873,668.81,1127.11,667.972,1126.696,666.645z"/>
	</g>
	<path fill="#4CEAFC" d="M801.483,379.914c-0.015,0-0.031,0-0.05,0c-3.382-0.015-6.386-1.929-7.836-4.987l-15.458-32.66
		c-0.607-1.287-1.763-2.049-3.351-2.045l-53.113,1.852c-7.642,0.213-15.13-2.273-21.033-7.14c-1.094-0.905-1.249-2.524-0.344-3.622
		c0.901-1.094,2.532-1.249,3.622-0.344c4.929,4.067,11.191,6.169,17.577,5.965l53.113-1.852c3.452-0.054,6.691,1.836,8.183,4.987
		l15.458,32.656c0.599,1.272,1.801,2.037,3.212,2.045c0.008,0,0.012,0,0.019,0c1.399,0,2.602-0.75,3.216-2.006l16.541-33.974
		c1.419-2.922,4.318-4.801,7.569-4.898l104.927-3.278c7.016-0.22,13.518-3.166,18.311-8.292c4.797-5.122,7.298-11.809,7.051-18.818
		l-2.663-75.313c-0.05-1.423,1.059-2.613,2.478-2.663c1.419,0.035,2.613,1.059,2.663,2.478l2.663,75.313
		c0.298,8.392-2.698,16.386-8.431,22.521c-5.736,6.131-13.518,9.652-21.91,9.915l-104.93,3.278c-1.334,0.043-2.52,0.812-3.1,2.006
		l-16.545,33.974C807.849,378.043,804.85,379.914,801.483,379.914z"/>
	<g>
		<path fill="#502D43" d="M411.291,245.81c0,0-248.671,0-282.986,0s-36.222,21.353-36.222,38.51s-0.537,140.145,0,156.459
			c1.125,34.199-0.378,43.5,60.816,43.5s288.336-2.094,288.336-2.094V308.13C441.235,308.13,448.582,245.81,411.291,245.81z"/>
		<path fill="#FFFFFF" d="M422.178,458.245H115.783c-0.359,0-0.651-0.291-0.651-0.651v-4.063c0-0.359,0.291-0.651,0.651-0.651
			h306.395c0.359,0,0.651,0.291,0.651,0.651v4.063C422.829,457.954,422.537,458.245,422.178,458.245z"/>
		<path fill="#FC523A" d="M223.147,458.244H115.783c-0.359,0-0.651-0.291-0.651-0.651v-4.063c0-0.359,0.291-0.651,0.651-0.651
			h107.364c0.359,0,0.651,0.291,0.651,0.651v4.063C223.798,457.953,223.507,458.244,223.147,458.244z"/>
		<path fill="#FC523A" d="M243.815,328.335v65.535c0,1.462,1.592,2.368,2.849,1.621l59.952-35.641
			c1.283-0.763,1.213-2.642-0.122-3.308l-59.952-29.894C245.289,326.023,243.815,326.934,243.815,328.335z"/>
	</g>
	<path fill="#DEC5C5" d="M895.183,1126.401c0,0-49.757-87.695-174.586-127.73c-124.829-40.035-357.028,8.601-410.276,127.73H895.183
		z"/>
	<path fill="#BCA1A1" d="M668.982,1069.209c22.148-17.275,24.211-47.077,21.808-78.05c-53.151-10.234-118.787-7.764-181.04,6.403
		c3.896,22.043,9.953,43.583,23.055,64.022C564.231,1111.15,634.065,1103.524,668.982,1069.209z"/>
	<path fill="#FCAC6F" d="M670.259,934.075c0,0,13.173,81.12-9.66,112.953c-22.833,31.832-79.89,42.1-108.728,6.359
		c-26.832-33.255-19.486-122.392-19.486-122.392L670.259,934.075z"/>
	<path fill="#FFFFFF" d="M845.548,566.877l51.259-154.818c2.833-8.556-1.735-17.801-10.252-20.75h0
		c-9.381-3.247-19.483,2.477-21.517,12.194l-39.182,187.159c-0.703,3.356,0.735,6.799,3.616,8.659l8.825,5.698
		c3.072,1.983,7.081,1.718,9.865-0.652l78.676-66.985c4.797-4.085,3.461-11.817-2.429-14.055l0,0
		c-2.888-1.097-6.145-0.496-8.452,1.558l-57.033,50.784C852.592,581.307,842.883,574.924,845.548,566.877z"/>
	<path fill="#502D43" d="M751.355,617.319c0,0,72.277-84.661,164.044-28.457s35.493,178.557-79.62,184.159
		S751.355,617.319,751.355,617.319z"/>
	<g>
		<path fill="#F04230" d="M393.951,500.105c-15.434,54.602,2.073,157.643,2.073,157.643s65.818,12.245,145.095,24.079
			c1.99-63.868,7.438-128.209,5.749-191.909C466.932,480.335,399.919,478.99,393.951,500.105z"/>
		<path fill="#5A384D" d="M371.799,617.981c1.187,60.755,9.395,117.51,9.395,117.51l41.901-8.838c0,0,29.2-61.465,43.137-119.094
			C440.069,604.914,397.884,621.386,371.799,617.981z"/>
		<path fill="#502D43" d="M762.921,641.527c3.021,1.034,6.01,2.089,9.071,3.096l25.646,67.061l39.121,10.902
			c0,0,8.589-34.496,10.597-82.587C790.671,618.445,791.03,641.371,762.921,641.527z"/>
		<path fill="#50BAC9" d="M799.678,651.823c0,0,25.425-0.245,28.989,11.623c3.564,11.868-1.045,56.431-1.045,56.431l-35.123,1.362
			L799.678,651.823z"/>
		<path fill="#50BAC9" d="M411.012,631.432c0,0-25.409,0.929-28.421,12.949c-3.012,12.02,3.65,56.323,3.65,56.323l35.149-0.262
			L411.012,631.432z"/>
		<g>
			<path fill="#FCAC6F" d="M766.099,715.81c0,0,45.899-26.547,73.966,11.319c28.067,37.866-15.311,127.195-75.66,97.811
				C704.055,795.555,766.099,715.81,766.099,715.81z"/>
			<path fill="#FCAC6F" d="M452.981,700.847c0,0-41.633-32.736-74.838,0.798s-3.057,128.061,60.889,107.466
				C502.978,788.514,452.981,700.847,452.981,700.847z"/>
			<path fill="#FC935A" d="M421.253,791.275c-1.942-0.137-3.855-0.542-5.672-1.221c-8.815-3.293-15.431-12.308-16.86-22.97
				c-0.874-6.53,0.27-12.785,3.23-17.614c3.742-6.113,10.387-9.617,16.845-9.156c0.092,0.01,0.188,0.017,0.28,0.027
				c-4.839-5.395-11.251-9.321-18.273-10.69c-2.854-0.556-4.717-3.368-4.16-6.279c0.56-2.911,3.323-4.867,6.177-4.266
				c18.81,3.664,33.769,20.43,35.57,39.869c0.239,2.557-1.334,4.934-3.752,5.671c-2.406,0.723-4.998-0.371-6.16-2.65
				c-3.675-7.191-7.043-10.681-10.595-10.981c-2.631-0.207-5.388,1.476-7.004,4.113c-1.651,2.701-2.263,6.417-1.719,10.464
				c0.894,6.686,4.942,12.463,10.079,14.379c2.62,0.984,5.831,0.78,8.572-0.543c2.204-1.067,3.788-2.732,4.458-4.685
				c0.958-2.806,3.976-4.292,6.707-3.324c2.745,0.965,4.195,4.021,3.234,6.823c-1.61,4.701-5.129,8.566-9.914,10.884
				C428.802,790.814,424.973,791.538,421.253,791.275z"/>
			<path fill="#FC935A" d="M787.335,807.867c-2.681-0.19-5.349-0.883-7.852-2.069c-4.785-2.273-8.31-6.107-9.925-10.794
				c-0.961-2.794,0.487-5.863,3.229-6.857c2.758-0.979,5.753,0.477,6.714,3.264c0.67,1.954,2.256,3.604,4.463,4.65
				c2.731,1.304,5.935,1.478,8.572,0.469c5.131-1.964,9.179-7.778,10.072-14.468c0.539-4.055-0.077-7.767-1.729-10.449
				c-1.615-2.623-4.521-4.269-7.008-4.056c-3.557,0.334-6.917,3.852-10.581,11.075c-1.161,2.29-3.773,3.427-6.161,2.704
				c-2.42-0.714-3.995-3.075-3.76-5.634c1.792-19.458,16.741-36.356,35.546-40.184c2.846-0.58,5.618,1.305,6.178,4.214
				c0.557,2.906-1.302,5.732-4.159,6.315c-7.017,1.428-13.428,5.411-18.263,10.847c0.09-0.008,0.183-0.019,0.277-0.026
				c6.467-0.608,13.103,2.924,16.851,9.006c2.96,4.803,4.112,11.048,3.243,17.589c-1.424,10.674-8.037,19.748-16.846,23.117
				C793.389,807.653,790.354,808.08,787.335,807.867z"/>
		</g>
		<path fill="#FCD290" d="M794.99,599.087c0,0-3.996,196.983-23.699,252.994c-25.79,73.314-125.481,129.268-183.95,123.221
			c-43.931-4.544-151.686-72.227-163.696-159.176c-13.789-99.826,0.587-273.592,0.587-273.592s13.533-130.845,147.744-131.338
			C698.962,410.729,795.38,484.132,794.99,599.087z"/>
		<ellipse fill="#FCAC75" cx="600.661" cy="873.378" rx="46.361" ry="28.451"/>
		<path fill="#634156" d="M596.999,882.675c-20.955,0-41.876-5.137-59.885-15.543c-2.837-1.643-3.808-5.273-2.169-8.114
			c1.643-2.837,5.276-3.808,8.114-2.169c35.621,20.596,83.917,18.288,117.42-5.609c2.663-1.902,6.378-1.287,8.28,1.384
			c1.906,2.671,1.287,6.378-1.384,8.28C647.139,875.339,622.044,882.675,596.999,882.675z"/>
		<path fill="#FC523A" d="M804.945,656.288c-9.099-0.921-18.041-1.012-26.592,1.502C787.25,656.905,796.188,656.468,804.945,656.288
			z"/>
		<path fill="#5A384D" d="M847.236,642.501c4.14-88.135-13.375-224.152-148.962-275.741
			c-207.53-78.961-304.826,83.468-320.452,160.432c-5.886,28.989-6.846,65.665-5.771,100.151
			c26.004-6.923,52.794-7.859,79.592-6.449c10.405-43.685,21.008-95.51,26.721-144.634c0,0,84.75,118.649,290.234,167.204
			C792.353,634.529,822.125,638.788,847.236,642.501z"/>
		<path fill="#502D43" d="M698.274,366.761c-4.416-1.68-8.764-3.212-13.08-4.676c20.384,30.012,41.476,59.449,56.364,93.926
			c1.548,3.585-2.435,7.089-5.781,5.078c-34.153-20.532-70.677-37.029-105.615-52.707c-3.978-1.785-7.522,3.097-4.643,6.372
			c20.966,23.847,38.436,51.785,57.464,77.075c2.508,3.333-1.025,7.815-4.843,6.133c-27.984-12.323-56.088-26.299-86.339-38.747
			c-3.753-1.544-7.195,2.769-4.854,6.084c19.185,27.162,38.423,55.711,59.54,81.606c2.797,3.429-1.144,8.202-5.025,6.075
			c-29.341-16.085-60.513-26.62-89.869-39.672c-3.646-1.621-7.128,2.427-5.035,5.824c7.776,12.62,14.496,25.542,21.425,38.026
			c46.556,31.736,112.44,65.473,200.616,86.309c23.754-8.936,53.526-4.676,78.636-0.964
			C851.375,554.367,833.86,418.349,698.274,366.761z"/>
		<path fill="#634156" d="M797.207,790.33l-389.925-15.183c-2.842-0.111-5.056-2.504-4.946-5.346l6.146-157.844
			c0.111-2.842,2.504-5.056,5.346-4.946l389.925,15.183c2.842,0.111,5.056,2.504,4.946,5.346l-6.146,157.844
			C802.442,788.226,800.049,790.44,797.207,790.33z"/>
		<path fill="#5A384D" d="M422.442,756.656c-0.207-0.021-0.505-0.223-0.491-0.588l5.019-128.895c0.011-0.27,0.324-0.56,0.592-0.549
			L788.54,640.68c0.263,0.027,0.56,0.23,0.549,0.594l-5.021,128.893c-0.013,0.27-0.324,0.56-0.592,0.549L422.442,756.656z"/>
		<path fill="#FCAC6F" d="M599.179,924.133c-13.058,0-26.533-2.3-38.06-8.365c-2.903-1.527-4.016-5.114-2.489-8.017
			c1.527-2.903,5.118-4.024,8.017-2.489c20.051,10.549,47.604,7.627,65.115,1.925c3.131-1.013,6.471,0.696,7.488,3.808
			c1.013,3.12-0.692,6.471-3.808,7.488C625.473,921.725,612.542,924.133,599.179,924.133z"/>
		<path fill="#50BAC9" d="M762.99,639.685l-0.352,1.346c-1.498,5.739-6.785,9.665-12.712,9.439l-290.069-11.045
			c-6.553-0.25-11.827-5.468-12.145-12.018l0,0L762.99,639.685z"/>
		<path fill="#5A384D" d="M593.722,602.149c-0.683-0.071-1.365-0.267-2.014-0.599c-50.525-25.848-111.102-81.234-124.716-141.755
			c-0.692-3.081,1.243-6.141,4.325-6.835c3.088-0.688,6.141,1.245,6.835,4.325c12.235,54.396,69.007,108.626,118.764,134.083
			c2.812,1.438,3.927,4.885,2.487,7.695C598.298,601.227,596.003,602.385,593.722,602.149z"/>
		<path fill="#5A384D" d="M471.371,594.474c-0.174-0.018-0.347-0.043-0.522-0.078c-3.098-0.609-5.118-3.614-4.509-6.714
			c6.612-33.671,13.451-68.487,8.256-115.462c-0.347-3.139,1.916-5.965,5.055-6.313c3.147-0.354,5.969,1.918,6.313,5.055
			c5.388,48.717-1.937,86.016-8.401,118.925C476.99,592.813,474.279,594.775,471.371,594.474z"/>
	</g>
	<g>
		<path fill="#FFFFFF" d="M680.388,298.496l3.462-121.917c0.435-15.327,12.814-27.619,28.144-27.946l204.625-4.365
			c15.728-0.336,28.808,12.024,29.365,27.745l4.246,119.957c0.564,15.925-11.925,29.275-27.853,29.773l-104.93,3.279
			c-2.282,0.071-4.336,1.401-5.335,3.453l-16.54,33.973c-2.258,4.637-8.878,4.6-11.084-0.061l-15.458-32.661
			c-1.05-2.218-3.318-3.599-5.771-3.514l-53.11,1.852C693.554,328.643,679.916,315.094,680.388,298.496z"/>
		<g opacity="0.25">
			<path fill="#D3B9B9" d="M945.984,172.014c-0.556-15.721-13.637-28.08-29.365-27.745l-204.625,4.366
				c-15.33,0.327-27.709,12.619-28.144,27.946l-0.149,5.252c2.527-0.789,5.199-1.252,7.972-1.312l204.626-4.365
				c15.727-0.336,28.808,12.024,29.365,27.744l4.127,116.602c12.203-3.68,20.912-15.184,20.44-28.531L945.984,172.014z"/>
		</g>
		<path fill="#50BAC9" d="M849.642,298.858c-0.517-11.539-1.058-23.082-1.47-34.627c-0.246-6.863-2.769-12.936-7.714-18.564
			c-4.644-5.288-10.35-8.359-17.251-9.31c8.87-5.939,14.692-16.076,14.61-27.571c-0.124-17.419-14.527-32.141-31.94-32.624
			c-18.583-0.515-33.81,14.395-33.81,32.863c0,12.386,6.861,23.155,16.979,28.761c-0.011,0.058-0.003,0.015-0.014,0.073
			c-17.211,3.366-24.881,14.104-24.042,33.404c0.192,4.426,0.427,8.85,0.662,13.275c0.312,5.872,0.603,11.856,0.799,17.845
			c0.151,4.593,3.974,8.2,8.565,7.999l66.755-2.93C846.318,307.252,849.846,303.404,849.642,298.858z"/>
		<path fill="#FC523A" d="M876.763,254.003c1.698,1.6,4.395,1.396,5.842-0.434c8.355-10.564,32.306-43.208,15.893-51.034
			c-16.204-7.727-21.689,18.01-21.689,18.01s-5.001-23.009-19.541-16.205C836.715,213.959,866.635,244.463,876.763,254.003z"/>
	</g>
	<g>
		<path fill="#502D43" d="M228.318,799.469c-2.188,0-3.958-1.77-3.958-3.958v-62.974c0-12.03-9.784-21.813-21.813-21.813
			c-12.03,0-21.817,9.784-21.817,21.813v62.974c0,2.188-1.77,3.958-3.958,3.958c-2.188,0-3.958-1.77-3.958-3.958v-62.974
			c0-16.394,13.34-29.73,29.734-29.73s29.73,13.336,29.73,29.73v62.974C232.276,797.699,230.506,799.469,228.318,799.469z"/>
		<g>
			<path fill="#50BAC9" d="M281.771,763.621L281.771,763.621c-1.86,1.844-5.06,1.844-7.135,0l0,0c-2.068-1.838-5.258-1.838-7.135,0
				l0,0c-1.884,1.844-5.084,1.844-7.135,0l0,0c-2.045-1.838-5.234-1.838-7.135,0l0,0c-1.908,1.844-5.108,1.844-7.135,0l0,0
				c-2.021-1.838-5.21-1.838-7.135,0l0,0c-1.932,1.844-5.132,1.844-7.135,0l0,0c-1.997-1.838-5.186-1.838-7.135,0l0,0
				c-1.956,1.844-5.156,1.844-7.135,0l0,0c-1.973-1.838-5.162-1.838-7.135,0l0,0c-1.98,1.844-5.18,1.844-7.135,0l0,0
				c-1.949-1.838-5.138-1.838-7.135,0l0,0c-2.004,1.844-5.204,1.844-7.135,0l0,0c-1.925-1.838-5.115-1.838-7.135,0l0,0
				c-2.028,1.844-5.227,1.844-7.135,0l0,0c-1.902-1.838-5.091-1.838-7.135,0l0,0c-2.051,1.844-5.251,1.844-7.135,0l0,0
				c-1.878-1.838-5.067-1.838-7.135,0l0,0c-2.075,1.844-5.275,1.844-7.135,0l0,0c-1.854-1.838-5.043-1.838-7.135,0l-3.841,3.374
				c-1.013,0.89-1.635,2.1-1.727,3.364l-12.083,166.094c-0.254,3.496,2.166,6.344,5.406,6.344H301.15
				c3.241,0,5.66-2.848,5.406-6.344l-12.083-166.094c-0.092-1.264-0.714-2.474-1.727-3.364l-3.841-3.374
				C286.814,761.783,283.624,761.783,281.771,763.621z"/>
			<path opacity="0.7" fill="#34AEBF" d="M125.918,874.5l-4.507,61.952c-0.254,3.496,2.166,6.344,5.406,6.344H301.15
				c3.241,0,5.661-2.848,5.406-6.344L302.05,874.5H125.918z"/>
			<path fill="#24A7B9" d="M177.296,764.916c-0.948-0.174-1.843-0.605-2.556-1.295h0c-1.901-1.838-5.091-1.838-7.135,0h0
				c-2.051,1.844-5.251,1.844-7.135,0h0c-1.878-1.838-5.067-1.838-7.135,0h0c-2.075,1.844-5.275,1.844-7.135,0
				c-1.854-1.838-5.043-1.838-7.135,0l-3.841,3.373c-1.013,0.89-1.635,2.1-1.727,3.364l-12.083,166.094
				c-0.254,3.496,2.166,6.344,5.406,6.344h44.55L177.296,764.916z"/>
		</g>
		<path fill="#634156" d="M258.639,799.608c-2.188,0-3.958-1.77-3.958-3.958v-62.974c0-12.03-9.784-21.813-21.813-21.813
			c-12.03,0-21.817,9.784-21.817,21.813v62.974c0,2.188-1.77,3.958-3.958,3.958c-2.188,0-3.958-1.77-3.958-3.958v-62.974
			c0-16.394,13.34-29.73,29.734-29.73s29.73,13.336,29.73,29.73v62.974C262.598,797.838,260.827,799.608,258.639,799.608z"/>
	</g>
	<path fill="#FFFFFF" d="M334.288,900.549c-4.166-6.809-9.368-9.285-16.001-7.043c-6.961,2.352-9.049,7.954-8.454,15.114
		c-4.574-4.845-9.716-6.835-15.701-4.225c-5.986,2.611-8.061,7.671-7.356,14.791c-0.955-1.289-1.565-2-2.052-2.787
		c-7.324-11.817-14.624-23.648-21.945-35.467c-4.402-7.107-11.892-9.323-18.286-5.438c-6.331,3.846-7.77,11.687-3.395,18.772
		c14.884,24.104,29.785,48.197,44.679,72.294c0.997,1.612,1.993,3.224,2.99,4.837c-0.178,0.217-0.356,0.434-0.534,0.651
		c-5.881-2.555-11.764-5.107-17.643-7.666c-5.917-2.575-11.817-5.19-17.749-7.729c-5.859-2.508-12.008-1.148-15.538,3.356
		c-3.553,4.533-4.125,10.654-0.548,14.717c2.311,2.625,5.448,4.852,8.647,6.313c19.369,8.843,38.833,17.481,58.321,26.058
		c22.163,9.754,48.204,4.644,65.466-12.694c16.976-17.05,22.222-43.313,11.668-65.134c-6.026-12.458-14.038-23.957-21.181-35.873
		c-1.066-1.779-2.078-3.645-3.443-5.18c-3.8-4.278-9.58-5.493-14.54-3.287c-5.147,2.289-8.01,7.12-7.601,12.826
		C334.132,898.319,334.171,898.884,334.288,900.549z"/>
	<path fill="#4CEAFC" d="M331.833,1027.425c-9.215,0-18.458-1.848-27.121-5.659c-19.332-8.508-42.243-18.647-65.622-29.324
		c-4.063-1.852-7.824-4.6-10.588-7.735c-0.939-1.063-0.839-2.69,0.228-3.63c1.059-0.943,2.69-0.843,3.63,0.228
		c2.265,2.567,5.497,4.917,8.864,6.459c23.352,10.661,46.247,20.789,65.56,29.293c23.742,10.441,52.185,4.925,70.767-13.742
		c12.014-12.057,18.752-28.621,18.493-45.44c-0.019-1.419,1.113-2.59,2.536-2.613c1.539-0.043,2.59,1.117,2.613,2.536
		c0.278,18.199-7.008,36.112-19.993,49.151C367.899,1020.305,349.92,1027.425,331.833,1027.425z"/>
	<path fill="#4CEAFC" d="M287.753,696.747c-30.264,0-54.887-24.623-54.887-54.887c0-30.264,24.623-54.887,54.887-54.887
		s54.887,24.623,54.887,54.887C342.64,672.125,318.017,696.747,287.753,696.747z M287.753,591.739
		c-27.638,0-50.125,22.483-50.125,50.122c0,27.638,22.487,50.122,50.125,50.122c27.638,0,50.125-22.483,50.125-50.122
		C337.878,614.222,315.391,591.739,287.753,591.739z"/>
	<path fill="#4CEAFC" d="M985.934,963.535c-30.264,0-54.887-24.623-54.887-54.887c0-30.264,24.623-54.887,54.887-54.887
		c30.264,0,54.887,24.623,54.887,54.887C1040.82,938.913,1016.198,963.535,985.934,963.535z M985.934,858.527
		c-27.638,0-50.125,22.483-50.125,50.122c0,27.638,22.487,50.122,50.125,50.122c27.638,0,50.125-22.483,50.125-50.122
		C1036.059,881.01,1013.572,858.527,985.934,858.527z"/>
	<path fill="#FFFFFF" d="M575.42,309.97c-30.264,0-54.887-24.623-54.887-54.887s24.623-54.887,54.887-54.887
		c30.264,0,54.887,24.623,54.887,54.887S605.684,309.97,575.42,309.97z M575.42,204.961c-27.638,0-50.125,22.483-50.125,50.122
		s22.487,50.122,50.125,50.122s50.125-22.483,50.125-50.122S603.058,204.961,575.42,204.961z"/>
	<g>
		<g>
			<path fill="#FFFFFF" d="M457.679,977.114c-0.937,0-1.876-0.358-2.592-1.073c-0.338-0.34-0.712-0.712-1.068-1.116
				c-0.129-0.1-0.254-0.207-0.372-0.326l-3.239-3.241c-1.429-1.431-1.429-3.753,0.002-5.18c1.431-1.431,3.751-1.431,5.182,0
				c1.087,1.091,2.001,2.003,2.717,2.808c0.181,0.122,0.352,0.265,0.512,0.426l1.451,1.449c1.429,1.431,1.429,3.749-0.002,5.18
				C459.553,976.756,458.616,977.114,457.679,977.114z"/>
			<path fill="#FFFFFF" d="M423.807,943.24c-0.937,0-1.875-0.358-2.59-1.073l-3.234-3.234c-0.116-0.114-0.224-0.24-0.32-0.368
				c-0.408-0.358-0.785-0.737-1.127-1.077c-1.431-1.431-1.431-3.749-0.002-5.18c1.431-1.431,3.751-1.431,5.182,0l1.438,1.435
				c0.159,0.161,0.3,0.333,0.426,0.515c0.805,0.715,1.722,1.635,2.817,2.729c1.431,1.431,1.431,3.749,0,5.18
				C425.682,942.882,424.744,943.24,423.807,943.24z"/>
		</g>
		<g>
			<path fill="#FFFFFF" d="M465.663,957.836h-6.618c-2.023,0-3.663-1.638-3.663-3.663c0-2.025,1.64-3.663,3.663-3.663h4.604
				c0.683,0,1.325,0.186,1.873,0.515l0.141-0.515c2.023,0,3.663,1.638,3.663,3.663C469.327,956.197,467.686,957.836,465.663,957.836
				z"/>
			<path fill="#FFFFFF" d="M417.761,957.836h-4.604c-0.685,0-1.325-0.19-1.875-0.515l-0.141,0.515c-2.023,0-3.663-1.638-3.663-3.663
				c0-2.025,1.64-3.663,3.663-3.663h6.62c2.023,0,3.663,1.638,3.663,3.663C421.425,956.197,419.784,957.836,417.761,957.836z"/>
		</g>
		<g>
			<path fill="#FFFFFF" d="M453,943.24c-0.937,0-1.875-0.358-2.59-1.073c-1.431-1.431-1.431-3.749,0-5.18l3.223-3.223h-0.002
				c0.007-0.007,0.014-0.014,0.021-0.021h0.002c0.005-0.007,0.013-0.014,0.02-0.018c0.014-0.018,0.029-0.032,0.043-0.047l1.372-1.37
				c1.431-1.431,3.751-1.431,5.182,0c1.429,1.431,1.429,3.749-0.002,5.18l-1.372,1.374l-0.088-0.082
				c-0.018,0.021-0.036,0.043-0.054,0.064l0.079,0.079c-0.161,0.161-0.334,0.304-0.515,0.426c-0.715,0.805-1.635,1.724-2.729,2.819
				C454.874,942.882,453.937,943.24,453,943.24z"/>
			<path fill="#FFFFFF" d="M419.126,977.114c-0.937,0-1.875-0.358-2.59-1.073c-1.431-1.431-1.431-3.749-0.002-5.18
				c0.338-0.336,0.712-0.712,1.116-1.07c0.098-0.129,0.206-0.25,0.324-0.368l3.241-3.245c1.431-1.431,3.751-1.431,5.182,0
				c1.431,1.427,1.431,3.749,0.002,5.18c-1.091,1.091-2.005,2.007-2.806,2.719c-0.125,0.182-0.267,0.354-0.427,0.515l-1.447,1.449
				C421.002,976.756,420.063,977.114,419.126,977.114z"/>
		</g>
		<g>
			<path fill="#FFFFFF" d="M438.402,937.194c-2.023,0-3.663-1.638-3.663-3.663v-4.604c0-0.683,0.188-1.324,0.515-1.871l-0.515-0.143
				c0-2.025,1.64-3.663,3.663-3.663s3.663,1.638,3.663,3.663v6.618C442.066,935.556,440.425,937.194,438.402,937.194z"/>
			<path fill="#FFFFFF" d="M438.402,985.098c-2.023,0-3.663-1.638-3.663-3.663v-6.622c0-2.025,1.64-3.663,3.663-3.663
				s3.663,1.638,3.663,3.663v6.622C442.066,983.46,440.425,985.098,438.402,985.098z"/>
		</g>
	</g>
	<g>
		<g>
			<path fill="#FFFFFF" d="M533.805,156.945c-0.937,0-1.876-0.358-2.592-1.073c-0.338-0.34-0.712-0.712-1.068-1.116
				c-0.129-0.1-0.254-0.207-0.372-0.326l-3.239-3.241c-1.429-1.431-1.429-3.753,0.002-5.18c1.431-1.431,3.751-1.431,5.182,0
				c1.088,1.091,2.002,2.003,2.717,2.808c0.181,0.122,0.352,0.265,0.512,0.426l1.451,1.449c1.429,1.431,1.429,3.749-0.002,5.18
				C535.68,156.587,534.743,156.945,533.805,156.945z"/>
			<path fill="#FFFFFF" d="M499.934,123.072c-0.937,0-1.875-0.358-2.59-1.073l-3.234-3.234c-0.116-0.114-0.224-0.24-0.32-0.368
				c-0.408-0.358-0.785-0.737-1.127-1.077c-1.431-1.431-1.431-3.749-0.002-5.18c1.431-1.431,3.751-1.431,5.182,0l1.438,1.435
				c0.159,0.161,0.3,0.333,0.426,0.515c0.805,0.715,1.722,1.635,2.817,2.729c1.431,1.431,1.431,3.749,0,5.18
				C501.808,122.714,500.871,123.072,499.934,123.072z"/>
		</g>
		<g>
			<path fill="#FFFFFF" d="M541.79,137.667h-6.618c-2.023,0-3.663-1.638-3.663-3.663s1.64-3.663,3.663-3.663h4.604
				c0.683,0,1.325,0.186,1.873,0.515l0.141-0.515c2.023,0,3.663,1.638,3.663,3.663S543.813,137.667,541.79,137.667z"/>
			<path fill="#FFFFFF" d="M493.888,137.667h-4.604c-0.685,0-1.325-0.19-1.875-0.515l-0.141,0.515c-2.023,0-3.663-1.638-3.663-3.663
				s1.64-3.663,3.663-3.663h6.62c2.023,0,3.663,1.638,3.663,3.663S495.911,137.667,493.888,137.667z"/>
		</g>
		<g>
			<path fill="#FFFFFF" d="M529.126,123.072c-0.937,0-1.875-0.358-2.59-1.073c-1.431-1.431-1.431-3.749,0-5.18l3.223-3.223h-0.002
				c0.007-0.007,0.014-0.014,0.021-0.021h0.002c0.005-0.007,0.013-0.014,0.02-0.018c0.014-0.018,0.029-0.032,0.043-0.047l1.372-1.37
				c1.431-1.431,3.751-1.431,5.182,0c1.429,1.431,1.429,3.749-0.002,5.18l-1.372,1.374l-0.088-0.082
				c-0.018,0.021-0.036,0.043-0.054,0.064l0.079,0.079c-0.161,0.161-0.334,0.304-0.515,0.426c-0.715,0.805-1.635,1.724-2.729,2.819
				C531.001,122.714,530.064,123.072,529.126,123.072z"/>
			<path fill="#FFFFFF" d="M495.253,156.945c-0.937,0-1.875-0.358-2.59-1.073c-1.431-1.431-1.431-3.749-0.002-5.18
				c0.338-0.336,0.712-0.712,1.116-1.07c0.098-0.129,0.206-0.25,0.324-0.368l3.241-3.245c1.431-1.431,3.751-1.431,5.182,0
				c1.431,1.427,1.431,3.749,0.002,5.18c-1.091,1.091-2.005,2.007-2.806,2.719c-0.125,0.182-0.267,0.354-0.427,0.515l-1.447,1.449
				C497.129,156.587,496.19,156.945,495.253,156.945z"/>
		</g>
		<g>
			<path fill="#FFFFFF" d="M514.529,117.026c-2.023,0-3.663-1.638-3.663-3.663v-4.604c0-0.683,0.188-1.324,0.515-1.871l-0.515-0.143
				c0-2.025,1.64-3.663,3.663-3.663s3.663,1.638,3.663,3.663v6.618C518.192,115.388,516.552,117.026,514.529,117.026z"/>
			<path fill="#FFFFFF" d="M514.529,164.93c-2.023,0-3.663-1.638-3.663-3.663v-6.622c0-2.025,1.64-3.663,3.663-3.663
				s3.663,1.638,3.663,3.663v6.622C518.192,163.291,516.552,164.93,514.529,164.93z"/>
		</g>
	</g>
	<g>
		<g>
			<path fill="#FFFFFF" d="M974.286,444.26c-0.937,0-1.876-0.358-2.592-1.073c-0.338-0.34-0.712-0.712-1.068-1.116
				c-0.129-0.1-0.254-0.207-0.372-0.326l-3.239-3.241c-1.429-1.431-1.429-3.753,0.002-5.18c1.431-1.431,3.751-1.431,5.182,0
				c1.088,1.091,2.002,2.003,2.717,2.808c0.181,0.122,0.352,0.265,0.512,0.426l1.451,1.449c1.429,1.431,1.429,3.749-0.002,5.18
				C976.16,443.902,975.223,444.26,974.286,444.26z"/>
			<path fill="#FFFFFF" d="M940.414,410.386c-0.937,0-1.875-0.358-2.59-1.073l-3.234-3.234c-0.116-0.114-0.224-0.24-0.32-0.368
				c-0.408-0.358-0.785-0.737-1.127-1.077c-1.431-1.431-1.431-3.749-0.002-5.18c1.431-1.431,3.751-1.431,5.182,0l1.438,1.435
				c0.159,0.161,0.301,0.333,0.426,0.515c0.805,0.715,1.722,1.635,2.817,2.729c1.431,1.431,1.431,3.749,0,5.18
				C942.289,410.028,941.351,410.386,940.414,410.386z"/>
		</g>
		<g>
			<path fill="#FFFFFF" d="M982.271,424.981h-6.618c-2.023,0-3.663-1.638-3.663-3.663c0-2.025,1.64-3.663,3.663-3.663h4.604
				c0.683,0,1.325,0.186,1.873,0.515l0.141-0.515c2.023,0,3.663,1.638,3.663,3.663C985.934,423.343,984.294,424.981,982.271,424.981
				z"/>
			<path fill="#FFFFFF" d="M934.369,424.981h-4.604c-0.685,0-1.325-0.19-1.875-0.515l-0.141,0.515c-2.023,0-3.663-1.638-3.663-3.663
				c0-2.025,1.64-3.663,3.663-3.663h6.62c2.023,0,3.663,1.638,3.663,3.663C938.032,423.343,936.391,424.981,934.369,424.981z"/>
		</g>
		<g>
			<path fill="#FFFFFF" d="M969.607,410.386c-0.937,0-1.875-0.358-2.59-1.073c-1.431-1.431-1.431-3.749,0-5.18l3.223-3.223h-0.002
				c0.007-0.007,0.014-0.014,0.021-0.021h0.002c0.005-0.007,0.013-0.014,0.02-0.018c0.014-0.018,0.029-0.032,0.043-0.047l1.372-1.37
				c1.431-1.431,3.751-1.431,5.182,0c1.429,1.431,1.429,3.749-0.002,5.18l-1.372,1.374l-0.088-0.082
				c-0.018,0.021-0.036,0.043-0.054,0.064l0.079,0.079c-0.161,0.161-0.334,0.304-0.515,0.426c-0.715,0.805-1.635,1.724-2.729,2.819
				C971.481,410.028,970.544,410.386,969.607,410.386z"/>
			<path fill="#FFFFFF" d="M935.733,444.26c-0.937,0-1.875-0.358-2.59-1.073c-1.431-1.431-1.431-3.749-0.002-5.18
				c0.338-0.336,0.712-0.712,1.116-1.07c0.098-0.129,0.206-0.25,0.324-0.368l3.241-3.245c1.431-1.431,3.751-1.431,5.182,0
				c1.431,1.427,1.431,3.749,0.002,5.18c-1.091,1.091-2.005,2.007-2.806,2.719c-0.125,0.182-0.266,0.354-0.427,0.515l-1.447,1.449
				C937.61,443.902,936.671,444.26,935.733,444.26z"/>
		</g>
		<g>
			<path fill="#FFFFFF" d="M955.01,404.34c-2.023,0-3.663-1.638-3.663-3.663v-4.604c0-0.683,0.188-1.324,0.515-1.871l-0.515-0.143
				c0-2.025,1.64-3.663,3.663-3.663c2.023,0,3.663,1.638,3.663,3.663v6.618C958.673,402.702,957.033,404.34,955.01,404.34z"/>
			<path fill="#FFFFFF" d="M955.01,452.244c-2.023,0-3.663-1.638-3.663-3.663v-6.622c0-2.025,1.64-3.663,3.663-3.663
				c2.023,0,3.663,1.638,3.663,3.663v6.622C958.673,450.606,957.033,452.244,955.01,452.244z"/>
		</g>
	</g>
	<path fill="#FFFFFF" d="M237.744,545.172c-10.224,0-18.543-8.321-18.543-18.545c0-10.224,8.319-18.541,18.543-18.541
		c10.224,0,18.543,8.317,18.543,18.541C256.287,536.851,247.968,545.172,237.744,545.172z M237.744,515.413
		c-6.185,0-11.217,5.03-11.217,11.215c0,6.185,5.031,11.219,11.217,11.219c6.185,0,11.217-5.033,11.217-11.219
		C248.96,520.442,243.929,515.413,237.744,515.413z"/>
	<path fill="#FFFFFF" d="M339.141,836.039c-10.224,0-18.543-8.321-18.543-18.545c0-10.224,8.319-18.541,18.543-18.541
		s18.543,8.317,18.543,18.541C357.684,827.718,349.364,836.039,339.141,836.039z M339.141,806.279
		c-6.185,0-11.217,5.03-11.217,11.215s5.031,11.218,11.217,11.218s11.217-5.033,11.217-11.218S345.326,806.279,339.141,806.279z"/>
	<path fill="#4CEAFC" d="M648.849,148.884c-10.224,0-18.543-8.321-18.543-18.545s8.319-18.541,18.543-18.541
		s18.543,8.317,18.543,18.541S659.073,148.884,648.849,148.884z M648.849,119.124c-6.185,0-11.217,5.03-11.217,11.215
		c0,6.185,5.031,11.218,11.217,11.218s11.217-5.033,11.217-11.218C660.066,124.154,655.035,119.124,648.849,119.124z"/>
	<path fill="#FFFFFF" d="M905.488,814.054c-10.224,0-18.543-8.321-18.543-18.545c0-10.224,8.319-18.541,18.543-18.541
		s18.543,8.317,18.543,18.541C924.031,805.733,915.712,814.054,905.488,814.054z M905.488,784.294
		c-6.185,0-11.217,5.03-11.217,11.215s5.031,11.218,11.217,11.218s11.217-5.033,11.217-11.218S911.673,784.294,905.488,784.294z"/>
	<path fill="#FFFFFF" d="M381.809,194.691c-10.224,0-18.543-8.321-18.543-18.545c0-10.224,8.319-18.541,18.543-18.541
		s18.543,8.317,18.543,18.541C400.352,186.37,392.033,194.691,381.809,194.691z M381.809,164.932
		c-6.185,0-11.217,5.03-11.217,11.215s5.031,11.218,11.217,11.218s11.217-5.033,11.217-11.218S387.995,164.932,381.809,164.932z"/>
	<g>
		<g>
			<path fill="#FFFFFF" d="M177.773,652.403c-0.937,0-1.875-0.358-2.59-1.073l-10.684-10.682c-1.431-1.431-1.431-3.749,0-5.18
				c1.431-1.431,3.749-1.431,5.18,0l10.684,10.682c1.431,1.431,1.431,3.749,0,5.18C179.647,652.045,178.71,652.403,177.773,652.403z
				"/>
			<path fill="#FFFFFF" d="M131.048,605.68c-0.937,0-1.875-0.358-2.59-1.073l-10.684-10.682c-1.431-1.431-1.431-3.749,0-5.18
				s3.749-1.431,5.18,0l10.684,10.682c1.431,1.431,1.431,3.749,0,5.18C132.922,605.322,131.985,605.68,131.048,605.68z"/>
		</g>
		<g>
			<path fill="#FFFFFF" d="M189.662,623.702h-15.109c-2.023,0-3.663-1.638-3.663-3.663c0-2.025,1.64-3.663,3.663-3.663h15.109
				c2.023,0,3.663,1.638,3.663,3.663C193.325,622.064,191.685,623.702,189.662,623.702z"/>
			<path fill="#FFFFFF" d="M123.584,623.702h-15.109c-2.023,0-3.663-1.638-3.663-3.663c0-2.025,1.64-3.663,3.663-3.663h15.109
				c2.023,0,3.663,1.638,3.663,3.663C127.247,622.064,125.607,623.702,123.584,623.702z"/>
		</g>
		<g>
			<path fill="#FFFFFF" d="M167.089,605.68c-0.937,0-1.875-0.358-2.59-1.073c-1.431-1.431-1.431-3.749,0-5.18l10.684-10.682
				c1.431-1.431,3.749-1.431,5.18,0s1.431,3.749,0,5.18l-10.684,10.682C168.964,605.322,168.026,605.68,167.089,605.68z"/>
			<path fill="#FFFFFF" d="M120.364,652.403c-0.937,0-1.875-0.358-2.59-1.073c-1.431-1.431-1.431-3.749,0-5.18l10.684-10.682
				c1.431-1.431,3.749-1.431,5.18,0c1.431,1.431,1.431,3.749,0,5.18l-10.684,10.682
				C122.239,652.045,121.301,652.403,120.364,652.403z"/>
		</g>
		<g>
			<path fill="#FFFFFF" d="M149.068,598.214c-2.023,0-3.663-1.638-3.663-3.663v-15.107c0-2.025,1.64-3.663,3.663-3.663
				c2.023,0,3.663,1.638,3.663,3.663v15.107C152.732,596.575,151.091,598.214,149.068,598.214z"/>
			<path fill="#FFFFFF" d="M149.068,664.294c-2.023,0-3.663-1.638-3.663-3.663v-15.107c0-2.025,1.64-3.663,3.663-3.663
				c2.023,0,3.663,1.638,3.663,3.663v15.107C152.732,662.656,151.091,664.294,149.068,664.294z"/>
		</g>
	</g>
	<g>
		<g>
			<path fill="#FFFFFF" d="M886.272,943.399c-0.937,0-1.875-0.358-2.59-1.073l-10.684-10.682c-1.431-1.431-1.431-3.749,0-5.18
				c1.431-1.431,3.749-1.431,5.18,0l10.684,10.682c1.431,1.431,1.431,3.749,0,5.18C888.147,943.041,887.21,943.399,886.272,943.399z
				"/>
			<path fill="#FFFFFF" d="M839.547,896.676c-0.937,0-1.875-0.358-2.59-1.073l-10.684-10.682c-1.431-1.431-1.431-3.749,0-5.18
				c1.431-1.431,3.749-1.431,5.18,0l10.684,10.682c1.431,1.431,1.431,3.749,0,5.18C841.422,896.318,840.485,896.676,839.547,896.676
				z"/>
		</g>
		<g>
			<path fill="#FFFFFF" d="M898.162,914.698h-15.109c-2.023,0-3.663-1.638-3.663-3.663c0-2.025,1.64-3.663,3.663-3.663h15.109
				c2.023,0,3.663,1.638,3.663,3.663C901.825,913.06,900.185,914.698,898.162,914.698z"/>
			<path fill="#FFFFFF" d="M832.083,914.698h-15.109c-2.023,0-3.663-1.638-3.663-3.663c0-2.025,1.64-3.663,3.663-3.663h15.109
				c2.023,0,3.663,1.638,3.663,3.663C835.746,913.06,834.106,914.698,832.083,914.698z"/>
		</g>
		<g>
			<path fill="#FFFFFF" d="M875.589,896.676c-0.937,0-1.875-0.358-2.59-1.073c-1.431-1.431-1.431-3.749,0-5.18l10.684-10.682
				c1.431-1.431,3.749-1.431,5.18,0c1.431,1.431,1.431,3.749,0,5.18l-10.684,10.682
				C877.463,896.318,876.526,896.676,875.589,896.676z"/>
			<path fill="#FFFFFF" d="M828.864,943.399c-0.937,0-1.875-0.358-2.59-1.073c-1.431-1.431-1.431-3.749,0-5.18l10.684-10.682
				c1.431-1.431,3.749-1.431,5.18,0c1.431,1.431,1.431,3.749,0,5.18l-10.684,10.682
				C830.738,943.041,829.801,943.399,828.864,943.399z"/>
		</g>
		<g>
			<path fill="#FFFFFF" d="M857.568,889.21c-2.023,0-3.663-1.638-3.663-3.663V870.44c0-2.025,1.64-3.663,3.663-3.663
				c2.023,0,3.663,1.638,3.663,3.663v15.107C861.231,887.571,859.591,889.21,857.568,889.21z"/>
			<path fill="#FFFFFF" d="M857.568,955.29c-2.023,0-3.663-1.638-3.663-3.663V936.52c0-2.025,1.64-3.663,3.663-3.663
				c2.023,0,3.663,1.638,3.663,3.663v15.107C861.231,953.651,859.591,955.29,857.568,955.29z"/>
		</g>
	</g>
	<path fill="#4CEAFC" d="M371.668,497.133H102.065c-13.135,0-23.823-10.688-23.823-23.823c0-1.423,1.152-2.574,2.574-2.574
		s2.574,1.152,2.574,2.574c0,10.298,8.377,18.674,18.674,18.674h269.603c1.423,0,2.574,1.152,2.574,2.574
		C374.242,495.981,373.091,497.133,371.668,497.133z"/>
	<g>
		<path fill="#50BAC9" d="M963.371,759.247c0.759-0.928,2.151-1.055,3.082-0.295c1.855,1.519,5.061,3.292,8.057,3.25
			c2.11,0,4.01-0.632,5.274-1.563c1.268-0.928,1.818-1.983,1.818-3.037c0-0.55-0.127-0.928-0.381-1.35
			c-0.254-0.423-0.632-0.845-1.264-1.264c-1.227-0.804-3.292-1.519-5.783-1.986h-0.086c-1.983-0.378-3.838-0.883-5.443-1.646
			c-1.601-0.759-2.996-1.814-3.924-3.288c-0.632-1.014-0.969-2.196-0.969-3.464c0-2.529,1.433-4.724,3.374-6.161
			c1.983-1.433,4.556-2.237,7.301-2.237c4.051,0,7.047,1.986,9.198,3.378c0.972,0.677,1.264,2.024,0.591,2.996
			c-0.632,1.014-1.983,1.309-2.996,0.632c-2.151-1.433-4.219-2.701-6.793-2.701c-1.9,0-3.587,0.591-4.728,1.436
			c-1.137,0.842-1.601,1.773-1.601,2.656c0,0.509,0.082,0.845,0.296,1.182c0.21,0.34,0.588,0.718,1.137,1.099
			c1.096,0.759,2.996,1.433,5.274,1.855h0.086c2.151,0.423,4.133,0.969,5.824,1.773c1.728,0.842,3.247,1.941,4.219,3.501
			c0.632,1.014,1.014,2.278,1.014,3.587c0,2.701-1.522,5.023-3.632,6.542c-2.065,1.519-4.81,2.405-7.807,2.405
			c-4.556-0.045-8.398-2.323-10.803-4.219C962.78,761.57,962.652,760.175,963.371,759.247z"/>
		<path fill="#50BAC9" d="M992.46,764.27v-24.897c0-1.309,1.014-2.323,2.323-2.323c1.306,0,2.361,1.014,2.361,2.323v10.126h10.93
			v-10.126c0-1.309,1.014-2.323,2.323-2.323c1.309,0,2.364,1.014,2.364,2.323v24.897c0,1.306-1.055,2.319-2.364,2.319
			c-1.309,0-2.323-1.014-2.323-2.319v-10.129h-10.93v10.129c0,1.306-1.055,2.319-2.361,2.319
			C993.473,766.59,992.46,765.576,992.46,764.27z"/>
		<path fill="#50BAC9" d="M1044.422,740.724c2.618,2.783,4.264,6.497,4.264,10.676s-1.646,7.934-4.264,10.676
			c-2.488,2.742-6.202,4.515-10.085,4.515c-4.051,0-7.762-1.773-10.339-4.515c-2.615-2.742-4.175-6.497-4.175-10.676
			s1.56-7.892,4.175-10.676c2.577-2.787,6.288-4.518,10.339-4.518C1038.22,736.205,1041.934,737.937,1044.422,740.724z
			 M1043.876,751.399c0-2.869-1.141-5.529-2.869-7.384c-1.773-1.9-4.137-2.996-6.669-2.996c-2.701,0-5.061,1.096-6.834,2.996
			c-1.773,1.855-2.869,4.515-2.869,7.384c0,2.869,1.096,5.529,2.869,7.343c1.773,1.897,4.133,3.037,6.834,3.037
			c2.532,0,4.896-1.141,6.669-3.037C1042.735,756.928,1043.876,754.268,1043.876,751.399z"/>
		<path fill="#50BAC9" d="M1066.89,755.11h-5.192v9.16c0,1.264-1.055,2.319-2.36,2.319c-1.268,0-2.323-1.055-2.323-2.319v-24.897
			c0-1.309,1.055-2.323,2.323-2.323h0.041h7.511c5.023,0,9.074,4.051,9.074,9.074C1075.964,751.062,1071.913,755.11,1066.89,755.11z
			 M1061.698,750.427h5.192c2.446,0,4.347-1.941,4.388-4.302c-0.041-2.45-1.941-4.391-4.388-4.391h-5.192V750.427z"/>
	</g>
</g>
</svg>
