<?xml version="1.0" encoding="utf-8"?>
<!-- Generator: Adobe Illustrator 19.1.1, SVG Export Plug-In . SVG Version: 6.00 Build 0)  -->
<svg version="1.1" id="Layer_1" xmlns="http://www.w3.org/2000/svg" xmlns:xlink="http://www.w3.org/1999/xlink" x="0px" y="0px"
	 viewBox="0 0 1200 1200" enable-background="new 0 0 1200 1200" xml:space="preserve">
<g>
	<path fill="#FC523A" d="M842.666,1117.267C1024.718,1027.607,1150,840.247,1150,623.599c0-303.757-246.243-550-550-550
		s-550,246.243-550,550c0,216.648,125.282,404.008,307.334,493.668H842.666z"/>
	<g>
		<path fill="#F04230" d="M600,151.875c-259.296,0-470.249,210.953-470.249,470.247c0,259.296,210.953,470.249,470.249,470.249
			c259.294,0,470.247-210.953,470.247-470.249C1070.247,362.827,859.294,151.875,600,151.875z M829.406,501.701H720.42V392.717
			h108.986V501.701z M837.032,392.717h108.982v108.984H837.032V392.717z M603.813,501.701V392.717h108.982v108.984H603.813z
			 M712.795,509.327v108.982H603.813V509.327H712.795z M596.187,501.701H487.203V392.717h108.984V501.701z M596.187,509.327v108.982
			H487.203V509.327H596.187z M479.578,618.309H370.596V509.327h108.982V618.309z M479.578,625.935v108.984H370.596V625.935H479.578z
			 M487.203,625.935h108.984v108.984H487.203V625.935z M596.187,742.544v108.984H487.203V742.544H596.187z M603.813,742.544h108.982
			v108.984H603.813V742.544z M603.813,734.918V625.935h108.982v108.984H603.813z M720.42,625.935h108.986v108.984H720.42V625.935z
			 M720.42,618.309V509.327h108.986v108.982H720.42z M720.42,385.092V276.108h108.986v108.984H720.42z M712.795,385.092H603.813
			V276.108h108.982V385.092z M596.187,385.092H487.203V276.108h108.984V385.092z M479.578,385.092H370.596V276.108h108.982V385.092z
			 M479.578,392.717v108.984H370.596V392.717H479.578z M362.97,501.701H253.986V392.717H362.97V501.701z M362.97,509.327v108.982
			H253.986V509.327H362.97z M362.97,625.935v108.984H253.986V625.935H362.97z M362.97,742.544v108.984H253.986V742.544H362.97z
			 M370.596,742.544h108.982v108.984H370.596V742.544z M479.578,859.154v108.982H370.596V859.154H479.578z M487.203,859.154h108.984
			v108.982H487.203V859.154z M603.813,859.154h108.982v108.982H603.813V859.154z M720.42,859.154h108.986v108.982H720.42V859.154z
			 M720.42,851.528V742.544h108.986v108.984H720.42z M837.032,742.544h108.982v108.984H837.032V742.544z M837.032,734.918V625.935
			h108.982v108.984H837.032z M837.032,618.309V509.327h108.982v108.982H837.032z M953.64,509.327h95.049
			c8.786,34.934,13.579,71.431,13.884,108.982H953.64V509.327z M953.64,501.701V392.717h47.986
			c19.428,33.88,34.667,70.449,45.066,108.984H953.64z M953.64,385.092v-60.866c16.066,19.042,30.628,39.388,43.495,60.866H953.64z
			 M946.014,385.092H837.032V276.108h69.676c13.871,12.309,26.997,25.435,39.306,39.306V385.092z M837.032,268.482v-43.494
			c21.477,12.867,41.822,27.428,60.864,43.494H837.032z M829.406,268.482H720.42V175.43c38.536,10.399,75.105,25.639,108.986,45.067
			V268.482z M712.795,268.482H603.813V159.549c37.551,0.305,74.048,5.099,108.982,13.884V268.482z M596.187,268.482H487.203v-95.049
			c34.935-8.786,71.432-13.579,108.984-13.885V268.482z M479.578,268.482H370.596v-47.986
			c33.88-19.427,70.447-34.667,108.982-45.066V268.482z M362.97,268.482h-60.866c19.042-16.066,39.389-30.628,60.866-43.495V268.482
			z M362.97,276.108v108.984H253.986v-69.679c12.309-13.871,25.435-26.996,39.306-39.305H362.97z M246.36,385.092h-43.496
			c12.868-21.478,27.43-41.824,43.496-60.867V385.092z M246.36,392.717v108.984h-93.054c10.399-38.535,25.639-75.103,45.066-108.984
			H246.36z M246.36,509.327v108.982H137.425c0.305-37.551,5.099-74.048,13.885-108.982H246.36z M246.36,625.935v108.984h-95.05
			c-8.786-34.935-13.58-71.432-13.885-108.984H246.36z M246.36,742.544v108.984h-47.987c-19.428-33.88-34.668-70.449-45.067-108.984
			H246.36z M246.36,859.154v60.866c-16.066-19.042-30.628-39.388-43.495-60.866H246.36z M253.986,859.154H362.97v108.982h-69.679
			c-13.87-12.309-26.996-25.434-39.304-39.304V859.154z M362.97,975.761v43.497c-21.478-12.868-41.825-27.43-60.868-43.497H362.97z
			 M370.596,975.761h108.982v93.053c-38.535-10.399-75.102-25.638-108.982-45.066V975.761z M487.203,975.761h108.984v108.935
			c-37.552-0.305-74.049-5.099-108.984-13.885V975.761z M603.813,975.761h108.982v95.051
			c-34.934,8.786-71.431,13.579-108.982,13.885V975.761z M720.42,975.761h108.986v47.987
			c-33.881,19.429-70.45,34.668-108.986,45.067V975.761z M837.032,975.761h60.865c-19.042,16.066-39.388,30.628-60.865,43.495
			V975.761z M837.032,968.136V859.154h108.982v69.676c-12.309,13.871-25.435,26.997-39.305,39.306H837.032z M953.64,859.154h43.494
			c-12.867,21.477-27.428,41.823-43.494,60.865V859.154z M953.64,851.528V742.544h93.052
			c-10.399,38.535-25.639,75.103-45.066,108.984H953.64z M953.64,734.918V625.935h108.934
			c-0.305,37.552-5.099,74.049-13.885,108.984H953.64z"/>
	</g>
	<g>
		<polygon fill="#4CEAFC" points="878.402,575.678 810.308,576.894 812.357,554.103 875.295,551.157 		"/>
		<path fill="#5A384D" d="M907.418,564.198c0.869,11.211,1.738,22.422,2.607,33.633c-3.84,0.32-7.679,0.641-11.519,0.954
			c-0.063,0.005-0.135-0.096-0.356-0.263c-0.535-6.897-1.079-13.92-1.624-20.951c-3.193,0.247-6.24,0.484-9.483,0.735
			c0.545,7.034,1.085,14.002,1.638,21.129c-3.933,0.305-7.672,0.595-11.604,0.9c0.299,3.859,0.586,7.558,0.873,11.257
			c-7.485,0.58-14.772,1.145-22.165,1.718c-0.307-3.962-0.607-7.832-0.915-11.805c4.076-0.316,8.054-0.624,12.031-0.933
			c2.715-0.211,5.432-0.393,8.14-0.666c0.361-0.036,0.978-0.554,0.964-0.821c-0.152-2.923-0.406-5.84-0.645-8.923
			c-17.749,1.376-35.399,2.744-53.18,4.122c0.252,3.254,0.502,6.469,0.77,9.933c7.422-0.575,14.738-1.142,22.038-1.708
			c0.312,4.03,0.605,7.81,0.898,11.588c-7.619,0.591-15.13,1.173-22.796,1.767c-0.285-3.675-0.564-7.281-0.86-11.098
			c-3.801,0.295-7.449,0.577-11.179,0.867c-0.057-0.74-0.098-1.261-0.138-1.783c-0.472-6.086-0.94-12.172-1.421-18.257
			c-0.042-0.525,0.121-1.275-0.787-1.211c-3.003,0.213-6.003,0.458-9.139,0.701c0.551,7.113,1.093,14.097,1.642,21.185
			c-3.932,0.305-7.729,0.599-11.525,0.893c-0.849-10.948-1.697-21.896-2.546-32.845c3.571-0.277,7.141-0.554,10.881-0.843
			c-0.29-3.746-0.56-7.229-0.841-10.853c3.607-0.28,7.044-0.546,10.618-0.823c-0.295-3.8-0.578-7.458-0.883-11.385
			c3.945-0.306,7.754-0.601,11.53-0.894c-0.281-3.621-0.54-6.969-0.812-10.471c-3.795,0.294-7.49,0.581-11.173,0.866
			c-0.275-3.549-0.538-6.94-0.8-10.318c3.873-0.3,7.646-0.593,11.526-0.893c0.266,3.434,0.523,6.745,0.791,10.206
			c3.579-0.277,7.052-0.547,10.654-0.826c0.235,3.032,0.522,5.911,0.653,8.796c0.058,1.282,0.488,1.607,1.748,1.503
			c6.257-0.516,12.521-0.935,18.782-1.4c3.756-0.279,7.51-0.58,11.462-0.886c-0.276-3.555-0.541-6.979-0.817-10.545
			c3.629-0.281,7.061-0.547,10.665-0.827c-0.281-3.628-0.551-7.109-0.825-10.638c4.17-0.323,8.164-0.633,12.203-0.946
			c0.284,3.66,0.56,7.225,0.842,10.86c-0.497,0.072-0.921,0.157-1.349,0.193c-3.062,0.256-6.127,0.478-9.184,0.782
			c-0.39,0.039-1.07,0.508-1.057,0.748c0.171,3.176,0.442,6.347,0.703,9.715c3.879-0.301,7.619-0.591,11.516-0.893
			c0.288,3.714,0.561,7.233,0.848,10.942c3.675-0.285,7.189-0.557,10.822-0.839c0.275,3.546,0.535,6.899,0.806,10.403
			C900.186,564.759,903.802,564.478,907.418,564.198z M830.595,570.879c-0.274-3.538-0.54-6.966-0.816-10.532
			c-3.389,0.263-6.699,0.507-10.004,0.805c-0.206,0.019-0.549,0.467-0.534,0.696c0.214,3.264,0.479,6.524,0.737,9.854
			C823.578,571.423,827.014,571.157,830.595,570.879z M862.45,557.965c0.272,3.504,0.537,6.933,0.804,10.369
			c3.553-0.275,6.992-0.542,10.46-0.811c-0.272-3.509-0.537-6.932-0.804-10.369C869.394,557.426,865.993,557.69,862.45,557.965z"/>
	</g>
	<g>
		<polygon fill="#4CEAFC" points="395.141,244.03 310.078,245.549 312.638,217.078 391.259,213.399 		"/>
		<path fill="#5A384D" d="M431.387,229.689c1.086,14.005,2.171,28.009,3.257,42.014c-4.796,0.4-9.593,0.801-14.39,1.192
			c-0.079,0.006-0.168-0.119-0.444-0.329c-0.668-8.615-1.348-17.389-2.029-26.172c-3.988,0.309-7.795,0.604-11.846,0.918
			c0.681,8.787,1.356,17.491,2.046,26.394c-4.913,0.381-9.584,0.743-14.496,1.124c0.374,4.821,0.732,9.442,1.09,14.063
			c-9.35,0.725-18.453,1.43-27.689,2.146c-0.384-4.95-0.758-9.784-1.143-14.747c5.092-0.395,10.061-0.78,15.029-1.165
			c3.391-0.263,6.786-0.491,10.169-0.832c0.451-0.046,1.222-0.692,1.204-1.026c-0.19-3.651-0.507-7.295-0.806-11.147
			c-22.172,1.719-44.22,3.428-66.432,5.15c0.315,4.065,0.626,8.081,0.962,12.409c9.271-0.719,18.411-1.427,27.53-2.134
			c0.39,5.034,0.756,9.756,1.122,14.475c-9.517,0.738-18.901,1.465-28.477,2.207c-0.356-4.591-0.705-9.095-1.075-13.864
			c-4.748,0.368-9.305,0.721-13.965,1.083c-0.072-0.924-0.122-1.576-0.173-2.228c-0.589-7.602-1.175-15.205-1.776-22.807
			c-0.052-0.656,0.151-1.593-0.983-1.512c-3.751,0.266-7.499,0.572-11.416,0.875c0.689,8.886,1.365,17.61,2.052,26.465
			c-4.912,0.381-9.655,0.748-14.398,1.116c-1.06-13.676-2.12-27.353-3.181-41.029c4.46-0.346,8.921-0.692,13.592-1.054
			c-0.363-4.68-0.7-9.03-1.051-13.557c4.506-0.349,8.799-0.682,13.264-1.028c-0.368-4.747-0.722-9.316-1.102-14.222
			c4.928-0.382,9.687-0.751,14.403-1.117c-0.351-4.524-0.675-8.705-1.014-13.08c-4.741,0.368-9.356,0.725-13.957,1.082
			c-0.344-4.434-0.672-8.67-0.999-12.889c4.839-0.375,9.552-0.74,14.399-1.116c0.333,4.29,0.653,8.425,0.988,12.749
			c4.471-0.347,8.81-0.683,13.309-1.032c0.294,3.788,0.652,7.383,0.815,10.988c0.073,1.602,0.61,2.007,2.184,1.877
			c7.816-0.644,15.642-1.168,23.463-1.749c4.692-0.349,9.382-0.725,14.319-1.107c-0.344-4.44-0.676-8.718-1.021-13.173
			c4.533-0.351,8.821-0.684,13.322-1.033c-0.351-4.533-0.688-8.88-1.03-13.289c5.209-0.404,10.198-0.791,15.244-1.182
			c0.354,4.572,0.7,9.026,1.052,13.566c-0.621,0.09-1.151,0.196-1.686,0.241c-3.825,0.32-7.654,0.597-11.473,0.976
			c-0.487,0.048-1.337,0.635-1.321,0.935c0.213,3.968,0.552,7.929,0.878,12.136c4.845-0.376,9.517-0.738,14.386-1.115
			c0.36,4.639,0.7,9.036,1.06,13.669c4.59-0.356,8.98-0.696,13.519-1.048c0.343,4.429,0.668,8.618,1.007,12.996
			C422.353,230.39,426.87,230.04,431.387,229.689z M335.421,238.035c-0.343-4.42-0.675-8.702-1.02-13.157
			c-4.233,0.328-8.368,0.633-12.497,1.005c-0.257,0.023-0.685,0.583-0.667,0.87c0.268,4.077,0.599,8.15,0.921,12.31
			C326.655,238.715,330.947,238.382,335.421,238.035z M375.213,221.902c0.339,4.377,0.671,8.66,1.004,12.953
			c4.438-0.344,8.735-0.677,13.067-1.013c-0.34-4.383-0.671-8.659-1.004-12.953C383.888,221.23,379.64,221.559,375.213,221.902z"/>
	</g>
	<path fill="#FFFFFF" d="M250.003,297.549c4.328-3.842,8.806-7.533,12.914-11.597c1.713-1.694,3.726-4.19,3.71-6.307
		c-0.038-5.168,0.583-9.699,3.712-14.103c2.514-3.539-0.178-6.577-2.783-9.07c-2.7-2.585-5.508-5.056-9.873-9.043
		c4.412,0,6.806-0.203,9.155,0.035c9.604,0.974,14.551-4.971,10.816-13.642c-3.197-7.422-7.066-14.555-9.801-23.307
		c2.65,1.229,5.323,2.412,7.946,3.696c5.73,2.804,11.359,5.827,17.169,8.45c6.433,2.904,9.971,0.76,10.957-6.223
		c0.448-3.174,0.926-6.345,1.49-9.5c0.084-0.471,0.717-0.844,1.781-2.018c2.348,2.715,4.796,5.128,6.753,7.888
		c5.244,7.4,7.334,7.984,14.426,2.232c3.3-2.677,5.84-6.289,9.331-10.148c3.052,7.597,5.888,14.655,8.883,22.108
		c10.551-5.089,20.178-9.733,29.806-14.376c0.486,0.289,0.972,0.578,1.457,0.867c-2.429,4.336-4.462,8.965-7.395,12.929
		c-3.162,4.275-4.444,7.459-0.323,12.228c5.023,5.812,3.097,12.645-0.587,19.966c9.132,3.752,17.836,7.328,26.54,10.904
		c-0.04,0.558-0.08,1.115-0.119,1.673c-5.278,1.259-10.548,2.55-15.836,3.768c-5.802,1.337-10.483,3.782-14.557,8.712
		c-3.678,4.45-2.968,7.83-0.762,11.848c1.513,2.756,3.411,5.3,5.762,8.896c-6.427,0.697-11.319-3.119-17.066-0.186
		c-4.206,2.147-5.897,3.994-5.555,8.31c0.457,5.775,0.836,11.556,1.406,19.533c-6.815-6.194-11.395-11.973-15.173-18.187
		c-1.659-2.729-2.641-4.792-6.205-4.995c-3.864-0.22-6.022,1.583-7.668,4.671c-2.035,3.82-4.133,7.608-6.127,11.269
		c-1.265-0.408-2.084-0.42-2.283-0.777c-1.801-3.23-4.133-9.524-5.117-9.315c-7.603,1.618-15.638-5.116-22.85,1.264
		c-1.869,1.653-4.288,2.685-6.454,4.002c-0.506-0.371-1.012-0.742-1.518-1.113c1.368-2.707,3.059-5.306,4.013-8.152
		c0.953-2.844,2.375-6.405,1.435-8.81c-1.524-3.899-5.735-4.382-9.851-3.88c-5.527,0.674-11.084,1.118-16.637,1.551
		c-1.398,0.109-2.829-0.202-4.245-0.32C250.455,298.703,250.229,298.126,250.003,297.549z"/>
	<g>
		<path fill="#FFFFFF" d="M962.321,348.068c7.752,12.604,8.581-11.789,7.05-16.217c-5.64-16.309-17.756-21.797-34.233-23.933
			c-9.23-1.196-35.162-0.603-18.964,11.7c6.809,5.172,17.752,5.528,25.47,9.839C949.853,334.044,957.329,339.951,962.321,348.068
			C963.566,350.092,955.45,336.895,962.321,348.068z"/>
		<path fill="#FFFFFF" d="M976.459,422.618c-6.563,7.592-10.306,18.158-14.867,27.006c-2.061,3.998-6.099,5.127-4.645,9.912
			c0.737,2.426,11.307,6.548,12.677,6.438c10.498-0.846,16.805-13.645,17.671-22.622
			C987.512,441.087,984.127,413.749,976.459,422.618z"/>
		<path fill="#FFFFFF" d="M993.461,379.307c-2.688-6.042-3.041-21.302-15.199-17.841c-12.368,3.52-3.784,18.246-3.081,25.084
			c0.803,7.803-4.618,25.77,8.848,21.64C992.813,405.495,996.526,386.196,993.461,379.307z"/>
		<path fill="#FFFFFF" d="M907.669,480.511c-9.215,0.04-17.376,0.618-26.46-1.155c-3.384-0.66-8.466-4.163-11.884-1.962
			c-10.835,6.979,3.013,14.741,7.457,17.102c9.345,4.966,21.408,6.421,30.904,0.815C914.172,491.483,920.02,480.457,907.669,480.511
			z"/>
		<path fill="#FFFFFF" d="M821.561,352.464c9.589-3.137,46.051-25.691,22.066-31.995c-8.561-2.25-15.018,2.923-19.256,9.746
			C823.275,331.98,812.92,355.291,821.561,352.464C826.814,350.745,818.681,353.406,821.561,352.464z"/>
		<path fill="#FFFFFF" d="M842.514,458.332c-11.484-5.395-21.04,24.747,2.56,23.58C865.358,480.908,853.515,463.5,842.514,458.332
			C838.594,456.491,846.567,460.236,842.514,458.332z"/>
		<path fill="#FFFFFF" d="M942.09,466.737c-7.342,7.777-25.469,21.417-5.031,22.898c6.737,0.488,14.207-0.375,17.304-7.495
			C956.915,476.273,949.86,458.507,942.09,466.737C937.549,471.547,945.205,463.437,942.09,466.737z"/>
		<path fill="#FFFFFF" d="M820.705,435.89c-6.975-13.029-21.693,6.473-11.1,17.708C825.122,470.057,826.43,446.584,820.705,435.89
			C818.597,431.954,822.386,439.031,820.705,435.89z"/>
		<path fill="#FFFFFF" d="M870.611,321.858c5.234-0.954,20.793-0.554,22.837-7.62c2.475-8.555-4.494-10.515-11.857-10.223
			c-5.375,0.213-15.083,3.016-16.864,8.876C863.224,317.837,864.433,322.984,870.611,321.858
			C875.478,320.971,866.17,322.668,870.611,321.858z"/>
		<path fill="#FFFFFF" d="M809.35,421.393c12.458-2.656,6.986-26.919-6.767-24.828C789.573,398.543,797.333,423.954,809.35,421.393z
			"/>
		<path fill="#FFFFFF" d="M810.796,387.581c9.882,2.197,17.755-26.105-0.081-23.028
			C798.464,366.667,796.447,387.201,810.796,387.581C814.175,388.332,802.037,387.349,810.796,387.581z"/>
	</g>
	<g>
		<g>
			<path fill="#50BAC9" d="M983.121,872.823c-9.717,39.656,29.342,64.059,29.342,64.059c19.501-43.972-3.818-70.867-3.818-70.867
				L983.121,872.823z"/>
			<path fill="#21A6B9" d="M990.141,872.334c-4.328,17.663,13.069,28.533,13.069,28.533c8.686-19.586-1.7-31.565-1.7-31.565
				L990.141,872.334z"/>
		</g>
		<path fill="#634156" d="M1083.443,841.982l-113.351-104.73c-4.077-3.767-10.654-2.372-12.851,2.725l-62.913,145.947
			c-2.615,6.066,2.79,12.526,9.222,11.021l176.263-41.217C1086.099,854.259,1088.183,846.362,1083.443,841.982z"/>
		<path fill="#50BAC9" d="M990.527,791.699L973.982,772.6c-2.215-2.557-6.404-1.414-7.014,1.914l-4.384,23.933
			c-0.523,2.853,2.047,5.308,4.873,4.655l20.929-4.833C991.348,797.584,992.517,793.996,990.527,791.699z"/>
		<path fill="#5A384D" d="M1006.609,803.665l-58.031,12.116c-2.101,0.439-2.77,3.107-1.126,4.485l42.502,35.624
			c1.396,1.17,3.531,0.557,4.095-1.175l15.529-47.74C1010.189,805.097,1008.542,803.261,1006.609,803.665z"/>
	</g>
	<g>
		<g>
			<path fill="#50BAC9" d="M187.795,657.173c-22.216,22.662-5.774,54.461-5.774,54.461c30.468-21.67,25.538-48.895,25.538-48.895
				L187.795,657.173z"/>
			<path fill="#21A6B9" d="M192.682,659.628c-9.895,10.094-2.572,24.257-2.572,24.257c13.571-9.652,11.375-21.778,11.375-21.778
				L192.682,659.628z"/>
		</g>
		<path fill="#634156" d="M267.095,676.319l-34.272-114.953c-1.233-4.135-6.183-5.809-9.672-3.272l-99.915,72.642
			c-4.153,3.019-3.1,9.48,1.797,11.024l134.187,42.311C264.004,685.58,268.528,681.126,267.095,676.319z"/>
		<path fill="#50BAC9" d="M224.903,605.869l-3.491-19.328c-0.467-2.588-3.721-3.484-5.448-1.501l-12.418,14.263
			c-1.48,1.7-0.735,4.36,1.413,5.044l15.909,5.065C223.119,610.129,225.323,608.193,224.903,605.869z"/>
		<path fill="#5A384D" d="M230.912,620.244l-43.602-14.903c-1.578-0.539-3.084,0.979-2.53,2.553l14.296,40.666
			c0.469,1.335,2.14,1.772,3.203,0.838l29.306-25.763C232.738,622.621,232.364,620.74,230.912,620.244z"/>
	</g>
	<g>
		<path fill="#FFFFFF" d="M960.423,726.356c-1.486,0-2.975-0.611-4.04-1.679c-1.031-1.069-1.642-2.554-1.642-4.04
			c0-1.489,0.611-2.975,1.642-4.044c2.171-2.134,5.946-2.134,8.121,0c1.069,1.069,1.676,2.554,1.676,4.044
			c0,1.523-0.607,2.971-1.676,4.04C963.436,725.746,961.95,726.356,960.423,726.356z"/>
		<path fill="#FFFFFF" d="M949.406,690.894c-0.573-3.124,1.523-6.062,4.613-6.631l0,0c3.128-0.536,6.099,1.523,6.635,4.651l0,0
			c0.57,3.087-1.527,6.099-4.613,6.635l0,0c-0.346,0.037-0.689,0.074-1.031,0.074l0,0
			C952.303,695.623,949.901,693.679,949.406,690.894z M943.992,660.164c-0.573-3.09,1.523-6.062,4.613-6.635l0,0
			c3.124-0.532,6.099,1.527,6.635,4.651l0,0c0.532,3.128-1.527,6.066-4.654,6.635l0,0c-0.305,0.037-0.648,0.078-0.99,0.078l0,0
			C946.889,664.893,944.487,662.946,943.992,660.164z M938.578,629.431c-0.573-3.087,1.523-6.062,4.613-6.631l0,0
			c3.124-0.536,6.099,1.523,6.631,4.651l0,0c0.536,3.128-1.523,6.062-4.651,6.635l0,0c-0.305,0.037-0.648,0.075-0.99,0.075l0,0
			C941.475,634.16,939.036,632.216,938.578,629.431z M933.123,598.701c-0.532-3.128,1.564-6.062,4.654-6.635l0,0
			c3.124-0.532,6.099,1.527,6.632,4.654l0,0c0.536,3.124-1.523,6.062-4.651,6.632l0,0c-0.343,0.041-0.648,0.078-0.99,0.078l0,0
			C936.061,603.43,933.618,601.486,933.123,598.701z M927.709,567.972c-0.532-3.128,1.564-6.065,4.654-6.635l0,0
			c3.124-0.536,6.099,1.523,6.631,4.651l0,0c0.536,3.091-1.523,6.062-4.651,6.635l0,0c-0.343,0.037-0.685,0.074-0.99,0.074l0,0
			C930.61,572.697,928.204,570.753,927.709,567.972z M922.295,537.238c-0.532-3.128,1.527-6.099,4.651-6.635l0,0
			c3.128-0.532,6.103,1.527,6.635,4.654l0,0c0.536,3.087-1.523,6.062-4.651,6.594l0,0c-0.343,0.078-0.685,0.115-0.99,0.115l0,0
			C925.192,541.967,922.79,540.023,922.295,537.238z"/>
		<path fill="#FFFFFF" d="M922.526,511.233c-1.489,0-2.975-0.607-4.044-1.676c-1.069-1.069-1.676-2.554-1.676-4.044
			c0-1.523,0.607-2.971,1.676-4.04c2.137-2.134,5.95-2.134,8.084,0c1.069,1.069,1.679,2.517,1.679,4.04
			c0,1.489-0.611,2.975-1.679,4.044C925.497,510.627,924.012,511.233,922.526,511.233z"/>
	</g>
	<g>
		<path fill="#FFFFFF" d="M232.784,547.076c-1.488,0-2.973-0.611-4.042-1.679c-1.067-1.065-1.677-2.554-1.677-4.04
			c0-1.527,0.611-2.975,1.677-4.04c2.135-2.137,5.948-2.137,8.084,0c1.067,1.065,1.677,2.513,1.677,4.04
			c0,1.486-0.611,2.975-1.677,4.04C235.76,546.465,234.309,547.076,232.784,547.076z"/>
		<path fill="#FFFFFF" d="M239.952,516.994c-3.012-0.879-4.766-4.044-3.85-7.093l0,0c0.877-3.012,4.042-4.766,7.091-3.85l0,0
			c3.012,0.875,4.766,4.04,3.852,7.09l0,0c-0.724,2.48-3.012,4.118-5.453,4.118l0,0
			C241.021,517.258,240.486,517.184,239.952,516.994z M248.723,487.176c-3.012-0.916-4.766-4.081-3.852-7.093l0,0
			c0.877-3.05,4.081-4.766,7.093-3.887l0,0c3.05,0.875,4.766,4.081,3.889,7.093l0,0c-0.763,2.513-3.051,4.114-5.492,4.114l0,0
			C249.829,487.403,249.255,487.329,248.723,487.176z M257.531,457.321c-3.051-0.875-4.766-4.04-3.889-7.093l0,0
			c0.877-3.012,4.079-4.766,7.091-3.85l0,0c3.05,0.879,4.766,4.044,3.889,7.093l0,0c-0.724,2.476-3.012,4.118-5.49,4.118l0,0
			C258.597,457.59,258.063,457.511,257.531,457.321z M266.299,427.504c-3.05-0.875-4.766-4.077-3.889-7.089l0,0
			c0.916-3.049,4.079-4.766,7.13-3.891l0,0c3.012,0.916,4.727,4.081,3.85,7.093l0,0c-0.724,2.517-3.012,4.118-5.49,4.118l0,0
			C267.366,427.735,266.834,427.657,266.299,427.504z M275.068,397.69c-3.01-0.916-4.766-4.081-3.889-7.13l0,0
			c0.916-3.012,4.081-4.729,7.13-3.85l0,0c3.012,0.875,4.766,4.077,3.852,7.089l0,0c-0.724,2.48-3.012,4.118-5.49,4.118l0,0
			C276.137,397.917,275.602,397.843,275.068,397.69z M283.839,367.835c-3.012-0.879-4.766-4.044-3.852-7.093l0,0
			c0.877-3.012,4.081-4.766,7.093-3.887l0,0c3.012,0.912,4.766,4.077,3.889,7.13l0,0c-0.763,2.476-3.012,4.077-5.492,4.077l0,0
			C284.945,368.063,284.373,367.988,283.839,367.835z"/>
		<path fill="#FFFFFF" d="M294.248,338.249c-1.525,0-2.975-0.611-4.042-1.679c-1.067-1.069-1.677-2.554-1.677-4.04
			c0-1.489,0.611-2.975,1.677-4.044c2.135-2.134,5.948-2.134,8.084,0c1.067,1.069,1.677,2.554,1.677,4.044
			c0,1.486-0.611,2.971-1.677,4.04C297.221,337.638,295.735,338.249,294.248,338.249z"/>
	</g>
	<path fill="#4CEAFC" d="M886.323,1032.693c-27.345,0-49.593-22.248-49.593-49.593s22.248-49.593,49.593-49.593
		c27.345,0,49.593,22.248,49.593,49.593S913.668,1032.693,886.323,1032.693z M886.323,941.133
		c-23.141,0-41.967,18.826-41.967,41.967s18.826,41.967,41.967,41.967c23.141,0,41.967-18.826,41.967-41.967
		S909.464,941.133,886.323,941.133z"/>
	<path fill="#FFFFFF" d="M203.781,817.939c-13.289,0-24.1-10.809-24.1-24.098c0-13.289,10.811-24.102,24.1-24.102
		c13.287,0,24.098,10.813,24.098,24.102C227.879,807.13,217.068,817.939,203.781,817.939z M203.781,777.364
		c-9.083,0-16.474,7.391-16.474,16.476c0,9.081,7.391,16.473,16.474,16.473c9.083,0,16.473-7.391,16.473-16.473
		C220.253,784.755,212.864,777.364,203.781,777.364z"/>
	<path fill="#4CEAFC" d="M1070.247,712.286c-13.289,0-24.098-10.809-24.098-24.098s10.809-24.098,24.098-24.098
		s24.098,10.809,24.098,24.098S1083.536,712.286,1070.247,712.286z M1070.247,671.715c-9.082,0-16.473,7.391-16.473,16.473
		s7.391,16.473,16.473,16.473s16.473-7.391,16.473-16.473S1079.328,671.715,1070.247,671.715z"/>
	<path fill="#4CEAFC" d="M100.371,488.621c-13.287,0-24.098-10.809-24.098-24.098s10.811-24.098,24.098-24.098
		s24.098,10.809,24.098,24.098S113.658,488.621,100.371,488.621z M100.371,448.05c-9.083,0-16.473,7.391-16.473,16.473
		c0,9.082,7.389,16.473,16.473,16.473s16.473-7.391,16.473-16.473C116.843,455.441,109.454,448.05,100.371,448.05z"/>
	<g>
		<g>
			<path fill="#FFFFFF" d="M1095.369,572.291c-0.976,0-1.951-0.372-2.696-1.117l-2.439-2.439c-0.007-0.007-0.015-0.011-0.019-0.019
				l-0.022-0.022c-0.175-0.182-0.331-0.38-0.465-0.588c-1.244-1.121-2.848-2.722-5.019-4.893c-1.489-1.489-1.489-3.902,0-5.392
				s3.902-1.489,5.392,0l5.488,5.485c0.007,0.007,0.019,0.019,0.026,0.026l0.011,0.011c0.134,0.138,0.253,0.283,0.365,0.436
				c0.648,0.573,1.329,1.259,2.074,2.003c1.489,1.489,1.489,3.902,0,5.392C1097.32,571.918,1096.345,572.291,1095.369,572.291z"/>
			<path fill="#FFFFFF" d="M1037.741,514.667c-0.976,0-1.951-0.372-2.696-1.117l-5.496-5.496c-0.007-0.007-0.015-0.015-0.022-0.022
				l-0.007-0.011c-0.134-0.138-0.257-0.283-0.365-0.432c-0.644-0.573-1.329-1.259-2.074-2.003c-1.489-1.489-1.489-3.902,0-5.392
				s3.902-1.489,5.392,0l2.443,2.439c0.007,0.011,0.019,0.022,0.03,0.03l0,0c0.179,0.19,0.339,0.391,0.477,0.603
				c1.244,1.117,2.845,2.722,5.016,4.893c1.489,1.489,1.489,3.902,0,5.392C1039.692,514.294,1038.717,514.667,1037.741,514.667z"/>
		</g>
		<g>
			<path fill="#FFFFFF" d="M1108.952,539.498h-11.26c-2.107,0-3.813-1.705-3.813-3.813s1.705-3.813,3.813-3.813h7.83
				c1.136,0,2.156,0.495,2.852,1.281l0.577-1.281c2.108,0,3.813,1.705,3.813,3.813S1111.06,539.498,1108.952,539.498z"/>
			<path fill="#FFFFFF" d="M1027.457,539.498h-7.834c-1.136,0-2.156-0.495-2.852-1.281l-0.577,1.281
				c-2.107,0-3.813-1.705-3.813-3.813s1.705-3.813,3.813-3.813h11.263c2.107,0,3.813,1.705,3.813,3.813
				S1029.564,539.498,1027.457,539.498z"/>
		</g>
		<g>
			<path fill="#FFFFFF" d="M1087.405,514.667c-0.976,0-1.951-0.372-2.696-1.117c-1.489-1.489-1.489-3.902,0-5.392l5.47-5.47
				c0.004-0.004,0.007-0.011,0.019-0.019l0.052-0.052c0.801-0.801,1.877-1.158,2.923-1.11l-0.499-1.314
				c1.489-1.489,3.902-1.489,5.392,0s1.489,3.902,0,5.392l-7.964,7.964C1089.356,514.294,1088.38,514.667,1087.405,514.667z"/>
			<path fill="#FFFFFF" d="M1029.777,572.291c-0.976,0-1.951-0.372-2.696-1.117c-1.489-1.489-1.489-3.902,0-5.392
				c0.737-0.737,1.415-1.415,2.055-1.985c0.115-0.16,0.246-0.316,0.391-0.458l0.048,0.045l-0.048-0.048
				c0.082-0.082,0.897-0.894,5.518-5.514c1.489-1.489,3.902-1.489,5.392,0s1.489,3.902,0,5.392c-2.16,2.16-3.753,3.757-4.997,4.874
				c-0.141,0.22-0.305,0.428-0.499,0.618l-0.071-0.067l0.071,0.067l-2.469,2.469
				C1031.728,571.918,1030.752,572.291,1029.777,572.291z"/>
		</g>
		<g>
			<path fill="#FFFFFF" d="M1062.573,504.379c-2.108,0-3.813-1.705-3.813-3.813v-7.834c0-1.136,0.495-2.152,1.285-2.852
				l-1.285-0.577c0-2.107,1.705-3.813,3.813-3.813c2.107,0,3.813,1.705,3.813,3.813v11.263
				C1066.386,502.673,1064.68,504.379,1062.573,504.379z"/>
			<path fill="#FFFFFF" d="M1062.573,585.878c-2.108,0-3.813-1.705-3.813-3.813v-11.263c0-2.107,1.705-3.813,3.813-3.813
				c2.107,0,3.813,1.705,3.813,3.813v7.834c0,1.136-0.495,2.156-1.281,2.852l1.281,0.577
				C1066.386,584.172,1064.68,585.878,1062.573,585.878z"/>
		</g>
	</g>
	<g>
		<g>
			<path fill="#FFFFFF" d="M285.557,982.415c-0.976,0-1.951-0.372-2.696-1.117L275.563,974c-1.489-1.489-1.489-3.902,0-5.392
				c1.489-1.489,3.902-1.489,5.392,0l5.077,5.075c0.741,0.741,1.113,1.713,1.117,2.685l1.104-0.462c1.489,1.489,1.489,3.902,0,5.392
				C287.508,982.043,286.533,982.415,285.557,982.415z"/>
			<path fill="#FFFFFF" d="M232.749,929.605c-0.976,0-1.951-0.372-2.696-1.117l-5.077-5.075c-0.741-0.741-1.113-1.713-1.117-2.685
				l-1.104,0.462c-1.489-1.489-1.489-3.902,0-5.392c1.489-1.489,3.902-1.489,5.392,0l7.298,7.298c1.489,1.489,1.489,3.902,0,5.392
				C234.7,929.233,233.725,929.605,232.749,929.605z"/>
		</g>
		<g>
			<path fill="#FFFFFF" d="M298.005,952.359h-10.32c-2.106,0-3.813-1.705-3.813-3.813s1.707-3.813,3.813-3.813h7.179
				c1.046,0,1.996,0.421,2.685,1.106l0.456-1.106c2.106,0,3.813,1.705,3.813,3.813S300.11,952.359,298.005,952.359z"/>
			<path fill="#FFFFFF" d="M223.323,952.359h-7.179c-1.046,0-1.996-0.421-2.685-1.106l-0.456,1.106
				c-2.106,0-3.813-1.705-3.813-3.813s1.707-3.813,3.813-3.813h10.32c2.106,0,3.813,1.705,3.813,3.813
				S225.429,952.359,223.323,952.359z"/>
		</g>
		<g>
			<path fill="#FFFFFF" d="M278.259,929.605c-0.976,0-1.951-0.372-2.696-1.117c-1.489-1.489-1.489-3.902,0-5.392l5.075-5.075
				c0.741-0.741,1.711-1.113,2.683-1.117l-0.46-1.106c1.489-1.489,3.902-1.489,5.392,0s1.489,3.902,0,5.392l-7.298,7.298
				C280.21,929.233,279.235,929.605,278.259,929.605z"/>
			<path fill="#FFFFFF" d="M225.451,982.415c-0.976,0-1.951-0.372-2.696-1.117c-1.489-1.489-1.489-3.902,0-5.392l2.212-2.212
				c0.004-0.004,0.007-0.007,0.009-0.011l5.077-5.075c1.489-1.489,3.902-1.489,5.392,0c1.489,1.489,1.489,3.902,0,5.392
				l-5.075,5.075c-0.741,0.741-1.711,1.113-2.683,1.117l0.46,1.106C227.402,982.043,226.427,982.415,225.451,982.415z"/>
		</g>
		<g>
			<path fill="#FFFFFF" d="M255.505,920.181c-2.106,0-3.813-1.705-3.813-3.813v-7.179c0-1.05,0.423-2,1.106-2.688l-1.106-0.454
				c0-2.107,1.707-3.813,3.813-3.813c2.106,0,3.813,1.705,3.813,3.813v10.321C259.318,918.476,257.611,920.181,255.505,920.181z"/>
			<path fill="#FFFFFF" d="M255.505,994.863c-2.106,0-3.813-1.705-3.813-3.813v-10.321c0-2.107,1.707-3.813,3.813-3.813
				c2.106,0,3.813,1.705,3.813,3.813v7.179c0,1.046-0.423,1.996-1.108,2.685l1.108,0.458
				C259.318,993.157,257.611,994.863,255.505,994.863z"/>
		</g>
	</g>
	<g>
		<g>
			<path fill="#FFFFFF" d="M506.911,304.317c-0.976,0-1.951-0.372-2.696-1.117l-1.869-1.869l0,0h-0.002l0,0l-4.273-4.275
				c-1.489-1.489-1.489-3.902,0-5.392c1.489-1.489,3.902-1.489,5.392,0l4.275,4.275c0.629,0.629,0.994,1.426,1.089,2.245l0.78-0.376
				c1.489,1.489,1.489,3.902,0,5.392C508.862,303.945,507.887,304.317,506.911,304.317z"/>
			<path fill="#FFFFFF" d="M462.455,259.859c-0.976,0-1.951-0.372-2.696-1.117l-4.275-4.275c-0.629-0.629-0.994-1.426-1.091-2.245
				l-0.778,0.376c-1.489-1.489-1.489-3.902,0-5.392s3.902-1.489,5.392,0l1.869,1.869l0,0l4.275,4.275
				c1.489,1.489,1.489,3.902,0,5.392C464.406,259.486,463.431,259.859,462.455,259.859z"/>
		</g>
		<g>
			<path fill="#FFFFFF" d="M517.391,279.016h-8.687c-2.106,0-3.813-1.705-3.813-3.813s1.707-3.813,3.813-3.813h6.043
				c0.89,0,1.711,0.305,2.361,0.819l0.283-0.819c2.106,0,3.813,1.705,3.813,3.813S519.497,279.016,517.391,279.016z"/>
			<path fill="#FFFFFF" d="M454.52,279.016h-6.043c-0.892,0-1.713-0.305-2.363-0.819l-0.283,0.819c-2.106,0-3.813-1.705-3.813-3.813
				s1.707-3.813,3.813-3.813h8.689c2.106,0,3.813,1.705,3.813,3.813S456.626,279.016,454.52,279.016z"/>
		</g>
		<g>
			<path fill="#FFFFFF" d="M500.768,259.859c-0.976,0-1.951-0.372-2.696-1.117c-1.489-1.489-1.489-3.902,0-5.392l4.224-4.226l0,0
				l0.05-0.048c0.629-0.629,1.426-0.994,2.247-1.091l-0.378-0.778c1.489-1.489,3.902-1.489,5.392,0s1.489,3.902,0,5.392
				l-6.144,6.144C502.719,259.486,501.743,259.859,500.768,259.859z"/>
			<path fill="#FFFFFF" d="M456.311,304.317c-0.976,0-1.951-0.372-2.696-1.117c-1.489-1.489-1.489-3.902,0-5.392l6.144-6.144
				c1.489-1.489,3.902-1.489,5.392,0c1.489,1.489,1.489,3.902,0,5.392l-4.224,4.226l0,0l-0.05,0.048
				c-0.629,0.629-1.426,0.994-2.247,1.091l0.378,0.778C458.262,303.945,457.287,304.317,456.311,304.317z"/>
		</g>
		<g>
			<path fill="#FFFFFF" d="M481.612,251.924c-2.106,0-3.813-1.705-3.813-3.813v-6.043c0-0.894,0.307-1.713,0.819-2.364l-0.819-0.283
				c0-2.107,1.707-3.813,3.813-3.813s3.813,1.705,3.813,3.813v8.691C485.425,250.219,483.718,251.924,481.612,251.924z"/>
			<path fill="#FFFFFF" d="M481.612,314.795c-2.106,0-3.813-1.705-3.813-3.813v-8.687c0-2.107,1.707-3.813,3.813-3.813
				s3.813,1.705,3.813,3.813v6.043c0,0.89-0.305,1.709-0.817,2.361l0.817,0.283C485.425,313.089,483.718,314.795,481.612,314.795z"
				/>
		</g>
	</g>
	<g>
		<polygon fill="#4CEAFC" points="726.372,203.26 621.151,190.009 629.371,155.338 727.028,164.777 		"/>
		<path fill="#5A384D" d="M773.642,192.011c-1.151,17.472-2.301,34.944-3.452,52.416c-5.989-0.359-11.978-0.717-17.966-1.088
			c-0.098-0.006-0.187-0.177-0.49-0.485c0.708-10.748,1.429-21.694,2.15-32.652c-4.976-0.328-9.725-0.64-14.778-0.973
			c-0.722,10.962-1.437,21.821-2.169,32.928c-6.129-0.404-11.956-0.787-18.085-1.191c-0.396,6.014-0.776,11.779-1.155,17.544
			c-11.665-0.768-23.022-1.516-34.544-2.275c0.407-6.175,0.804-12.206,1.212-18.398c6.353,0.418,12.551,0.827,18.75,1.235
			c4.231,0.278,8.459,0.601,12.694,0.781c0.564,0.024,1.63-0.636,1.668-1.052c0.415-4.538,0.671-9.091,0.988-13.897
			c-27.661-1.822-55.168-3.633-82.879-5.458c-0.334,5.071-0.664,10.082-1.02,15.481c11.567,0.762,22.969,1.513,34.346,2.262
			c-0.414,6.28-0.802,12.171-1.189,18.059c-11.874-0.782-23.58-1.553-35.527-2.34c0.377-5.728,0.747-11.346,1.139-17.297
			c-5.924-0.39-11.609-0.765-17.422-1.147c0.076-1.153,0.129-1.966,0.183-2.779c0.625-9.485,1.254-18.969,1.864-28.454
			c0.053-0.819,0.47-1.938-0.943-2.041c-4.675-0.339-9.354-0.628-14.241-0.95c-0.73,11.086-1.447,21.97-2.174,33.017
			c-6.128-0.404-12.045-0.793-17.962-1.183c1.124-17.062,2.247-34.125,3.371-51.187c5.565,0.366,11.129,0.733,16.958,1.117
			c0.384-5.839,0.742-11.266,1.114-16.913c5.621,0.37,10.978,0.723,16.547,1.09c0.39-5.922,0.765-11.623,1.169-17.744
			c6.148,0.405,12.085,0.796,17.969,1.183c0.372-5.644,0.715-10.86,1.075-16.319c-5.915-0.39-11.673-0.769-17.413-1.147
			c0.364-5.532,0.712-10.816,1.059-16.08c6.037,0.398,11.917,0.785,17.963,1.183c-0.352,5.352-0.692,10.511-1.047,15.906
			c5.578,0.367,10.991,0.724,16.604,1.093c-0.311,4.726-0.508,9.226-0.948,13.701c-0.195,1.989,0.396,2.585,2.36,2.704
			c9.758,0.595,19.506,1.34,29.259,2.014c5.851,0.404,11.704,0.774,17.863,1.18c0.365-5.54,0.716-10.876,1.082-16.434
			c5.655,0.372,11.005,0.725,16.621,1.095c0.372-5.655,0.73-11.079,1.092-16.579c6.498,0.428,12.723,0.838,19.018,1.252
			c-0.376,5.704-0.742,11.261-1.115,16.925c-0.782,0.001-1.454,0.037-2.122-0.003c-4.776-0.286-9.549-0.625-14.329-0.835
			c-0.61-0.027-1.762,0.546-1.796,0.919c-0.442,4.933-0.729,9.881-1.075,15.129c6.045,0.398,11.873,0.782,17.947,1.182
			c-0.381,5.788-0.742,11.273-1.123,17.053c5.727,0.377,11.204,0.738,16.866,1.111c-0.364,5.526-0.708,10.752-1.068,16.213
			C762.371,191.269,768.006,191.64,773.642,192.011z M653.755,185.245c0.363-5.514,0.715-10.857,1.081-16.414
			c-5.281-0.348-10.437-0.706-15.598-0.982c-0.321-0.017-0.949,0.598-0.977,0.955c-0.395,5.078-0.71,10.162-1.052,15.352
			C642.819,184.525,648.174,184.878,653.755,185.245z M705.719,172.416c-0.36,5.461-0.712,10.804-1.064,16.16
			c5.537,0.365,10.897,0.718,16.302,1.074c0.36-5.468,0.711-10.803,1.064-16.16C716.542,173.129,711.242,172.78,705.719,172.416z"/>
	</g>
	<g>
		<path fill="#4CEAFC" d="M857.909,378.617v43.675c0,2.293-1.926,4.072-4.147,4.072c-2.293,0-4.072-1.778-4.072-4.072v-36.421
			l-2.96,1.703c-0.666,0.446-1.407,0.594-2.073,0.594c-1.407,0-2.74-0.741-3.481-2.073c-1.257-1.85-0.591-4.442,1.335-5.551
			l9.105-5.404c0.072-0.075,0.22-0.075,0.295-0.148c0.148,0,0.223-0.151,0.371-0.223c0.148,0,0.295-0.075,0.443-0.075
			c0.075-0.072,0.223-0.072,0.295-0.072c0.151-0.075,0.371-0.075,0.518-0.075c0.075,0,0.151,0,0.223,0h0.075c0.22,0,0.368,0,0.518,0
			c0.072,0.075,0.22,0.075,0.295,0.075c0.22,0,0.295,0.072,0.443,0.148c0.075,0,0.223,0,0.295,0.072
			c0.223,0.151,0.298,0.223,0.446,0.223c0.072,0.075,0.148,0.148,0.295,0.223c0.075,0.072,0.223,0.148,0.295,0.223
			c0.148,0.072,0.223,0.22,0.298,0.295c0.072,0.072,0.148,0.148,0.22,0.295c0.075,0.075,0.223,0.223,0.295,0.295l0.075,0.148
			c0,0.075,0.075,0.151,0.075,0.223c0.072,0.148,0.148,0.223,0.148,0.371c0.072,0.148,0.072,0.295,0.148,0.371
			c0,0.148,0.072,0.295,0.072,0.371c0,0.22,0,0.368,0.151,0.518C857.909,378.469,857.909,378.544,857.909,378.617z"/>
		<path fill="#4CEAFC" d="M872.261,400.454c0.072-6.811,1.775-12.953,5.033-17.691c3.107-4.738,7.92-8.218,13.767-8.218
			c5.702,0,10.587,3.481,13.694,8.218c3.185,4.738,4.961,10.88,4.961,17.691c0,6.736-1.775,12.956-4.961,17.694
			c-3.107,4.662-7.992,8.215-13.694,8.215c-5.847,0-10.66-3.553-13.767-8.215C874.036,413.41,872.333,407.19,872.261,400.454z
			 M901.5,400.454c0-5.328-1.483-9.994-3.553-13.176c-2.149-3.11-4.59-4.59-6.886-4.515c-2.293-0.075-4.81,1.404-7.031,4.515
			c-2.073,3.183-3.553,7.848-3.553,13.176c0,5.256,1.48,9.994,3.553,13.104c2.221,3.183,4.738,4.59,7.031,4.59
			c2.296,0,4.738-1.407,6.886-4.59C900.017,410.448,901.5,405.71,901.5,400.454z"/>
		<path fill="#4CEAFC" d="M917.44,400.454c0.072-6.811,1.775-12.953,5.033-17.691c3.107-4.738,7.92-8.218,13.767-8.218
			c5.702,0,10.587,3.481,13.697,8.218c3.182,4.738,4.958,10.88,4.958,17.691c0,6.736-1.775,12.956-4.958,17.694
			c-3.11,4.662-7.995,8.215-13.697,8.215c-5.847,0-10.66-3.553-13.767-8.215C919.215,413.41,917.512,407.19,917.44,400.454z
			 M946.679,400.454c0-5.328-1.48-9.994-3.553-13.176c-2.149-3.11-4.59-4.59-6.886-4.515c-2.293-0.075-4.81,1.404-7.031,4.515
			c-2.073,3.183-3.553,7.848-3.553,13.176c0,5.256,1.48,9.994,3.553,13.104c2.221,3.183,4.738,4.59,7.031,4.59
			c2.296,0,4.738-1.407,6.886-4.59C945.199,410.448,946.679,405.71,946.679,400.454z"/>
	</g>
	<g>
		<polygon fill="#B3523D" points="804.709,795.291 796.22,1070.162 421.843,1096.852 373.761,813.75 		"/>
		<path fill="#9F473D" d="M373.761,813.75l9.961,58.65c39.497,31.559,65.697,67.552,109.208,97.676
			c-32.692,38.636-44.695,81.901-71.494,124.385l0.406,2.391l374.378-26.69l8.489-274.871L373.761,813.75z"/>
		<g>
			<path fill="#50BAC9" d="M895.183,1126.401c0,0-49.757-87.695-174.586-127.73c-124.829-40.035-357.028,8.601-410.276,127.73
				H895.183z"/>
			<path fill="#21A6B9" d="M668.982,1069.209c22.148-17.275,24.211-47.077,21.808-78.05c-53.151-10.234-118.787-7.764-181.04,6.403
				c3.896,22.043,9.953,43.583,23.055,64.022C564.231,1111.15,634.065,1103.524,668.982,1069.209z"/>
			<path fill="#F04230" d="M351.767,523.968c-9.735,55.9,18.28,156.594,18.28,156.594s66.729,5.409,146.803,9.024
				c-4.591-63.734-5.791-128.294-14.024-191.483C422.327,496.795,355.532,502.351,351.767,523.968z"/>
			<path fill="#B3523D" d="M341.86,643.497c7.431,60.31,21.434,115.92,21.434,115.92l40.77-13.101c0,0,12.493-51.221,20.427-109.977
				C398.194,636.399,368.157,644.201,341.86,643.497z"/>
			<path fill="#9F473D" d="M733.329,626.681c3.111,0.718,6.193,1.459,9.341,2.146l32.409,64.067l40.035,6.82
				c0,0,4.994-35.197,2.044-83.239C758.557,600.867,761.272,623.634,733.329,626.681z"/>
			<path fill="#50BAC9" d="M769.912,623.108c0,0,25.265-2.86,30.031,8.579c4.766,11.438,4.766,56.239,4.766,56.239l-34.797,4.968
				V623.108z"/>
			<path fill="#FFFFFF" d="M755.895,681.868c0,0,56.727-37.681,96.437,7.701c39.709,45.382-7.942,162.24-88.495,130.473
				S755.895,681.868,755.895,681.868z"/>
			<path fill="#EBD3D3" d="M810.417,797.195l-16.546-30.334c-1.246-2.284,1.009-4.891,3.441-3.967
				c7.567,2.875,17.081,6.803,23.591,9.531c2.494,1.045,4.838-1.697,3.476-4.033c-19.19-32.894-42.929-59.038-65.17-88.507
				c-2.115,1.193-3.314,1.982-3.314,1.982s-72.611,106.407,7.942,138.174c11.93,4.705,23.13,6.128,33.44,5.028
				c-4.562-8.091-8.938-16.366-13.94-24.018c-1.392-2.13,0.526-4.867,2.993-4.242c7.219,1.828,15.668,3.478,21.139,4.484
				C809.787,801.721,811.546,799.265,810.417,797.195z"/>
			<path fill="#FCAC6F" d="M670.259,934.075c0,0,13.173,81.12-9.66,112.953c-22.833,31.832-79.89,42.1-108.728,6.359
				c-26.832-33.255-19.486-122.392-19.486-122.392L670.259,934.075z"/>
			<path fill="#50BAC9" d="M386.405,645.032c0,0-25.414-0.792-29.232,10.997s-0.168,56.44-0.168,56.44l35.086,2.117L386.405,645.032
				z"/>
			<path fill="#FFFFFF" d="M415.509,690.945c0,0-56.727-37.681-96.437,7.701c-39.709,45.382,7.942,162.24,88.495,130.473
				C488.12,797.352,415.509,690.945,415.509,690.945z"/>
			<path fill="#EBD3D3" d="M360.987,806.29l16.546-30.334c1.246-2.284-1.009-4.891-3.441-3.967
				c-7.567,2.875-17.081,6.803-23.591,9.531c-2.494,1.045-4.838-1.697-3.476-4.033c19.19-32.894,42.929-59.038,65.17-88.507
				c2.115,1.193,3.314,1.982,3.314,1.982s72.611,106.407-7.942,138.174c-11.93,4.705-23.13,6.128-33.439,5.028
				c4.562-8.091,8.938-16.366,13.94-24.018c1.392-2.13-0.526-4.867-2.993-4.242c-7.219,1.828-15.668,3.478-21.139,4.484
				C361.616,810.817,359.858,808.36,360.987,806.29z"/>
			<path fill="#FCD290" d="M760.862,581.167c0,0,16.29,196.349,2.453,254.09c-18.111,75.578-111.517,141.491-170.298,141.491
				c-44.165,0-158.312-56.239-179.203-141.491c-23.985-97.878-27.563-272.2-27.563-272.2s0-131.542,133.449-145.841
				C645.966,403.688,749.423,466.783,760.862,581.167z"/>
			<path fill="#FC523A" d="M776.649,637.041c-9.146,0.02-18.049,0.85-26.296,4.23C759.11,639.475,767.957,638.121,776.649,637.041z"
				/>
			<path fill="#B3523D" d="M817.296,618.977c-4.949-88.093-36.364-221.587-176.538-258.953
				c-214.552-57.192-294.621,114.385-302.247,192.548c-2.872,29.44-0.054,66.021,4.563,100.213
				c25.154-9.562,51.706-13.249,78.507-14.602c5.855-44.523,11.071-97.165,11.7-146.616c0,0,96.507,109.301,305.895,136.459
				C761.885,616.692,791.937,617.867,817.296,618.977z"/>
			<path fill="#9F473D" d="M640.758,360.024c-4.565-1.217-9.048-2.293-13.492-3.306c23.363,27.756,47.371,54.867,65.727,87.63
				c1.909,3.407-1.693,7.302-5.228,5.645c-36.084-16.91-74.111-29.562-110.477-41.562c-4.14-1.366-7.164,3.855-3.963,6.816
				c23.308,21.563,43.559,47.556,65.088,70.754c2.838,3.058-0.215,7.879-4.186,6.599c-29.103-9.379-58.496-20.39-89.867-29.659
				c-3.892-1.15-6.872,3.494-4.202,6.551c21.878,25.044,43.951,51.462,67.619,75.048c3.135,3.124-0.294,8.276-4.373,6.56
				c-30.84-12.981-62.931-20.253-93.473-30.216c-3.794-1.238-6.841,3.147-4.409,6.311c9.033,11.753,17.047,23.916,25.224,35.62
				c49.574,26.778,118.579,53.559,208.431,65.212c22.708-11.332,52.76-10.158,78.12-9.048
				C812.347,530.884,780.932,397.389,640.758,360.024z"/>
			<path fill="#634156" d="M782.741,771.167l-389.418,25.011c-2.838,0.182-5.287-1.971-5.469-4.809L377.729,633.73
				c-0.182-2.838,1.971-5.287,4.809-5.469l389.418-25.011c2.838-0.182,5.287,1.971,5.469,4.809l10.125,157.639
				C787.732,768.536,785.579,770.985,782.741,771.167z"/>
			<path fill="#5A384D" d="M406.5,776.227c-0.208,0-0.525-0.169-0.549-0.534l-8.268-128.728c-0.017-0.27,0.264-0.59,0.532-0.607
				l360.509-23.154c0.264,0,0.581,0.171,0.607,0.534l8.266,128.726c0.015,0.27-0.264,0.59-0.532,0.607L406.5,776.227z"/>
			<path fill="#FCAC6F" d="M596.719,927.029c-12.488,0-24.973-2.156-35.779-6.486c-2.93-1.177-4.355-4.505-3.178-7.439
				c1.175-2.938,4.504-4.353,7.438-3.18c19.582,7.857,46.532,7.443,65.533-0.987c2.878-1.288,6.267,0.019,7.547,2.908
				c1.281,2.886-0.019,6.267-2.908,7.547C623.934,924.471,610.325,927.029,596.719,927.029z"/>
			<path fill="#50BAC9" d="M733.208,624.842l-0.211,1.376c-0.9,5.863-5.755,10.312-11.674,10.697L431.657,655.77
				c-6.544,0.426-12.326-4.222-13.317-10.704l0,0L733.208,624.842z"/>
		</g>
		<path fill="#FFFFFF" d="M358.152,697.719c-4.74,0-8.847-3.53-9.446-8.355c-0.977-7.871-22.894-193.873,69.253-291.685
			c39.634-42.075,94.351-61.199,162.773-56.809c95.942,6.147,165.467,67.957,201.052,178.741
			c26.392,82.166,24.906,161.174,24.828,164.499c-0.123,5.261-4.55,9.413-9.744,9.309c-5.261-0.119-9.432-4.483-9.312-9.744
			c0.015-0.786,1.46-79.515-24.057-158.653c-33.493-103.892-95.395-159.45-183.987-165.124
			c-62.418-4.01-112.087,13.095-147.641,50.818c-86.006,91.24-64.472,274.46-64.245,276.299c0.646,5.224-3.064,9.983-8.287,10.63
			C358.939,697.693,358.543,697.719,358.152,697.719z"/>
		<path fill="#B3523D" d="M560.976,604.919c-0.687,0-1.385-0.125-2.065-0.389c-52.916-20.513-118.87-69.374-138.638-128.173
			c-1.005-2.994,0.605-6.237,3.599-7.244c3.001-1.002,6.237,0.607,7.244,3.599c17.766,52.849,79.816,100.951,131.928,121.154
			c2.945,1.141,4.409,4.455,3.265,7.399C565.433,603.53,563.27,604.919,560.976,604.919z"/>
		<path fill="#B3523D" d="M438.486,609.872c-0.175,0-0.35-0.007-0.527-0.024c-3.144-0.287-5.462-3.068-5.176-6.214
			c3.113-34.172,6.334-69.508-3.666-115.699c-0.668-3.087,1.292-6.131,4.379-6.799c3.094-0.676,6.134,1.294,6.799,4.379
			c10.372,47.904,6.922,85.759,3.878,119.158C443.903,607.641,441.408,609.872,438.486,609.872z"/>
		<g>
			<path fill="#634156" d="M670.061,824.4c-16.573,4.46-82.376,20.216-149.235,9.345c-2.098-0.341-3.977,1.312-3.82,3.431
				c0.759,10.248,5.078,37.273,29.257,53.453c23.937-28.651,73.527-28.805,103.875-4.682c21.854-18.841,24.041-47.618,24.04-58.395
				C674.177,825.392,672.147,823.839,670.061,824.4z"/>
			<path fill="#FC523A" d="M546.263,890.63c11.853,7.932,28.48,13.257,51.799,12.721c24.252-0.558,40.776-7.661,52.076-17.403
				C619.79,861.825,570.2,861.979,546.263,890.63z"/>
		</g>
		<path fill="#B3523D" d="M474.502,383.536c0,0,8.897-27.341-7.626-31.154s-11.381,19.992-11.381,19.992s-16.103-7.902-20.789,0.359
			C430.019,380.994,453.234,406.038,474.502,383.536z"/>
	</g>
</g>
</svg>
