<svg id="Layer_1" data-name="Layer 1" xmlns="http://www.w3.org/2000/svg" width="64" height="64" viewBox="0 0 64 64"><defs><style>.cls-1{fill:#fff;}.cls-2{fill:#1d1d1b;}.cls-3{fill:#7b5207;}.cls-4{fill:#fcd396;}.cls-5{fill:#fab900;}</style></defs><title>morty</title><g id="morty"><path class="cls-1" d="M28.94,59.81a11.1,11.1,0,0,1-2.34-.19c-.6-.14-1.5-.43-2.54-.78a27.94,27.94,0,0,0-4-1.13l-1-.05c-2.34-.1-5.25-.22-5.39-2.61-.1-1.75,1.51-4.36,2.89-6.23A14.06,14.06,0,0,1,18,47.17a16.36,16.36,0,0,1-2.8-3.52H15.1a7.12,7.12,0,0,1-6.51-4.3A6.4,6.4,0,0,1,8,34.22,5.45,5.45,0,0,1,9.6,31.9c-.47-2.09-1.3-6.49-.75-10A13.13,13.13,0,0,1,12,15c.62-1.59,3.19-6.66,11.63-9.44a29.59,29.59,0,0,1,9.12-1.4c10.67,0,18.17,5,20.07,13.39s1.74,13,1.34,15.14A5,5,0,0,1,56,38.45c-1,3.45-4.67,4.23-6.41,4.41a32.07,32.07,0,0,1-2.36,2.9c-.25.26-.49.49-.72.7,1.78,1.58,4.3,4,4.95,5.71a5.64,5.64,0,0,1-.14,4.46,3.59,3.59,0,0,1-1.84,1.88l-.14.05a14.18,14.18,0,0,1-5.71.91c-.62,0-1.29,0-2-.07-1.55-.1-2.64-.19-3.47-.26S36.79,59,36.33,59a8,8,0,0,0-1.76.23A30,30,0,0,1,28.94,59.81Z"/><path class="cls-2" d="M11.54,32.64s-1.69-6.12-1-10.44A10.74,10.74,0,0,1,13.48,16S15,10.21,24.16,7.21,48.41,5.77,51.16,18s1,15.63,1,15.63A3.45,3.45,0,0,1,54.41,38c-1,3.31-5.69,3.25-5.69,3.25A34.94,34.94,0,0,1,46,44.58a7.92,7.92,0,0,1-2.25,1.75s5.31,4.31,6.13,6.44-.37,3.94-.94,4.13-2.19,1.13-7.25.81-5.12-.62-7.5-.12A23,23,0,0,1,27,58c-1.37-.31-5.25-1.81-6.75-1.94S15.48,56,15.41,55,16.6,51.71,18,49.83a10.48,10.48,0,0,1,2.75-2.69,13.21,13.21,0,0,1-4.56-5.31s-3.87,1.06-6.06-3.25S11.54,32.64,11.54,32.64Z"/><path class="cls-3" d="M12.91,31.58s-2.31-6.75-.69-9.94S14,18.14,14,18.14s2.81-6.44,8.69-8.38S37,6.14,44.1,10.52s7.13,18.88,7.06,19.69-.25.88-.25.88a19.8,19.8,0,0,0-3.19-10.69c-3.44-5.25-7.56-8.81-15.44-8.69S17.6,18,17.1,19.27s-.94,2.13-.94,2.13-.87-1.31-1.06-1.31-.69.25-.56.63,1.06,1.38,1.06,1.63a4.71,4.71,0,0,1-.25.94s-1.5-1.37-1.75-1.19-.25,1-.25,1,1.44,1.5,1.38,1.69a17,17,0,0,0-1.12,4.06A8.08,8.08,0,0,1,12.91,31.58Z"/><path class="cls-4" d="M13.29,34.52s.81,2.31,1.25,3.38a7,7,0,0,1,.5,1.94,3.85,3.85,0,0,1-3.12-2.31C11.1,35.39,13,34.77,13.29,34.52Z"/><path class="cls-4" d="M51.16,35.21s-.31,1.25-.69,2.63a7.29,7.29,0,0,1-.75,1.94s2.88-.19,3.25-1.87A2.25,2.25,0,0,0,51.16,35.21Z"/><path class="cls-4" d="M33.16,13.64c5.13,0,11.06,2.81,14.19,10.19s2.44,14.81-2.06,18.94-8.56,6.63-16.19,5.44-10.69-5.44-13-10.69S15,13.77,33.16,13.64Z"/><path class="cls-5" d="M22.23,48c.54-.4,3.81,2.94,11.19,2.19s8.44-2.69,8.75-2.69,5.44,3.81,6.13,5.38.56,2.63.25,2.69a3.8,3.8,0,0,1-.87,0s-3.19-5.19-3.81-5.25-.81.13-.69.44,3.31,5,3.13,5.06-.75.56-1.12.31S42.29,52,42,52s-1,.19-.94.38,2.88,3.94,2.63,4.06a6.64,6.64,0,0,1-1.44.13s-2.5-3.69-2.87-3.69-.62.63-.62.63,2.19,3.25,1.94,3.25a20.88,20.88,0,0,0-5.19-.62c-2.5.13-4.44,1.13-6.62.88S24,55,21.85,54.89s-4.19-.12-4.25-.37S18.23,51,22.23,48Z"/><path class="cls-2" d="M21.23,21.83c-.46,0,5.81-1.25,6.13-.87s.56.88.06.88S22.16,23,21.73,22.89,21.29,21.83,21.23,21.83Z"/><path class="cls-2" d="M39.85,21.21c.25,0,5.5.75,5.56,1.19s.44.56-.19.63a46,46,0,0,1-5.37-.87C39.41,22,39.85,21.21,39.85,21.21Z"/><path class="cls-2" d="M23.66,23.71c3.44-.82,8.25-.44,8.06,5.69s-7.37,7.13-10.81,4.69S17.35,25.21,23.66,23.71Z"/><path class="cls-1" d="M23.89,24.57c2.91-.69,7-.37,6.83,4.82s-6.25,6-9.16,4S18.54,25.84,23.89,24.57Z"/><path class="cls-2" d="M38.41,23.89c3-1.58,7.94.13,8.13,5.69s-6.06,6.75-9.19,4.19S33.6,26.46,38.41,23.89Z"/><path class="cls-1" d="M38.81,24.81c2.46-1.31,6.57.1,6.72,4.71s-5,5.59-7.6,3.46S34.83,26.93,38.81,24.81Z"/><path class="cls-2" d="M24.54,28.14c.91-.71,2.5-.44,2.56.75a1.7,1.7,0,0,1-2.37,1.81C23.16,30.14,24,28.58,24.54,28.14Z"/><path class="cls-2" d="M40.1,28.14c.91-.71,2.5-.44,2.56.75a1.7,1.7,0,0,1-2.37,1.81C38.73,30.14,39.54,28.58,40.1,28.14Z"/><path class="cls-2" d="M31.79,36.39c.27.05,3.88,2.19,4.38,1.88s.13-1.75-.5-2.25-.56-.19-.62-.5a.39.39,0,0,1,.44-.5,2.75,2.75,0,0,1,2.13,2.31c.31,1.88-.81,2.44-2.31,2.06a13.59,13.59,0,0,1-4.12-2.31C31,36.83,31.48,36.33,31.79,36.39Z"/><path class="cls-2" d="M26,41.27c.44-.06,2.13,2.13,6.44,1.94a18.35,18.35,0,0,0,5-.75.94.94,0,0,1,.75.88c-.06.19-2.87,1.38-7.12,1-4.46-.39-5.69-2.06-5.81-2.31S25.54,41.33,26,41.27Z"/></g></svg>