<svg id="Layer_1" data-name="Layer 1" xmlns="http://www.w3.org/2000/svg" width="64" height="64" viewBox="0 0 64 64"><defs><style>.cls-1{fill:#fff;}.cls-2{fill:#1d1d1b;}.cls-3{fill:#cbe7f5;}.cls-4{fill:#f2910d;}.cls-5{fill:#e7413e;}.cls-6{fill:#fab900;}.cls-7{fill:#a42116;}</style></defs><title>alien-ship-beam</title><g id="alien-ship-beam"><path class="cls-1" d="M33.62,64a32.38,32.38,0,0,1-9.93-1.55c-4-1.28-9.29-3.41-8.56-7.23.14-.74,1.9-6.45,2.93-9.8A28.73,28.73,0,0,1,7.59,40.34C3,36.49.56,32.55,1,29.81c.39-2.48,3-5.29,6.75-7.17a33.54,33.54,0,0,1,8.42-2.44A12.66,12.66,0,0,1,20.63,13a25.69,25.69,0,0,1,8.14-4.56l.06,0c.09-1.64.72-2.11,1-2.31a3.42,3.42,0,0,1-.8-1.73,3.88,3.88,0,0,1,.87-3.08A4,4,0,0,1,33,0a5.89,5.89,0,0,1,1.42.18,4,4,0,0,1,3,2.73,4.09,4.09,0,0,1-.37,3.27,1.7,1.7,0,0,1,.48,1,7.63,7.63,0,0,1,0,1.27,14.2,14.2,0,0,1,7.48,4A19.69,19.69,0,0,1,49.35,20c2.34.4,7.35,1.53,10.47,4.2A8.57,8.57,0,0,1,62.06,35a18.56,18.56,0,0,1-7.87,7.69,48,48,0,0,1-5,2.3c4.13,10.44,3.94,11.29,3.83,11.8-.44,2-4.2,4.92-9.5,6A47.69,47.69,0,0,1,33.62,64Z"/><path class="cls-2" d="M17.65,21.67a10.65,10.65,0,0,1,4-7.33,23.59,23.59,0,0,1,7.66-4.28c.37-.12,1.19-.29,1.19-.29s-.21-1.94.25-2.22a5.77,5.77,0,0,1,1.73-.41l-.08-1.28s-1.52-.37-1.73-1.69.82-3,3.3-2.35a2.35,2.35,0,0,1,1.65,3.46,2.53,2.53,0,0,1-1.15.58l-.08,1.36s1.44,0,1.48.21,0,2.43,0,2.43,4.86.33,8,3.67a17.89,17.89,0,0,1,4,7.42l0,.58s7.09.78,10.83,4a6.93,6.93,0,0,1,1.85,8.65,16.88,16.88,0,0,1-7.17,7A30.88,30.88,0,0,1,47,43.92S51.6,55.45,51.39,56.4s-2.88,3.63-8.2,4.74-11.45,2.1-19-.29-7.58-4.45-7.42-5.31,3.42-11.33,3.42-11.33-7-1.36-11.53-5.15-6.3-7.17-6-9,2.51-4.24,5.85-5.93S17.65,21.67,17.65,21.67Z"/><path class="cls-3" d="M32.57,2.78A1.67,1.67,0,0,1,34.73,4.3c0,1.3-2.35,1.08-2.69.49A1.5,1.5,0,0,1,32.57,2.78Z"/><path class="cls-4" d="M31.89,8.22c.31,0,2.87-.15,2.94.15a3.39,3.39,0,0,1,0,1.24c-.09.06-3.15.06-3.15.06S31.61,8.19,31.89,8.22Z"/><path class="cls-5" d="M19.81,22.46c-.11-.12-.19-3,2.53-6s5.93-4.94,10.07-5.19A14.18,14.18,0,0,1,43,15.54,13.51,13.51,0,0,1,45.85,22c.09.74.19.87,0,1s-2.38,1.05-2.38,1.05-4.39-3-4.51-2.94-.62.65-.49.71,4.33,2.47,4.11,2.6a7.38,7.38,0,0,1-1.61.43c-.12,0-3-2-3.24-2s-.77.37-.62.53,3,1.54,2.63,1.82-7.17.83-12.36-.19S20.45,23.18,19.81,22.46Z"/><path class="cls-2" d="M23,21.45a6.47,6.47,0,0,1,1.3-4.36c1.54-2.29,3-3.06,3.21-3S28,15,28,15a6.19,6.19,0,0,0-3,2.81c-1.05,2.07-.83,3.86-1.11,4S23.14,21.69,23,21.45Z"/><path class="cls-2" d="M40.14,19.68c.24-.24,4.85,2.56,4.76,2.87s-.34.49-.49.46-4.57-2.41-4.6-2.53A1.62,1.62,0,0,1,40.14,19.68Z"/><path class="cls-2" d="M40.47,18.48c-.06-.09.12-.59.37-.53A26.6,26.6,0,0,1,45,20.52c0,.28,0,.56-.22.56A41.77,41.77,0,0,1,40.47,18.48Z"/><path class="cls-2" d="M41.28,16.16c.13,0,2.1.8,2.13,1.11s.12.53,0,.53a12.83,12.83,0,0,1-2.19-1C41.12,16.69,41,16.16,41.28,16.16Z"/><path class="cls-6" d="M19.87,24.57a31.54,31.54,0,0,0,9.45,2.56,36.43,36.43,0,0,0,12.88-.62,25.49,25.49,0,0,0,4-1.33c.09.06.22,3.58-.34,4.36s-4.73,2.53-12,2.47-12-2-12.67-2.44a2.53,2.53,0,0,1-1.05-1.08C20.05,28.21,19.65,24.66,19.87,24.57Z"/><path class="cls-2" d="M23.39,27.13A1.8,1.8,0,0,1,26,28.46c.34,1.58-2.16,1.95-3.06,1.36A1.54,1.54,0,0,1,23.39,27.13Z"/><path class="cls-3" d="M24.1,27.93c.43,0,1.27.65.8,1.14A1.09,1.09,0,0,1,23.36,29,.77.77,0,0,1,24.1,27.93Z"/><path class="cls-2" d="M32.72,28.15c.67-.27,2.6.22,2.72,1.7s-2,2-3.31,1.33S31.18,28.77,32.72,28.15Z"/><path class="cls-3" d="M33.21,29c.4-.1,1.11.37,1.08.87s-.71.87-1.45.59S32.32,29.2,33.21,29Z"/><path class="cls-2" d="M41.06,27.25c.67-.39,2.9-.71,3.46.4s.25,2.32-1.27,2.44-2.16-.28-2.5-.8A1.39,1.39,0,0,1,41.06,27.25Z"/><path class="cls-3" d="M41.77,27.81c.43-.35,2-.06,2,.46s-.25,1.17-1.54.83S41.46,28.06,41.77,27.81Z"/><path class="cls-5" d="M48.48,23.82a13.3,13.3,0,0,1,6.64,1.54c3.49,1.73,4.51,3.21,4.51,4.42A5.78,5.78,0,0,1,58.18,33a29,29,0,0,1-2.87,1.92,4.39,4.39,0,0,1-1.33.49s-4.26-1.95-4.48-2-.74.49-.49.71S53.11,35.78,52.9,36s-3.86,1.33-10,1.85-14.37.9-22.49-.56S6.92,33.06,6.18,32.35s-2.32-1.7.22-4.17,6.8-4,8.22-4.51a16.21,16.21,0,0,1,2.9-.68s0,4.26.68,5.44S20,31.05,23.45,32.1a39.43,39.43,0,0,0,11.77,1.61A34.87,34.87,0,0,0,44.89,32a6.2,6.2,0,0,0,3.24-2.87,6.35,6.35,0,0,0,.43-2.81A15.88,15.88,0,0,1,48.48,23.82Z"/><path class="cls-2" d="M50.11,31.3a50,50,0,0,1,5.44,2.19c0,.12-.15.43-.43.37S49.59,32,49.56,31.92,50,31.33,50.11,31.3Z"/><path class="cls-2" d="M51,30.19s.53-.65.68-.65,5.9,2.53,5.78,2.75-.09.34-.31.34S51.1,30.31,51,30.19Z"/><path class="cls-2" d="M51.6,27.19a59.43,59.43,0,0,1,6.46,2.94c0,.09,0,.34-.12.37s-6.52-2.22-6.67-2.41S51.47,27.25,51.6,27.19Z"/><path class="cls-2" d="M52.74,26c-.14-.09.09-.65.34-.59a20.48,20.48,0,0,1,3.21,1.27c0,.19,0,.49-.15.46S52.9,26.08,52.74,26Z"/><path class="cls-2" d="M9.36,31.39a1.92,1.92,0,0,1,0-2.41,8.91,8.91,0,0,1,3.89-2.87c.25.09.53.46.31.56s-2.78,1.45-3.24,2.53.34,1.54.34,1.79S9.61,31.58,9.36,31.39Z"/><path class="cls-7" d="M6.71,34.58c.21-.23,2.6,1.67,7,2.84S21.78,39.67,31.33,40s13.5-.56,17.3-1.3,7.26-2.19,7.45-2-1.7,1.76-4.57,3.09a39.87,39.87,0,0,1-17,4,51.63,51.63,0,0,1-20-3.28C9.79,38.65,6.33,35,6.71,34.58Z"/><path class="cls-3" d="M22.56,44.52a7.19,7.19,0,0,1,2.81.49c-.06.19-1.85,8.19-1.67,8.28s.43.31.53.19,1.85-8.28,2.1-8.28,1.7.31,3.4.46l3.61.31s.28,4.82.12,7.85-.09,3.86,0,3.89a23,23,0,0,0,.87-6.36c0-3.15-.19-5.25,0-5.35s.87.06,2.29-.19,2.5-.34,2.5-.34,1.36,4,1.88,5.5,1.14,4,1.14,4l.34,0a45,45,0,0,0-1.27-5.53c-.93-3.18-1.33-4-1.24-4.08a26.55,26.55,0,0,0,2.84-.46c1.42-.34,2.26-.49,2.26-.49S49.19,55.65,49.22,56,47.15,58,45,58.77a29.84,29.84,0,0,1-4.17,1.08s-.49-3.24-1.05-5.65-.71-3-.93-3.06a.73.73,0,0,0-.49.12s.8,3.46,1.2,5.81a18,18,0,0,1,.37,3,47.48,47.48,0,0,1-6.8.59,24.24,24.24,0,0,1-5.44-.43c.06-.12,1.48-9.08,1.36-9.18s-.8-.22-.83-.06-2.5,8.62-2.63,8.65a34,34,0,0,1-4.36-1.51c-1.58-.68-2.38-1.11-2.44-1.45S22.12,44.71,22.56,44.52Z"/><path class="cls-3" d="M26.14,59.73c-.49-.1,1.67-5.53,1.85-5.53s.12.15.12.31a50.51,50.51,0,0,1-1.17,5.56C26.76,60.07,26.29,59.76,26.14,59.73Z"/></g></svg>