<svg id="Layer_1" data-name="Layer 1" xmlns="http://www.w3.org/2000/svg" width="64" height="64" viewBox="0 0 64 64"><defs><style>.cls-1{fill:#fff;}.cls-2{fill:#1d1d1b;}.cls-3{fill:#cbe7f5;}.cls-4{fill:#696a9b;}.cls-5{fill:#e6e4da;}.cls-6{fill:#92a0d1;}</style></defs><title>alien-ship</title><g id="alien-ship"><path class="cls-1" d="M35.87,57.14A56.28,56.28,0,0,1,16.46,53.7c-7-2.46-11-5-13.56-8.41a10.8,10.8,0,0,1-.47-11.4C3.65,32.1,6.8,30,10.26,28.66c2.1-.81,4-1.38,5.1-1.68A16.41,16.41,0,0,1,25.49,16.46a13.26,13.26,0,0,1,1.84-.28A2.87,2.87,0,0,1,29,14.12c.2-.07.4-.14.6-.19v-.29a3.53,3.53,0,0,1-1.76-2.38,3.59,3.59,0,0,1,.74-3,4.12,4.12,0,0,1,3.27-1.42H32a4.1,4.1,0,0,1,3.25,1.56A3.65,3.65,0,0,1,34,13.78v.1a2.86,2.86,0,0,1,2.08,2.41,12.92,12.92,0,0,1,7.28,3.43,25.81,25.81,0,0,1,5,6.64,3,3,0,0,1,.11.6,26.37,26.37,0,0,1,8.71,3.48c4.11,2.76,6,5,5.75,10.06a13,13,0,0,1-5.82,10.46c-.34.22-.68.46-1,.72-2.79,2-6.61,4.64-15.71,5.31C38.86,57.09,37.34,57.14,35.87,57.14Z"/><path class="cls-2" d="M16.75,28.37A14.68,14.68,0,0,1,26,18.09c.53-.16,2.84-.34,2.84-.34s0-1.75.78-2a8,8,0,0,1,1.72-.37l0-2.84s-1.53-.28-1.78-1.56S30.22,8.5,32,8.56s2.56,1.25,2.22,2.53a2.33,2.33,0,0,1-1.84,1.5l-.06,2.69s2.06,0,2.13,1.22.06,1.34.06,1.34,4.72,0,7.69,3.06a26.24,26.24,0,0,1,4.59,5.94,10.29,10.29,0,0,1,.09,1.53,26.11,26.11,0,0,1,9.41,3.47c4,2.69,5.22,4.41,5,8.56a11.28,11.28,0,0,1-5.06,9.13c-2.84,1.88-6.09,5-15.94,5.75A54.88,54.88,0,0,1,17,52.09C11,50,6.78,47.69,4.28,44.28a9.16,9.16,0,0,1-.44-9.44c1-1.47,3.88-3.37,7-4.59A52.37,52.37,0,0,1,16.75,28.37Z"/><path class="cls-3" d="M19.68,35.06a7.94,7.94,0,0,1-1.28-4.44,15.38,15.38,0,0,1,3.91-8.5A11.63,11.63,0,0,1,30,18.94c3.16-.19,6.63.44,8.72,1.81a10.83,10.83,0,0,1,2.56,2s-1.34,0-1.37.16-.09.72,0,.75a16.38,16.38,0,0,1,2.63.34c.19.19,2.25,2.06,2.59,3.94a16.11,16.11,0,0,1,0,5c-.12-.09-5.69-2.69-5.81-2.62s-.31.59-.22.69,5.94,2.53,6,2.81-.12,1.78-.12,1.78-5.78-2.87-6-2.72-.5.56-.34.69,6.31,2.75,6.28,2.94a3.42,3.42,0,0,1-1.22.94l-.56.25a55.23,55.23,0,0,0-4.87-2.75c-.22.09-.66.28-.44.59s4.38,2.41,4.16,2.63-3.87.81-9.09.72S22.72,38.5,19.68,35.06Z"/><path class="cls-3" d="M31.47,9.44c1.08-.13,1.94.41,1.75,1.31s-2.06.78-2.47.5A1.07,1.07,0,0,1,31.47,9.44Z"/><path class="cls-4" d="M30.34,17.62a.37.37,0,0,1-.41-.44c.06-.31.5-.91,1.69-.84s1.63.34,1.78.72,0,.44-.37.5S30.68,17.56,30.34,17.62Z"/><path class="cls-2" d="M39.84,25.4a21.36,21.36,0,0,1,4,1.72c.09.22.16.72,0,.75a32.42,32.42,0,0,1-3.87-1.44C39.75,26.28,39.72,25.44,39.84,25.4Z"/><path class="cls-2" d="M40,28a39.43,39.43,0,0,1,4.47,1.94c0,.22.09.5-.12.5a39.92,39.92,0,0,1-4.37-1.47C39.81,28.78,39.75,28,40,28Z"/><path class="cls-2" d="M25,22.59a3.77,3.77,0,0,1,1.88-1.69c1.38-.59,2.22-.62,2.41-.44a.66.66,0,0,1,.13.69A13,13,0,0,0,27,22c-.66.5-1.06,1.09-1.37,1.19S24.93,22.78,25,22.59Z"/><path class="cls-2" d="M23.34,24.87c.31-.1,1.81.16,1.81.47a8.7,8.7,0,0,0-.06,4c.56,1.78,1.72,4.44,1.53,5.28A1.47,1.47,0,0,1,25,35.72a11.39,11.39,0,0,1-3.59-1.34c-.81-.56-1.06-1.31-.94-3.12S22.4,25.19,23.34,24.87Z"/><path class="cls-5" d="M23.68,25.87c.16,0,.19.13.16.41a20.36,20.36,0,0,0,.72,5.47c.69,2.19.84,2.5.59,2.62a9.78,9.78,0,0,1-3.34-1,10.18,10.18,0,0,1,.13-3.87C22.28,27.62,23.28,26,23.68,25.87Z"/><path class="cls-6" d="M16.15,29.87c.27,0,.06,4.37,2,6.37S23,39.56,27.5,40.15A36.13,36.13,0,0,0,39.56,40a20.5,20.5,0,0,0,7.25-2.91.71.71,0,0,0,.28-.56s.06-6.06.16-6.16,5.5.69,8.44,3,3.69,3.69,3.59,6.22a6.87,6.87,0,0,1-2.34,4.66,9.69,9.69,0,0,1-1.81,1.22s-4.25-3.34-4.44-3.31-.62.53-.47.72,4.47,3,4.25,3.19a13.51,13.51,0,0,1-1.66.75S50.47,45,50.34,45s-.66.41-.5.66S52,47.09,51.9,47.19a49.5,49.5,0,0,1-14.16,2.09A71.41,71.41,0,0,1,17.62,46.9a44.42,44.42,0,0,1-11.5-5.22,4.71,4.71,0,0,1,0-6.75A23.39,23.39,0,0,1,16.15,29.87Z"/><path class="cls-2" d="M52.75,40.62c.38-.11,3.34,2.34,3.28,2.53s-.31.53-.56.44a25,25,0,0,1-3.22-2.34C52.18,41,52.53,40.69,52.75,40.62Z"/><path class="cls-2" d="M54.5,40c.13,0,.66-.44.88-.41a11,11,0,0,1,2.56,1.94c-.09.19-.16.53-.5.44S54.5,40,54.5,40Z"/><path class="cls-2" d="M56.78,38.81c.13-.12.22-.53.63-.37s.84.94.72,1.09-.16.38-.28.28S56.78,38.81,56.78,38.81Z"/><path class="cls-2" d="M51.34,35.34a2.56,2.56,0,0,1,3.66,2c.41,2.38-3.81,2.88-4.66,1.41A2.31,2.31,0,0,1,51.34,35.34Z"/><path class="cls-3" d="M52,36.19a1.69,1.69,0,0,1,2,1.5c.13,1.16-2.28,1.41-2.75.5A1.41,1.41,0,0,1,52,36.19Z"/><path class="cls-2" d="M43.78,41.78c.91-.25,2.81-.28,3.31,1.19s-1.94,2.94-3.37,2.72a2.12,2.12,0,0,1-1.81-2.16A2.78,2.78,0,0,1,43.78,41.78Z"/><path class="cls-3" d="M44.43,42.56c.63-.06,1.75.5,1.41,1.13s-1.66,1.06-2.19.56A1,1,0,0,1,44.43,42.56Z"/><path class="cls-2" d="M31.25,42.75c.77-.11,3.94.06,4.09,1.63s-1.62,3.19-4.28,2.53A2.1,2.1,0,0,1,31.25,42.75Z"/><path class="cls-3" d="M31.28,43.78a3.54,3.54,0,0,1,2.25.66c.53.53.06,1.44-1.34,1.41S29.62,44.19,31.28,43.78Z"/><path class="cls-2" d="M18.09,40.22c1.33-.22,4.63.47,4.53,2.59S18.4,45.37,17,44.15A2.18,2.18,0,0,1,18.09,40.22Z"/><path class="cls-3" d="M18,41.34c.87-.1,3.13.25,3.34,1.31s-1.66,1.53-3.09.84S17.43,41.4,18,41.34Z"/><path class="cls-2" d="M10.93,34.34c1.1-.07,3.72.09,3.19,2.5s-4.22,2.28-5,.66A2.17,2.17,0,0,1,10.93,34.34Z"/><path class="cls-3" d="M11,35.37c.88-.22,2.19.28,1.81,1.34s-1.59,1-2.41.47S10.35,35.54,11,35.37Z"/><path class="cls-4" d="M7.22,44.15c.28,0,5.66,2.88,10.31,4.13A52,52,0,0,0,33,50.53c7.09,0,10.69-.09,15.66-1.31s7.81-2.87,8-2.75a.32.32,0,0,1,.09.47A23.53,23.53,0,0,1,46.4,52.84a48.13,48.13,0,0,1-22.16-.12c-8.19-2.06-12.5-4-14.22-5.41S6.75,44.12,7.22,44.15Z"/></g></svg>