<svg id="Layer_1" data-name="Layer 1" xmlns="http://www.w3.org/2000/svg" width="64" height="64" viewBox="0 0 64 64"><defs><style>.cls-1{fill:#fff;}.cls-2{fill:#1d1d1b;}.cls-3{fill:#f2910d;}.cls-4{fill:#e6e4da;}</style></defs><title>chewbacca</title><g id="chewbacca"><path class="cls-1" d="M33.78,62.38a2,2,0,0,1-.65-.1,1.7,1.7,0,0,1-.87-.66c-.53-.78-1.28-1.88-1.77-2.6-2,2.2-2.64,2.41-2.94,2.51a4.94,4.94,0,0,1-1.54.26,2.47,2.47,0,0,1-2.39-1.28c-.05-.11-.13-.27-.21-.48a8,8,0,0,1-1.56.79,5,5,0,0,1-1.54.34,2,2,0,0,1-1.49-.62c-.42-.42-.57-.58-.71-3.45a16,16,0,0,1-3.62,1.72,13.38,13.38,0,0,1-3.43.64A2.43,2.43,0,0,1,9,58.57c-.33-.44-.54-.73-.32-4.28a2.7,2.7,0,0,1-.57.06,3.72,3.72,0,0,1-1.78-.5,1.7,1.7,0,0,1-.75-.94c-.23-.69-.08-6.36,1.62-11.86.95-3.07,2.25-7.81,3.51-12.4,1-3.69,2-7.18,2.73-9.75C15.09,13.21,18,5.38,24.17,3a20.15,20.15,0,0,1,7.41-1.35,21.53,21.53,0,0,1,9.84,2.3c4.59,2.41,6.9,5,9.32,14.64,1,4.12,1.8,8.41,2.54,12.57a108.94,108.94,0,0,0,2.84,13.07c.7,2.16,1.21,3.67,1.57,4.74.89,2.63,1.1,3.25.52,4.2a6.32,6.32,0,0,1-4,2.37H54a12.52,12.52,0,0,1-1.26-.18,1.85,1.85,0,0,1,.14.93,2.69,2.69,0,0,1-2.44,2.59,13.72,13.72,0,0,1-5.09-2.24c-.23,1.09-.4,2-.42,2.2,0,.39-.22,2.44-1.61,2.91a1.81,1.81,0,0,1-.56.09,7.66,7.66,0,0,1-3.71-1.56c-.11-.12-.48-.45-.94-.86a10.36,10.36,0,0,1-2.24,2.29A4.2,4.2,0,0,1,33.78,62.38Z"/><path class="cls-2" d="M7.17,52.38A37,37,0,0,1,8.79,41.55C10.5,36,13.34,25.17,15,19.38S19.5,6.63,24.79,4.55a20.08,20.08,0,0,1,15.83.88C44.84,7.63,46.84,10,49.09,19s3.29,19.17,5.42,25.75,2.5,7.13,2.25,7.54a4.87,4.87,0,0,1-2.62,1.54,15.62,15.62,0,0,1-3.71-.87l-1.29-.83s2.13,3.54,2.08,4-.37,1-.75,1A13.35,13.35,0,0,1,46,55a14.27,14.27,0,0,1-1.71-1.67s-1,4.71-1.08,5.38a2.56,2.56,0,0,1-.46,1.42,7.08,7.08,0,0,1-2.46-1c-.37-.42-2.5-2.21-2.5-2.21A17.57,17.57,0,0,1,35,60.21c-1,.58-1.33.46-1.33.46s-1.92-2.83-2.29-3.33a6.28,6.28,0,0,0-.87-.92s-2.75,3.25-3.5,3.5-1.67.25-1.87-.17-1-2.33-1-2.33a14.8,14.8,0,0,1-2.87,1.79c-1,.33-1.12.29-1.29.13S19.67,54,19.67,54A23.11,23.11,0,0,1,14,57.17c-2.33.67-3.42.71-3.67.38s.25-6.25.25-6.25a21,21,0,0,1-2.17,1.29A1.72,1.72,0,0,1,7.17,52.38Z"/><path class="cls-3" d="M8.79,50.25a97.91,97.91,0,0,1,2.42-10.67c1.38-4.46,4.25-13.29,4.63-13.87A3.12,3.12,0,0,1,19,24.38c1.79.21,2.75.54,3,.33s.46-.42.33-.46-2-2.17-1.54-2.25a3.33,3.33,0,0,1,1.79.25c.79.29,1.17.71,1.38.54a1.06,1.06,0,0,0,.29-.5,11.17,11.17,0,0,0-1.58-2.42c-.67-.58-1-.79-1-.79a17.44,17.44,0,0,1,3.17,1.17c.75.5,1.17.54,1.25.33s.63-2.54.63-2.54a6.6,6.6,0,0,0,1.08,2.13,1.3,1.3,0,0,0,1.21.46l1.17-.21.67-.62s.21.67.58.75.83-.5,1.08-1.29a5.88,5.88,0,0,0,.13-2,6,6,0,0,1,1.08,1.79c.42,1.08.29,1.75.63,1.88s.75-.67,2.33-1.87a25.68,25.68,0,0,1,4-2.62c.17,0-1.25,3-1.21,3.63s.17,1,.54,1a10.35,10.35,0,0,0,1.88-.67s-.17,1.29.38,1.58,1.58,0,2.67.46,3.13,2.46,3.88,6.17,3,13.71,3,13.71-1.54-1.37-1.71-1.08-.5.58-.33.79,2.21,1.67,2.33,1.88.63,1.79.63,1.79-2.42-2.5-2.54-2.29-.33.88-.17,1,2.92,2.5,3,2.75.38,1,.38,1S50.13,45.21,50,45.46a2.16,2.16,0,0,0-.08,1c.08.13,3.71,2.92,3.83,3.13a5,5,0,0,1,.29.75,30.64,30.64,0,0,0-3.54-2.12,5.76,5.76,0,0,0-.12,1s3.79,2,3.92,2.21.38.79.17.83a6,6,0,0,1-4-1.5c-1.79-1.54-2.29-2.5-2.58-2.5s-1.37.29-1.33.58A30.94,30.94,0,0,0,47.29,52c.38,1.29.63,2,.63,2a12,12,0,0,1-2.37-2.54c-.71-1.21-.75-1.58-1-1.62s-1.42.75-1.42.75-.42,2-.87,4.33-.5,2.54-.5,2.54a41.62,41.62,0,0,0-3.87-2.58,1.22,1.22,0,0,0-1,.42c-.17.21-2.12,2.88-2.12,2.88a38.47,38.47,0,0,1-2.62-3.12c-.38-.67-.83-1-1-1s-3.33,3.42-3.71,3.67-1.08-.12-1.21-.37A21.7,21.7,0,0,0,25,55c-.12,0-1.87,1.5-2.71,1.92a7.64,7.64,0,0,1-1,.46,39.26,39.26,0,0,0,0-4.92.62.62,0,0,0-.79-.33,24.66,24.66,0,0,1-4.92,2.71,15.94,15.94,0,0,1-3.5.88s.54-7,.29-7.17a1.75,1.75,0,0,0-1.37,0Z"/><path class="cls-2" d="M14.42,33s2.54-6.54,3.21-7a5.46,5.46,0,0,1,3.17-.29c.21.25-.12.67-.12.67a3.09,3.09,0,0,0-2.54,1.08C17.09,28.71,14.42,33,14.42,33Z"/><path class="cls-2" d="M42.17,24.55c.29,0,2.75-.08,3.42.5s2.92,6,2.63,6.21-.54.46-.67.08-2.75-5.5-3-5.54a15.86,15.86,0,0,1-2.67-.54C41.71,25.09,41.92,24.55,42.17,24.55Z"/><path class="cls-2" d="M29.46,22.84c-.07-.11.46-.29.71-.08s1.08,1.54.92,1.71-.54.29-.67.17S29.54,23,29.46,22.84Z"/><path class="cls-2" d="M34.13,23.59a46.22,46.22,0,0,1,3.5-3.5c.17,0,.38,0,.21.25S35,23.92,34.75,23.88A2.18,2.18,0,0,1,34.13,23.59Z"/><path class="cls-2" d="M14,40a33.52,33.52,0,0,1,3.42-8.83,10.76,10.76,0,0,1,9-5.37c4.25-.25,5.79,2.71,5.5,4.38s-2.08,5.63-1.58,6a14,14,0,0,0,4.08.25c.25-.08.46-.71.38-1s-2.42-4.08-1.29-6.62,5.58-4.25,8.79-2,6.25,11.79,6,12.75-.75,1.33-1.12,1.29-2.33-6.75-3.37-8.83a13.58,13.58,0,0,0-2.37-3.37,2.66,2.66,0,0,1-2.29,2.58,3.64,3.64,0,0,1-3.46-1.17A4,4,0,0,0,36,33.21c.79,2,1.63,3.33.88,4.25s-7.25.79-8.12.63-1.17-1.67-.54-3.12,1.67-3.42,1.75-3.75a8.27,8.27,0,0,0,0-1.46s-1.71,2.62-4.46,1.79-2.25-2.87-2.25-2.87A11.71,11.71,0,0,0,18.79,32c-1.67,2.25-2.87,7.75-3.25,8A2.18,2.18,0,0,1,14,40Z"/><path class="cls-2" d="M41.93,31.42c-.23-.19-.87.25-.79.5s1.67,2.17,2,3.46.33,1.71.58,1.79.63.08.67,0A10.7,10.7,0,0,0,43.77,34,8.05,8.05,0,0,0,41.93,31.42Z"/><path class="cls-2" d="M40.39,32.75c-.08-.15-1,.08-.87.42a12.63,12.63,0,0,1,.92,2.21c0,.63-.21.83.13,1a2.69,2.69,0,0,0,.79.13A7.64,7.64,0,0,0,40.39,32.75Z"/><path class="cls-2" d="M38.47,33.5c-.14-.16-.67,0-.54.25s0,1.17.42,1.38.54.25.58.13A5.2,5.2,0,0,0,38.47,33.5Z"/><path class="cls-2" d="M22.42,41.46s1-1.62,1.75-1.67,3.42,1.08,8.21.92,8.08-1.08,8.46-.92,1.25,1.33,1.13,1.5-3.5,2-3.5,2-.62,1.88-1.33,2-2-1.67-2-1.67-2.71.08-4,0-1.87,0-1.87,0-.92,2-1.87,1.88-1.62-2.5-1.62-2.5S22.79,42.55,22.42,41.46Z"/><path class="cls-4" d="M26.42,41.09s1.67.58,6.17.46a43.33,43.33,0,0,0,5.75-.37s-.87,3-1.25,3S36,42.63,35.67,42.55s-1.17.21-3.17.21-3.46-.17-3.63-.12-1.29,1.63-1.46,1.58A6.63,6.63,0,0,1,26.42,41.09Z"/><path class="cls-2" d="M17.84,41c.25-.09.42.38.42.38s-2,5.54-2.29,5.5-.62,0-.62-.29S17.29,41.25,17.84,41Z"/><path class="cls-2" d="M19.46,45.17a2.2,2.2,0,0,1,.58.33c.08.13-1.42,5.5-1.67,5.5a1.64,1.64,0,0,1-.58-.17S19.38,45.3,19.46,45.17Z"/><path class="cls-2" d="M24,46.71c.07-.15.79,0,.75.17s-.5,4.71-.75,4.79-.71.08-.71-.21S23.92,47,24,46.71Z"/><path class="cls-2" d="M29.84,47l1,.08-1,5.75s-.54.13-.62-.21S29.84,47,29.84,47Z"/><path class="cls-2" d="M33.5,48.8c-.07-.1,1-.21,1-.08s.83,4.75.63,4.92-.46.33-.62.21S33.59,48.92,33.5,48.8Z"/><path class="cls-2" d="M37.25,48.42c.05-.16.71-.25.71-.25s1.83,5.08,1.67,5.29-.71.13-.71.13S37.21,48.55,37.25,48.42Z"/><path class="cls-2" d="M41.59,45.21c-.12-.09.54-.58.71-.46s3.08,3.71,2.79,4-.46.33-.62.17S41.79,45.38,41.59,45.21Z"/><path class="cls-2" d="M45.54,43.3c-.11-.08.63-.5.75-.33s1.67,2.5,1.5,2.71-.29.42-.54.17S45.71,43.42,45.54,43.3Z"/><path class="cls-3" d="M15.88,24a6,6,0,0,1,2.67-.67,8.46,8.46,0,0,1,2,.25s-2.33-2-1.83-2.5S20.92,21,21.54,21a1.52,1.52,0,0,1,.83.29,26.69,26.69,0,0,0-2.29-2.67c-.42-.25-.79-1-.42-1.12a10.41,10.41,0,0,1,3.67,1,14.39,14.39,0,0,1,2.08,1s.5-2.46.54-3,.21-.67.54-.67.46.08.54.29,1,2.92,1.63,3.29.75.5.88.33.54-1.92.92-1.83.38,0,.46.21.17,1,.42.88a1.34,1.34,0,0,0,.5-1.08,7.63,7.63,0,0,1-.62-1.87c.08-.29.17-1,.42-.92a4.53,4.53,0,0,1,2.25,2,15.33,15.33,0,0,1,1,2,8.68,8.68,0,0,1,3.63-2.79c2.5-1.08,3.75-1.21,4.08-.92a.42.42,0,0,1,0,.63S41.25,17.92,41,18.46a5,5,0,0,0-.33.92s2.46-.79,2.54-.37-.54,2-.29,2a7.39,7.39,0,0,1,2.54.17c1.17.38,2.92,3.29,2.92,3.29l-2.12-7.83s-1.42,2-1.75,2-.67-.42-.67-.42l1.83-2.62s-1.21-3.75-1.37-3.92-1.58,2.54-1.75,2.5-.87-.21-.83-.46,2.08-2.92,2-3A5.84,5.84,0,0,0,42.5,9.34c-.42-.25-1-.54-1-.54S38.88,14.59,38.63,15s-.5.54-.46.29a34.54,34.54,0,0,1,1.42-5,20.84,20.84,0,0,1,1-2.17s-1.54-1.08-2.25-1.46a3.56,3.56,0,0,0-1-.42S36.09,14,35.88,14s-.5,0-.54-.17S36.25,6,36.13,6a8.87,8.87,0,0,0-4.92-.67A15.41,15.41,0,0,0,27.59,6,29.63,29.63,0,0,1,29,10.84a12,12,0,0,1,.33,3.67c-.12,0-.71.25-.79,0s-.42-2.75-1-5.21-1.37-3-1.37-3A16.18,16.18,0,0,0,23.25,8a3.08,3.08,0,0,0-1,1.21,6.61,6.61,0,0,1,1.88,2.54,8.49,8.49,0,0,1,.67,2.92s-.42.17-.54,0A20.28,20.28,0,0,0,23,11.46a3.63,3.63,0,0,0-1.58-1.12L20,12.88a3.7,3.7,0,0,1,2.21,1.5,15.68,15.68,0,0,1,1.08,1.79s-.46.5-.58.33-.83-1.83-1.75-2.29a2.84,2.84,0,0,0-1.62-.33A70.93,70.93,0,0,0,15.88,24Z"/><path class="cls-2" d="M31.54,9.71c.25-.12.79-.25.92,0s.38,4,.13,4a1.22,1.22,0,0,1-.62,0"/><path class="cls-2" d="M21.71,31.42c.23-.19.88.25.79.5s-1.67,2.17-2,3.46-.33,1.71-.58,1.79-.62.08-.67,0A10.7,10.7,0,0,1,19.88,34,8.05,8.05,0,0,1,21.71,31.42Z"/><path class="cls-2" d="M23.25,32.75c.08-.15,1,.08.88.42a12.63,12.63,0,0,0-.92,2.21c0,.63.21.83-.12,1a2.69,2.69,0,0,1-.79.13A7.64,7.64,0,0,1,23.25,32.75Z"/><path class="cls-2" d="M25.17,33.5c.14-.16.67,0,.54.25s0,1.17-.42,1.38-.54.25-.58.13A5.2,5.2,0,0,1,25.17,33.5Z"/></g></svg>