<svg id="Layer_1" data-name="Layer 1" xmlns="http://www.w3.org/2000/svg" width="64" height="64" viewBox="0 0 64 64"><defs><style>.cls-1{fill:#fff;}.cls-2{fill:#1d1d1b;}.cls-3{fill:#696a9b;}.cls-4{fill:#92a0d1;}</style></defs><title>neptune</title><g id="neptune"><path class="cls-1" d="M36.58,60.38c-.79,0-1.62,0-2.47-.11-8.61-.76-15.43-4-22.09-10.41C6.23,44.27,5,40.42,4.17,33.36c-.77-6.79,3.49-15,7.38-20A26.15,26.15,0,0,1,23.91,4.93a23.11,23.11,0,0,1,7.55-1.31,26.69,26.69,0,0,1,9,1.7c6.93,2.47,11.35,5.65,15.24,11C60,22.13,60.15,29.35,59.8,35A27.26,27.26,0,0,1,53,51.88C49.63,56,45.26,60.38,36.58,60.38Z"/><path class="cls-2" d="M24.45,6.54c3.91-1.31,8.63-2.06,15.47.38s10.88,5.5,14.44,10.38,4.16,11,3.75,17.59a25.7,25.7,0,0,1-6.37,15.91c-3.81,4.59-8.25,8.59-17.47,7.78S18.7,53.95,13.2,48.64,6.61,39.79,5.86,33.17s3.78-14.62,7-18.81A24.47,24.47,0,0,1,24.45,6.54Z"/><path class="cls-3" d="M26.7,7.79a20.28,20.28,0,0,1,8.69-.22A31.84,31.84,0,0,1,42,10.17S31.76,11.92,31.7,12.23s-.28,1,.13,1,10.81-2.56,11.41-2.41a27.85,27.85,0,0,1,5.06,2.66c2.06,1.34,2.09,1.75,2.09,1.75s-5.91-.91-17.62,1.66-18,4.16-19.66,4.53a22.48,22.48,0,0,0-3,.88,38.75,38.75,0,0,1,4.59-7.37A24.11,24.11,0,0,1,26.7,7.79Z"/><path class="cls-2" d="M23,11.45c.23-.12.91,0,.53.28s-4.84,4.66-5.09,4.53-1-.59-.72-.78S22.48,11.73,23,11.45Z"/><path class="cls-4" d="M9.79,24c.1-.08,9.34-2.66,15.91-4.22A110.76,110.76,0,0,1,43.45,17c6.28-.53,7.72-.5,8.28-.25a12.07,12.07,0,0,1,2.34,3.66c-.16.09-13.75,2-13.94,2.38s-.28.78,0,.81S54,21.29,54.29,21.64s2.34,3.13,2.25,8.75-.69,8.84-1.94,11.69a37.37,37.37,0,0,1-3.22,5.63S47.86,44,47.67,44s-.69.09-.47.44,3.81,3.63,3.66,3.84a8.68,8.68,0,0,1-.78,1.19,1.82,1.82,0,0,1-.78.06,44.51,44.51,0,0,0-3.56-3.81c-.25,0-.69.41-.66.56s3,3,2.72,3.09-9.09-.47-13.47.44S27.45,51.2,25.54,52s-2,1-2.16,1-2.72-1.28-4.31-2.09S17,49.42,17.2,49.2s1.63-1.31,6.31-2.22,5.69-.66,5.75-.87.13-.75-.22-.84a35.14,35.14,0,0,0-8.53,1.38,17.6,17.6,0,0,0-4.31,2.13,30.91,30.91,0,0,1-6.37-7.44c-2.28-4-2.31-10.41-1.91-12.47A14,14,0,0,1,9.79,24Z"/><path class="cls-2" d="M10.73,27.86c.26-.22,1.19-.22,1,.34s-1.22,2.5-1,4,.72,2.25.62,2.38a2.68,2.68,0,0,1-.66.34,5.72,5.72,0,0,1-.94-3.44A8.63,8.63,0,0,1,10.73,27.86Z"/><path class="cls-2" d="M14.61,28.26a36.55,36.55,0,0,1,5-2c2.47-.81,3.81-1.22,4-1s.47,1.09.16,1.22a18.06,18.06,0,0,0-5.91,1.44c-2.72,1.34-2.84,1.56-3.06,1.44S14.42,28.39,14.61,28.26Z"/><path class="cls-2" d="M15.48,33.86c.1-.25,2.31-1,2.53-.62s.5.5.19.72a7.42,7.42,0,0,1-2.53.88C15.45,34.67,15.42,34,15.48,33.86Z"/><path class="cls-2" d="M14,42.17c.14-.23,5.62-2.5,5.81-2.22a.76.76,0,0,1,.16.78,44.67,44.67,0,0,1-5.44,2.47C14.29,43.2,13.89,42.32,14,42.17Z"/><path class="cls-2" d="M30.61,28.64c3.72-1.3,13.25-.56,18.25,1s5.28,3.88,4.69,5.94-2.81,4.66-10.72,4.81-14,.09-17.19-2.72S21.48,31.82,30.61,28.64Z"/><path class="cls-3" d="M33.11,29.45c3.81-1,4.72,1,9.81,1.31S50.86,32,51.67,33,53,36.7,49.33,37.76s-8.56,1-14,.84-8.13-1.34-9.41-3.06S26,31.32,33.11,29.45Z"/><path class="cls-2" d="M34.08,33.42c.53-.32,2.5,3,2.31,3.28a.89.89,0,0,1-1,.34c-.25-.16-2.34-2.81-2.09-3.12A2.12,2.12,0,0,1,34.08,33.42Z"/><path class="cls-2" d="M36.64,32.57c.12-.12.66-.41.91-.16s2.69,3.5,2.53,3.72-.37.41-.59.34S36.45,32.76,36.64,32.57Z"/><path class="cls-2" d="M41,32.29c0-.16.69-.28.84-.19s2.5,2.75,2.34,3.06-.56.47-.72.38A30.69,30.69,0,0,1,41,32.29Z"/><path class="cls-2" d="M50,42.36s2.56,1.94,2.5,2.22-.22.75-.44.66-2.84-2.09-2.72-2.28A1.71,1.71,0,0,1,50,42.36Z"/><path class="cls-2" d="M51.23,41.14c0-.13.31-.62.56-.62s2,1.19,1.94,1.44-.09.59-.34.59A7.14,7.14,0,0,1,51.23,41.14Z"/><path class="cls-2" d="M53.83,38.73c.06-.11.84.06.84.31s0,.72-.12.72a2.87,2.87,0,0,1-1-.34C53.42,39.29,53.79,38.79,53.83,38.73Z"/><path class="cls-3" d="M25.33,53.95c-.18-.13,4.72-2.06,10-2.72s13.22,0,13.19.28A7.23,7.23,0,0,1,46,53.64a8.52,8.52,0,0,1-2,.88A9.94,9.94,0,0,0,42.67,53c-.22,0-.59,0-.62.22s1.5,1.59,1.28,1.78a14.66,14.66,0,0,1-1.72.78s-1.78-2.69-2.22-2.66-.75.22-.69.38,2.34,2.47,2.09,2.66a3.34,3.34,0,0,1-1.59.34,13.87,13.87,0,0,0-1.72-2.31c-.22,0-1.09.22-1,.38s1.88,2.06,1.53,2.22A18,18,0,0,1,31,56.39,14.75,14.75,0,0,1,25.33,53.95Z"/></g></svg>