<svg id="Layer_1" data-name="Layer 1" xmlns="http://www.w3.org/2000/svg" width="64" height="64" viewBox="0 0 64 64"><defs><style>.cls-1{fill:#fff;}.cls-2{fill:#1d1d1b;}.cls-3{fill:#a42116;}.cls-4{fill:#ffe19b;}.cls-5{fill:#85bfe9;}</style></defs><title>princess-leia</title><g id="princess-leia"><path class="cls-1" d="M32.9,59.64a18.89,18.89,0,0,1-4.56-.53c-1.79-.54-9.94-9-10-9.08-2-2.09-3.51-4.74-3.67-5.91,0-.24-.08-.69-.13-1.16-.52,0-1.09,0-1.62,0s-.75,0-1,0c-1.48-.09-3.5-.85-4.17-1.92-.18-.29-.37-.6-.52-2.85a3.17,3.17,0,0,1-2.58-2.05,43.26,43.26,0,0,1-.41-6.6c-.1-5.82.12-6.17.39-6.6a4.61,4.61,0,0,1,2.86-1.81,3.48,3.48,0,0,1,2.52-2.52,15.32,15.32,0,0,1,2.92-.33,18,18,0,0,1,6.21-9A21.82,21.82,0,0,1,33,4.36a26.47,26.47,0,0,1,4.81.46c7.17,1.33,12,8.67,12.67,10.52.29.82.66,2.26.92,3.3,1.52.13,3.08.54,3.77,1.58a5.46,5.46,0,0,1,.62,1.27c2.84.54,3.32,1.43,3.51,1.79.66,1.25.75,12.37.33,13.45-.56,1.45-2.79,2.25-3.81,2.5a3.75,3.75,0,0,1-1.51,1.9,12.26,12.26,0,0,1-4.36.77,9.74,9.74,0,0,1-1.61,4.41C45.52,50.22,40.49,57,38,58.52A9.85,9.85,0,0,1,32.9,59.64Z"/><path class="cls-2" d="M8.92,22.87s-.17-2.21,1.42-2.58A17.89,17.89,0,0,1,14.22,20a15.69,15.69,0,0,1,5.92-9.33A20.47,20.47,0,0,1,37.47,6.49C44,7.7,48.38,14.62,48.84,15.91S50,20.28,50,20.28s3.13,0,3.71.88A4,4,0,0,1,54.34,23s3,.38,3.42,1.08.54,11.29.25,12-2.5,1.5-2.71,1.5-.83,0-.83,0-.25,1.54-1,2-5.12.63-5.12.63a8.87,8.87,0,0,1-1.37,5c-1.54,2.17-7.42,10.29-9.79,11.75s-7.33.71-8.29.42-7.37-6.62-9.29-8.62a13.75,13.75,0,0,1-3.21-5c-.08-.62-.29-2.71-.29-2.71s-2.75.17-4.08.08a4.66,4.66,0,0,1-2.83-1.12,23.34,23.34,0,0,1-.33-3.5s-2.25.08-2.58-1S5.72,24.32,6,23.87A2.87,2.87,0,0,1,8.92,22.87Z"/><path class="cls-3" d="M7.84,24.66c.16-.34,1.08-.21,1.13,0s0,10.29-.21,10.33-.75.21-.92-.08A93.45,93.45,0,0,1,7.84,24.66Z"/><path class="cls-3" d="M11.22,22a2.29,2.29,0,0,1,2-.12,5.21,5.21,0,0,1,2,.79c.33.38,1,.67,1,.54a11.17,11.17,0,0,0-.17-1.92,2.62,2.62,0,0,0-.33-.75S18,14,23.09,11A20.08,20.08,0,0,1,39,9.16c5.08,1.5,8.71,9,9.21,10.67s.38,4.54.58,4.67a5.63,5.63,0,0,0,1.33.13A18.67,18.67,0,0,1,50.42,22c.13,0,2.25.25,2.42,1.67s-.08,9.21-.08,9.21l-1.62-1s-.25,1.08,0,1.21,1.25.58,1.29.75,0,1.25,0,1.25a11.35,11.35,0,0,0-2.08-1.21c-.12.13-.42.63-.21.83s2.25,1.83,2.29,2.21a4.35,4.35,0,0,1,0,.92,18.73,18.73,0,0,0-2.5-2c-.29,0-.42.46-.33.67s1.58,1.54,1.42,1.67a15.14,15.14,0,0,1-2.29.13s-.37-11.75-.58-11.87a7.63,7.63,0,0,0-2,.13,2.05,2.05,0,0,1-.58,0s-3.08-3-3.37-2.83a.67.67,0,0,0-.37.71c.08.17,2.67,2.42,2.67,2.42l-1,.08a27.68,27.68,0,0,0-2.29-1.87.55.55,0,0,0-.42.38c0,.13,1.88,1.5,1.58,1.5a7.21,7.21,0,0,1-4.92-1.67c-2.54-1.92-3-2.17-3.25-2.87s-.54-1-.92-1.12a1.3,1.3,0,0,0-1.46,1c-.33.88-2.37,2.83-6,4.5a22.23,22.23,0,0,1-7.71,1.83,5.87,5.87,0,0,1-1.37-.17s.17-2-.08-2.12-.75.08-.75.21.46,11.71.13,12.42-2.5.79-3.46.83A1.62,1.62,0,0,1,11,38.91C10.92,38.7,10.38,22.74,11.22,22Z"/><path class="cls-2" d="M12.76,23.82c.14-.1.54.08.54.38s.13,5.75-.17,5.92-.58.13-.62,0S12.51,24,12.76,23.82Z"/><path class="cls-2" d="M12.59,32.24c.13,0,.46-.17.46,0s0,5.54,0,5.67-.33.21-.42,0S12.59,32.24,12.59,32.24Z"/><path class="cls-2" d="M14.13,29.7c0-.12.58-.25.63,0s.13,7.75,0,7.75-.42,0-.5-.17S14.09,29.91,14.13,29.7Z"/><path class="cls-2" d="M18.92,18.74c-.13-.18.5-1.67,1.83-3.29s2.08-2.62,2.54-2.54.75.13.58.29S21.59,15.87,21,16.7s-.83,2.13-1,2.25A1.4,1.4,0,0,1,18.92,18.74Z"/><path class="cls-2" d="M43.51,22.28a16.85,16.85,0,0,1,3.29,3c0,.21-.33.63-.46.54s-3.12-2.58-3.25-2.75S43.26,22.37,43.51,22.28Z"/><path class="cls-2" d="M44,21.28s.13-.54.46-.5a16.17,16.17,0,0,1,3.21,3.08,1.61,1.61,0,0,1-.12.42S44.3,21.53,44,21.28Z"/><path class="cls-2" d="M44.8,19.7c-.11-.07.33-.71.54-.67a14,14,0,0,1,2.58,2.63c0,.25-.12.63-.25.58S45,19.82,44.8,19.7Z"/><path class="cls-2" d="M45.38,17.82s.13-.54.29-.54.75.38.79.75,0,.71-.12.67S45.55,17.87,45.38,17.82Z"/><path class="cls-2" d="M50.84,26c.11-.06.33-.08.38.17a14.44,14.44,0,0,1,0,3.54c-.25.33-.5.29-.58,0A18.1,18.1,0,0,1,50.84,26Z"/><path class="cls-3" d="M55,24.95c.15-.21,1,.33,1,.33s.21,9.5,0,9.75-1.62,1.13-1.62.79S54.8,25.24,55,24.95Z"/><path class="cls-4" d="M18.26,30.28c0-.26,5.54-.33,7.75-1.54s6.75-4.29,6.75-4.29a63.92,63.92,0,0,0,5.33,3.71A16.71,16.71,0,0,0,43.3,29c.71,0,3-.17,3-.17s.38,13.17-.21,14.21-9.71,12-10.37,12.38-5.42.21-5.79,0-8.92-8-10-9.46a8.25,8.25,0,0,1-1.54-2.58C18.34,43.2,18.22,30.7,18.26,30.28Z"/><path class="cls-2" d="M25.42,31.57a2.41,2.41,0,0,1,3,2,2.47,2.47,0,0,1-3.67,2.33A2.37,2.37,0,0,1,25.42,31.57Z"/><path class="cls-5" d="M25.69,32.66a1.27,1.27,0,0,1,1.56,1.06A1.31,1.31,0,0,1,25.31,35,1.25,1.25,0,0,1,25.69,32.66Z"/><path class="cls-2" d="M38.22,31.7a2.41,2.41,0,0,1,3,2A2.47,2.47,0,0,1,37.51,36,2.37,2.37,0,0,1,38.22,31.7Z"/><path class="cls-5" d="M38.48,32.79A1.27,1.27,0,0,1,40,33.84a1.31,1.31,0,0,1-1.94,1.23A1.25,1.25,0,0,1,38.48,32.79Z"/><path class="cls-2" d="M26.8,44c.43-.1,2.28,2,6.56,1.45a18.35,18.35,0,0,0,4.93-1.12.94.94,0,0,1,.81.82c0,.19-2.76,1.59-7,1.53-4.48-.06-5.83-1.63-6-1.87S26.37,44.14,26.8,44Z"/></g></svg>