<svg id="Layer_1" data-name="Layer 1" xmlns="http://www.w3.org/2000/svg" width="64" height="64" viewBox="0 0 64 64"><defs><style>.cls-1{fill:#fff;}.cls-2{fill:#1d1d1b;}.cls-3{fill:#e7413e;}.cls-4{fill:#a42116;}.cls-5{fill:#f2910d;}.cls-6{fill:#ddc07c;}</style></defs><title>rocket</title><g id="rocket"><path class="cls-1" d="M31.46,61.15A7.57,7.57,0,0,1,30,61a2,2,0,0,1-1.84-1.94c0-.34-.44-2.93-.89-5.58-1.06-.18-1.91-.54-2.12-1.59,0-.1-.11-.6-.19-1.11a2.49,2.49,0,0,1-1.18-.64,10.62,10.62,0,0,1-.9-1.15A7.44,7.44,0,0,0,22,51.66a10.58,10.58,0,0,0,1,4.41c.39,1,.67,1.68.21,2.49a2.3,2.3,0,0,1-2.12,1c-1.11,0-4-.48-6.75-4.87-3-4.81-3.89-9.75-2.48-14.29a8.61,8.61,0,0,1,6.59-6.24,39.32,39.32,0,0,1,1.57-11.61A51.43,51.43,0,0,1,28.17,6.93c2-2.86,3.76-4.08,5.74-4.08a4.94,4.94,0,0,1,.73.05c2.79.41,7.17,7.84,9.36,14.26,1.09,3.18,2.35,8.83,2.22,17.66v.27c1.94.33,5,1.59,6,6.19,1.15,5.51.5,10.93-1.78,14.87a7.42,7.42,0,0,1-5.9,4,2.22,2.22,0,0,1-2-1c-.42-.66-.34-1.32-.18-2.66.19-1.58.5-4.21-.18-6l-.19-.49A2.05,2.05,0,0,1,41,51a2.76,2.76,0,0,1-.86.29c-.06,1.14-.37,2-1.51,2.26a15.33,15.33,0,0,1-2.35.07c-.69,5.9-1.21,6.34-1.67,6.73A5.06,5.06,0,0,1,31.46,61.15Z"/><path class="cls-2" d="M20.3,35.76A36.05,36.05,0,0,1,21.72,23,50.13,50.13,0,0,1,29.55,7.92C31.64,5,33,4.38,34.39,4.59s5.54,5.92,8,13.13,2.13,16.42,2.13,17.42,0,1.58,0,1.58,4.88-.67,6,4.92.25,10.5-1.58,13.67-4.71,3.46-5,3,1-5.17-.21-8.33-2.12-3.42-2.12-3.42a14.25,14.25,0,0,1-1.37,3,6.63,6.63,0,0,1-1.75.25s.08,2.08-.12,2.13-3.54,0-3.54,0-.71,6.67-1.25,7.13-3.67.5-3.67,0S28.76,52,28.76,52s-1.87-.17-1.92-.37-.37-2.21-.37-2.21A4.4,4.4,0,0,1,25,49c-.25-.25-2.17-3-2.17-3a11.92,11.92,0,0,0-2.5,5.5c-.25,2.79,1.63,5.92,1.46,6.21s-3,.71-6-3.92-3.5-9-2.29-12.87S17.89,35.59,20.3,35.76Z"/><path class="cls-3" d="M28.22,13.13c.17-.21,4.54-7.08,5.75-7s4.75,6.63,4.5,6.75a17,17,0,0,0-5.29-.5A23.06,23.06,0,0,0,28.22,13.13Z"/><path class="cls-4" d="M26.84,14.8a16.69,16.69,0,0,1,6.71-1.29c3.75.08,5.42.83,5.63,1.08a36.5,36.5,0,0,1,3,8.92,28,28,0,0,1,.42,4.83S41.47,26.88,41.22,27s-.37.67-.37.67a16.59,16.59,0,0,1,1.75,1.71c0,.21.13,2,.13,2s-2.12-2.71-2.37-2.58-.54.46-.42.63,2.71,2.92,2.83,3.21a9.36,9.36,0,0,1,0,1.83S39.51,31,39.34,31s-.62.42-.29.63a46.27,46.27,0,0,1,3.67,4.08c0,.21-.12,2.25-.12,2.25s-3.5-4.12-3.67-4.08-.42.42-.33.58,3.88,4.13,3.88,4.5a16.81,16.81,0,0,1-.42,2s-3.71-4.75-3.83-4.71-.54.33-.46.5,4.08,5,4,5.38a5,5,0,0,1-.54,1.63c-.17.08-3.62-4.54-3.79-4.54s-.42.46-.42.46a61,61,0,0,1,3.63,5.08c-.08.25-.46,1-.46,1S37.14,41.92,37,41.88s-.58.5-.42.67a41.34,41.34,0,0,1,3.33,4c-.08.21-.5,1.46-.5,1.46h-.62a20.66,20.66,0,0,0-2-2.58c-.25,0-.54.42-.54.58s1.71,2,1.54,2.08-2.46.08-2.46.08.5-8.62.08-9.29A2.24,2.24,0,0,0,33,37.67a18.47,18.47,0,0,0-4.79,1.54c-1,.54-.75,2.46-.62,3.21A52.39,52.39,0,0,1,28.34,48a9.47,9.47,0,0,1-2.17,0C26,47.88,22.51,44.09,22,37.13a40.37,40.37,0,0,1,2.71-17.21C26.14,16.3,26.84,14.8,26.84,14.8Z"/><path class="cls-3" d="M29.43,40.42c.12-.62,4.21-1.29,4.38-.79s-1.21,17.83-1.46,18-.83.46-1,.13S29.22,41.46,29.43,40.42Z"/><path class="cls-5" d="M27.55,49.59c.21,0,.79-.21.88,0s.21,1.33.08,1.29-.87.17-1-.08A6.13,6.13,0,0,1,27.55,49.59Z"/><path class="cls-5" d="M35.22,49.55a9.14,9.14,0,0,1,2.21.13c0,.17,0,1.33-.12,1.33A13.87,13.87,0,0,1,35,50.92C35,50.8,35.22,49.55,35.22,49.55Z"/><path class="cls-3" d="M44.55,38.26a10.25,10.25,0,0,1,3.08,1.29c1,.71,1.54,5.13,1.54,5.13S46.55,43,46.43,43s-.37.79-.12.92a23.8,23.8,0,0,1,2.88,1.71,21.93,21.93,0,0,1,0,2.29,13.53,13.53,0,0,0-2.5-1.46c-.12.17-.12.75.13.88A9.77,9.77,0,0,1,49.05,49a10.32,10.32,0,0,1-.12,1.92l-.08.38s-1.75-1.25-2-1.17-.5.42-.25.67,2,1.38,1.88,1.63a7.48,7.48,0,0,1-1.42,2.46,6.7,6.7,0,0,1-1.54,1.08s.88-5.67-.62-8.17-2.37-2.67-2.37-2.67a36.06,36.06,0,0,0,1.25-3.92C44.34,38.92,44.55,38.26,44.55,38.26Z"/><path class="cls-3" d="M20.14,37.3A21.9,21.9,0,0,0,21,42c.71,2.29,1,3,1,3s-1.54.58-2.67,3.88a9.31,9.31,0,0,0-.29,5.67s-2.5-1.46-3.83-7.17S16.09,37.88,20.14,37.3Z"/><path class="cls-2" d="M18.43,40.3l.38.83a3.05,3.05,0,0,0-1.25.92c-.46.63-.21,1.58-.42,1.67s-.75.13-.83,0a5,5,0,0,1,.38-2.21A2.19,2.19,0,0,1,18.43,40.3Z"/><path class="cls-2" d="M32.05,17.71c2.27-.81,6,.5,6.33,5.38s-5.25,8.25-8.46,5.29S26.8,19.59,32.05,17.71Z"/><path class="cls-6" d="M33.05,19a3.14,3.14,0,0,1,3.21,2.5,14.84,14.84,0,0,1,.29,3.13,23.92,23.92,0,0,0-2-3.33c-.25,0-.79.33-.67.5a29.87,29.87,0,0,1,2.21,3.88,3,3,0,0,1-3.71,1.75c-2.58-.75-3.62-4.08-3-5.87A3.8,3.8,0,0,1,33.05,19Z"/><path class="cls-2" d="M31.39,20.67a.44.44,0,0,1,.58.42c0,.25-.92.92-.92,1.5s.21.75-.12.88-1.12,0-1.12-.21a3.7,3.7,0,0,1,.38-1.79A2,2,0,0,1,31.39,20.67Z"/><path class="cls-2" d="M32.51,22.67c0-.19.58-.54.83-.25S35,25,34.76,25.26s-.42.54-.67.38A12.6,12.6,0,0,1,32.51,22.67Z"/><path class="cls-2" d="M32.05,24c.24-.1,1.13,1.75,1,1.88s-.58.33-.79.17a4.54,4.54,0,0,1-.92-1.42A1.75,1.75,0,0,1,32.05,24Z"/><path class="cls-2" d="M32.31,15a.49.49,0,0,1,.48.72.57.57,0,0,1-.94,0A.54.54,0,0,1,32.31,15Z"/><path class="cls-2" d="M35.12,15.05a.49.49,0,0,1,.48.72.57.57,0,0,1-.94,0A.54.54,0,0,1,35.12,15.05Z"/><path class="cls-2" d="M37.53,16.74a.49.49,0,0,1,.48.72.57.57,0,0,1-.94,0A.54.54,0,0,1,37.53,16.74Z"/><path class="cls-2" d="M39.1,19.49a.49.49,0,0,1,.48.72.57.57,0,0,1-.94,0A.54.54,0,0,1,39.1,19.49Z"/><path class="cls-2" d="M39.64,22.55a.49.49,0,0,1,.48.72.57.57,0,0,1-.94,0A.54.54,0,0,1,39.64,22.55Z"/><path class="cls-2" d="M39.56,25.41a.49.49,0,0,1,.48.72.57.57,0,0,1-.94,0A.54.54,0,0,1,39.56,25.41Z"/><path class="cls-2" d="M37.89,28.7a.49.49,0,0,1,.48.72.57.57,0,0,1-.94,0A.54.54,0,0,1,37.89,28.7Z"/><path class="cls-2" d="M34.83,30.09a.49.49,0,0,1,.48.72.57.57,0,0,1-.94,0A.54.54,0,0,1,34.83,30.09Z"/><path class="cls-2" d="M30.76,30.28a.49.49,0,0,1,.48.72.57.57,0,0,1-.94,0A.54.54,0,0,1,30.76,30.28Z"/><path class="cls-2" d="M27.66,28.09a.49.49,0,0,1,.48.72.57.57,0,0,1-.94,0A.54.54,0,0,1,27.66,28.09Z"/><path class="cls-2" d="M26,24.84a.49.49,0,0,1,.48.72.57.57,0,0,1-.94,0A.54.54,0,0,1,26,24.84Z"/><path class="cls-2" d="M26.18,20.82a.49.49,0,0,1,.48.72.57.57,0,0,1-.94,0A.54.54,0,0,1,26.18,20.82Z"/><path class="cls-2" d="M27.93,17.68a.49.49,0,0,1,.48.72.57.57,0,0,1-.94,0A.54.54,0,0,1,27.93,17.68Z"/><path class="cls-2" d="M30.14,15.95a.49.49,0,0,1,.48.72.57.57,0,0,1-.94,0A.54.54,0,0,1,30.14,15.95Z"/></g></svg>