<svg id="Layer_1" data-name="Layer 1" xmlns="http://www.w3.org/2000/svg" width="64" height="64" viewBox="0 0 64 64"><defs><style>.cls-1{fill:#fff;}.cls-2{fill:#1d1d1b;}.cls-3{fill:#a42116;}.cls-4{fill:#1f4863;}.cls-5{fill:#e6e4da;}.cls-6{fill:#e7413e;}.cls-7{fill:#ffe19b;}.cls-8{fill:#cbe7f5;}.cls-9{fill:#85bfe9;}.cls-10{fill:#f2910d;}.cls-11{fill:#ddc07c;}</style></defs><title>space-cockpit</title><g id="space-cockpit"><path class="cls-1" d="M11.26,54.26A3.92,3.92,0,0,1,8,53,30.75,30.75,0,0,1,2.41,36.5C2.19,28.12,5,18.38,6.28,16.06c1-1.92,3.65-5.12,5.65-5.87a8.68,8.68,0,0,1,3-.45,48.76,48.76,0,0,1,6.43.66c1.91.28,3.88.56,5.89.73,3.15.26,5.45.38,7.46.38a49.65,49.65,0,0,0,5.67-.33c1.1-.12,2.22-.36,3.4-.61a26.94,26.94,0,0,1,5.53-.77,10.74,10.74,0,0,1,4.3.83c6.11,2.61,7.59,18.21,7.65,18.87.64,7,.28,12.67-1.08,16.77C60,47.07,57.59,54,55.06,54a6.85,6.85,0,0,1-1.87-.44c-3.74-1-15.14-4.19-20.17-4.19-2.6,0-7.73.75-17.81,4.13l-.5.17A12.37,12.37,0,0,1,11.26,54.26Z"/><path class="cls-2" d="M12.52,11.79c2.75-1,8.54.54,14.63,1a62.83,62.83,0,0,0,13.46,0C44.73,12.41,49,10.49,53,12.2s6.13,12,6.63,17.46.5,11.54-1,16.08-3.25,6.58-3.54,6.58S39.27,47.66,32.94,47.7s-17.58,4-18.75,4.38-4,.92-4.83-.12a29.2,29.2,0,0,1-5.25-15.5C3.9,28.37,6.69,18.87,7.77,16.87S11.19,12.29,12.52,11.79Z"/><path class="cls-3" d="M11.94,14.16S22.19,32.87,22,33.33a48,48,0,0,1-5,5.29c-.08-.21,2.79-5.54,2.79-5.79a64.88,64.88,0,0,0-5.5-10.08c-2.79-4.08-4-5.37-4-5.75S11.61,14.08,11.94,14.16Z"/><path class="cls-4" d="M9.56,18.87c.15-.12,6.25,9.92,6.25,9.92a6.28,6.28,0,0,0-.54,3.92,10.24,10.24,0,0,0,1.17,3.38S11.36,43.74,10.56,45,9,47.33,8.86,47.16a27.55,27.55,0,0,1-3-13C6.27,27.66,8.52,19.7,9.56,18.87Z"/><path class="cls-5" d="M16.48,29.87a12,12,0,0,1,1.46,2.42c-.08.29-1.08,2.38-1.08,2.38a4.61,4.61,0,0,1-.75-2.21A7.42,7.42,0,0,1,16.48,29.87Z"/><path class="cls-4" d="M13.27,13.41s.46-.92,3-.79,8.58,2,16.42,1.88a133.56,133.56,0,0,0,15-1,21.61,21.61,0,0,1,2.83-.12s-4.33,8.79-5.83,11.88a49.38,49.38,0,0,0-2.87,6.42c-.08.67-.12,1.67-.12,1.67A27.12,27.12,0,0,0,37,32.91c-2.37,0-4.08,0-4.08,0S36.15,27,31.73,22.49,22,20.41,20.65,21.16a5.75,5.75,0,0,0-2,2.13S13.31,13.62,13.27,13.41Z"/><path class="cls-5" d="M19.31,24.16A7.42,7.42,0,0,1,24.86,21c3.63-.17,6.63,1.5,7.63,4.92a12.54,12.54,0,0,1-.37,7s-4.58.21-5.13.25l-1,.08A26.48,26.48,0,0,0,24.11,30c-.25-.08-.79.08-.62.38s1.71,2.88,1.46,2.92a11.77,11.77,0,0,1-1.33,0,7.26,7.26,0,0,0-1-3.37C21.56,28.37,19.31,24.16,19.31,24.16Z"/><path class="cls-3" d="M47,39.62c-.12-.21-3.54-5.17-3.71-6s3.92-10.5,5.46-13.29S52,13.91,52.31,14a7.42,7.42,0,0,1,1.75,2.12c0,.13-7.83,13.63-8.42,15.42a7.43,7.43,0,0,0,.25,4.83C46.36,37.49,47,39.62,47,39.62Z"/><path class="cls-4" d="M47.27,32.29c.67-1.75,7.67-14.83,7.88-14.54A32.64,32.64,0,0,1,57.9,33.87,75.37,75.37,0,0,1,55.77,47.7S51.56,42.79,49.65,40,46.44,34.45,47.27,32.29Z"/><path class="cls-6" d="M23.23,34.79c.17,0,4.46-.46,9.83-.46s8.54.67,8.83.83S52.73,49.45,52.44,49.7s-10.92-3.58-18.37-3.62S15.94,49.7,15.06,50s-3.25,1-3.58.83-1.17-1-1-1.29,4-5.58,6.63-8.58A79.21,79.21,0,0,1,23.23,34.79Z"/><path class="cls-2" d="M10.4,24.49c.86-.41,1.79.46,1.92,1.21S11,27.74,10.19,27A1.58,1.58,0,0,1,10.4,24.49Z"/><path class="cls-2" d="M11.4,30.24c.41-.51,1.79,0,2.08.83A1.33,1.33,0,0,1,11.9,32.7C10.77,32.54,10.73,31.08,11.4,30.24Z"/><path class="cls-2" d="M9.19,37c.6-.5,2.08.13,2.13,1.17a1.61,1.61,0,0,1-2,1.42A1.49,1.49,0,0,1,9.19,37Z"/><path class="cls-2" d="M8.52,31.66c.43-.2,1.42.5,1.21,1.17a.89.89,0,0,1-1.42.42C7.94,32.87,7.61,32.08,8.52,31.66Z"/><path class="cls-2" d="M20.19,16.24c.29-.13,1.25.29,1,1s-1.21.46-1.54.08S19.81,16.41,20.19,16.24Z"/><path class="cls-2" d="M30.77,18.54c.29-.13,1.25.29,1,1s-1.21.46-1.54.08S30.4,18.7,30.77,18.54Z"/><path class="cls-2" d="M43.23,15.7c.29-.13,1.25.29,1,1s-1.21.46-1.54.08S42.86,15.87,43.23,15.7Z"/><path class="cls-2" d="M44.81,19.08c.29-.13,1.25.29,1,1s-1.21.46-1.54.08S44.44,19.24,44.81,19.08Z"/><path class="cls-2" d="M37.27,27.12c.29-.13,1.25.29,1,1s-1.21.46-1.54.08S36.9,27.29,37.27,27.12Z"/><path class="cls-2" d="M40.86,26.74c.29-.13,1.25.29,1,1s-1.21.46-1.54.08S40.48,26.91,40.86,26.74Z"/><path class="cls-2" d="M54.23,29.87c.29-.13,1.25.29,1,1s-1.21.46-1.54.08S53.86,30,54.23,29.87Z"/><path class="cls-2" d="M51.27,28.37c.29-.13,1.25.29,1,1s-1.21.46-1.54.08S50.9,28.54,51.27,28.37Z"/><path class="cls-2" d="M50.27,33c.29-.13,1.25.29,1,1s-1.21.46-1.54.08S49.9,33.12,50.27,33Z"/><path class="cls-2" d="M38.4,30.29c.29-.13,1.25.29,1,1s-1.21.46-1.54.08S38,30.45,38.4,30.29Z"/><path class="cls-2" d="M24.9,16.33c.67-.1,1.5.21,1.42,1.13s-1.29,1-1.87.71A1,1,0,0,1,24.9,16.33Z"/><path class="cls-2" d="M28.81,15.32c.79-.12,1.77.25,1.67,1.32s-1.52,1.23-2.21.83A1.21,1.21,0,0,1,28.81,15.32Z"/><path class="cls-7" d="M29,16c.3,0,.67.09.64.5s-.58.47-.84.32A.46.46,0,0,1,29,16Z"/><path class="cls-2" d="M53.72,24.61c.79-.12,1.77.25,1.67,1.32s-1.52,1.23-2.21.83A1.21,1.21,0,0,1,53.72,24.61Z"/><path class="cls-8" d="M53.93,25.33c.3,0,.67.09.64.5s-.58.47-.84.32A.46.46,0,0,1,53.93,25.33Z"/><path class="cls-2" d="M53.39,37.61c.79-.12,1.77.25,1.67,1.32s-1.52,1.23-2.21.83A1.21,1.21,0,0,1,53.39,37.61Z"/><path class="cls-7" d="M53.59,38.33c.3,0,.67.09.64.5s-.58.47-.84.32A.46.46,0,0,1,53.59,38.33Z"/><path class="cls-2" d="M24.77,29.41c-.07-.13.63-.42.75-.25a15.74,15.74,0,0,1,1.42,3.08c-.12.21-.54.46-.71.25S24.81,29.49,24.77,29.41Z"/><path class="cls-2" d="M26.86,29.79s.71-.33.75-.21,1,2.58.83,2.71-.67.25-.75.13S26.86,29.79,26.86,29.79Z"/><path class="cls-2" d="M29.94,27.79a1.75,1.75,0,0,1,2,2.46c-.67,1.58-2.62,1.75-3.21.46S28.36,28,29.94,27.79Z"/><path class="cls-1" d="M30,28.38a1.26,1.26,0,1,1-.85,2C28.78,29.49,29,28.52,30,28.38Z"/><path class="cls-2" d="M25.46,23.73a1.75,1.75,0,0,1,3-.95c1.24,1.19.69,3.08-.72,3.16S25.09,25.28,25.46,23.73Z"/><path class="cls-1" d="M26,23.85a1.19,1.19,0,0,1,2-.65c.85.81.47,2.1-.49,2.16S25.79,24.91,26,23.85Z"/><path class="cls-2" d="M40.36,21.91a3.15,3.15,0,0,0-.21-2.25,2,2,0,0,0-1.71-1.12s-2.25-2-3.42-.92-.21,3.17-.21,3.17a3.21,3.21,0,0,0,.63,2.75,2.08,2.08,0,0,0,2.13.75S39.9,26,41.11,25,40.36,21.91,40.36,21.91ZM36.23,19a2.23,2.23,0,0,0-.79.92s-.58-1.42.33-1.79a1.15,1.15,0,0,1,1.42.38A7,7,0,0,0,36.23,19Zm4.33,5.08c-.42.38-1.71-.37-1.71-.37a2.5,2.5,0,0,0,.83-.42,1.58,1.58,0,0,0,.54-.54S41,23.74,40.56,24.12Z"/><path class="cls-8" d="M35.9,20.7s1.71-2.29,3.29-1.17-.29,3.08-.58,3.25A3,3,0,0,1,38,23S36.77,23.08,35.9,20.7Z"/><path class="cls-2" d="M53.06,42.79a19.6,19.6,0,0,0,2.13,2l.29-.46s-1.83-2.12-2-2A3.66,3.66,0,0,0,53.06,42.79Z"/><path class="cls-2" d="M53.9,41.91s.21-.67.42-.62,1.83,1.46,1.79,1.71-.21.58-.33.5S53.9,41.91,53.9,41.91Z"/><path class="cls-2" d="M55.27,41s.25-.5.38-.5.79.5.83.75a1.7,1.7,0,0,1-.25.75Z"/><path class="cls-2" d="M31.15,35.2c3-1.16,7.54.5,7.54,5.75s-8.29,6.42-10.37,3.5S26.4,37,31.15,35.2Z"/><path class="cls-9" d="M31.46,36.14c2.46-1,6.19.41,6.19,4.72s-6.81,5.27-8.52,2.87S27.55,37.64,31.46,36.14Z"/><path class="cls-2" d="M28.9,40.45a2.41,2.41,0,0,1,.54-1.75c.71-1,1.54-1.42,1.88-1.25a.64.64,0,0,1,.33.54,2.73,2.73,0,0,0-1.71,1.13,3.3,3.3,0,0,0-.54,1.5A2.25,2.25,0,0,1,28.9,40.45Z"/><path class="cls-2" d="M30.9,39c.18-.11.83.17.79.29a1.92,1.92,0,0,0-1,1.42c-.21,1.17,0,1.63.42,1.92s.58.25.46.42-.42.46-.67.38a2.62,2.62,0,0,1-1.17-2.08A4.41,4.41,0,0,1,30.9,39Z"/><path class="cls-2" d="M35.19,39.7s0-.42.29-.37a2.11,2.11,0,0,1,1,2.71,2.86,2.86,0,0,1-2.67,2,5.86,5.86,0,0,1-1-.08s-.08-.54.08-.54,2.38,0,2.83-1.37A2.3,2.3,0,0,0,35.19,39.7Z"/><path class="cls-2" d="M32.94,40s.58-2.83.92-2.87.75,0,.71.25-.83,2.83-.83,2.83a1,1,0,0,1,.13,1.42,1.12,1.12,0,0,1-2-.25C31.73,40.7,32.4,39.87,32.94,40Z"/><path class="cls-2" d="M21.9,37.87c1-.4,2.21-.29,2.46,1a2,2,0,0,1-2.79,2A1.68,1.68,0,0,1,21.9,37.87Z"/><path class="cls-10" d="M22.18,38.48c.59-.23,1.3-.17,1.45.59A1.16,1.16,0,0,1,22,40.23,1,1,0,0,1,22.18,38.48Z"/><path class="cls-2" d="M41.93,38.19c.59-.23,1.3-.17,1.45.59a1.16,1.16,0,0,1-1.65,1.16A1,1,0,0,1,41.93,38.19Z"/><path class="cls-2" d="M39.72,36.15c.59-.23,1.3-.17,1.45.59a1.16,1.16,0,0,1-1.65,1.16A1,1,0,0,1,39.72,36.15Z"/><path class="cls-2" d="M17.54,42.56c.72-.29,1.61-.21,1.79.73a1.44,1.44,0,0,1-2,1.43A1.23,1.23,0,0,1,17.54,42.56Z"/><path class="cls-11" d="M17.82,43.15c.33-.13.74-.1.82.33a.66.66,0,0,1-.93.65A.56.56,0,0,1,17.82,43.15Z"/><path class="cls-2" d="M21,42c.72-.29,1.61-.21,1.79.73a1.44,1.44,0,0,1-2,1.43A1.23,1.23,0,0,1,21,42Z"/><path class="cls-7" d="M21.32,42.57c.33-.13.74-.1.82.33a.66.66,0,0,1-.93.65A.56.56,0,0,1,21.32,42.57Z"/><path class="cls-2" d="M15,46.15c.72-.29,1.61-.21,1.79.73a1.44,1.44,0,0,1-2,1.43A1.23,1.23,0,0,1,15,46.15Z"/><path class="cls-7" d="M15.24,46.74c.33-.13.74-.1.82.33a.66.66,0,0,1-.93.65A.56.56,0,0,1,15.24,46.74Z"/><path class="cls-2" d="M19.13,45.19c.72-.29,1.61-.21,1.79.73a1.44,1.44,0,0,1-2,1.43A1.23,1.23,0,0,1,19.13,45.19Z"/><path class="cls-10" d="M19.4,45.78c.33-.13.74-.1.82.33a.66.66,0,0,1-.93.65A.56.56,0,0,1,19.4,45.78Z"/><path class="cls-2" d="M23.75,44c.72-.29,1.61-.21,1.79.73a1.44,1.44,0,0,1-2,1.43A1.23,1.23,0,0,1,23.75,44Z"/><path class="cls-11" d="M24,44.57c.33-.13.74-.1.82.33a.66.66,0,0,1-.93.65A.56.56,0,0,1,24,44.57Z"/><path class="cls-2" d="M42.36,45.12c.12,0,0-1.12,0-1.12s-1.75.08-1.75-.25-.33-2.46,0-2.46,6,.5,6,.83-.17,2.25-.42,2.29-2.33-.25-2.33-.12-.12.83-.12.83,1,.21,1,.71-1,1-2.33.63S41.19,45.24,42.36,45.12Z"/><path class="cls-10" d="M41.44,43.16c-.2-.07-.21-.92,0-1s4.25.29,4.33.58-.25.92-.25.92S41.56,43.2,41.44,43.16Z"/></g></svg>