<svg id="Layer_1" data-name="Layer 1" xmlns="http://www.w3.org/2000/svg" width="64" height="64" viewBox="0 0 64 64"><defs><style>.cls-1{fill:#fff;}.cls-2{fill:#1d1d1b;}.cls-3{fill:#e6e4da;}.cls-4{fill:#696a9b;}.cls-5{fill:#cbe7f5;}.cls-6{fill:#ffe19b;}.cls-7{fill:#85bfe9;}.cls-8{fill:#fab900;}</style></defs><title>space-shuttle-launch</title><g id="space-shuttle-launch"><path class="cls-1" d="M18.15,62.67a7.65,7.65,0,0,1-1-.07,9,9,0,0,1-3.18-1.16h0a8.1,8.1,0,0,1-2.63.56,10.85,10.85,0,0,1-2.07-.23,11.62,11.62,0,0,1-1.3.07,5.92,5.92,0,0,1-4.49-1.55,7.15,7.15,0,0,1-1.8-4.08C1,55.22-.29,53,.26,51a21.62,21.62,0,0,1,1-2.72c.11-1.24.55-4.7,2.26-6.31a10.52,10.52,0,0,1,.88-.74,5.34,5.34,0,0,1-.73-1.37,1.82,1.82,0,0,1,.27-1.63,1.56,1.56,0,0,1,.17-.2,10.45,10.45,0,0,1,6.21-2.56c.4,0,.77-.05,1.13-.05,2.3,0,4.37.71,5.27,1.74.14-3.56.8-4.11,1.21-4.44A7.07,7.07,0,0,1,20,31.67c0-1.05,0-2.19,0-3.36a3.78,3.78,0,0,1-.53,0h0a2.1,2.1,0,0,1-1.79-.79c-.65-.87-.92-9.79-.32-10.72a2.38,2.38,0,0,1,2.17-1,3.6,3.6,0,0,1,.73.07,22.9,22.9,0,0,1,.33-3.66c.66-2.1,5.32-7.66,5.37-7.71,1-1.13,2.74-3.24,5.58-3.24l.43,0c1.91.14,4.2,2.12,7.91,6.81l.29.37c.88,1,1.24,2.57,1.28,5.5,0,.79,0,2.59,0,4.75a2.77,2.77,0,0,1,1.14-.24,2.31,2.31,0,0,1,2.24,1.38c.14.34.25.63.14,6-.12,6-.12,6.07-1.17,6.59a2.39,2.39,0,0,1-.55.19,4.46,4.46,0,0,1,1.07,1.66,35.2,35.2,0,0,1,.17,5.47c.89.76,1.56,1.38,2.07,1.89a1.86,1.86,0,0,1-.07-.2,1.82,1.82,0,0,1,.27-1.63,1.56,1.56,0,0,1,.17-.2,10.44,10.44,0,0,1,6.21-2.56c.4,0,.77-.05,1.13-.05,2.78,0,5.22,1,5.68,2.42.19.58.15,1.2-.62,2.84a1.71,1.71,0,0,1-.49.62,6.47,6.47,0,0,1,1.51,1.61,8.55,8.55,0,0,1,1.26,3A7,7,0,0,1,63.52,55c-1.75,5.84-4.91,6.3-5.84,6.3a4.79,4.79,0,0,1-1.41-.2,6,6,0,0,1-3.64,1.29h-.11a15.67,15.67,0,0,1-3.18-.48,8.66,8.66,0,0,0-1.51-.26,8.9,8.9,0,0,0-1,.21,6.47,6.47,0,0,1-1.68.28,3.87,3.87,0,0,1-.76-.07c-.25,0-.56-.13-.9-.22a9.13,9.13,0,0,0-1.62-.33l-.45.15a9.17,9.17,0,0,1-2.71.56h-.14a13.35,13.35,0,0,1-2.75-.45,12.06,12.06,0,0,0-1.61-.31h-.26a3.19,3.19,0,0,1-.88-.12,3.26,3.26,0,0,1-.46.43,2.87,2.87,0,0,1-1.76.74,2.07,2.07,0,0,1-1.4-.55,2.75,2.75,0,0,1-1.32.34h-.26A6.46,6.46,0,0,1,26.6,62h0a5.48,5.48,0,0,1-2.23.55,3.85,3.85,0,0,1-1.22-.2,9.11,9.11,0,0,1-.92-.36l-.06,0A15.69,15.69,0,0,1,18.15,62.67Z"/><path class="cls-2" d="M60.06,48.5a5.79,5.79,0,0,0-1.08-3c-1.12-1.75-4.17-3.37-7.87-1.42s-2.12,6-2.12,6a14.73,14.73,0,0,0-2.33,1.17C45.06,52.21,45,53,45,53l-1.62-.21,0-2.25a15.82,15.82,0,0,0,3.29-.21c.33-.25.29-5.12,0-6s-3.75-3.75-3.75-3.75,0-5.33-.12-5.87S40.1,32,40,31.92,39.81,16.79,39.77,14s-.37-3.83-.87-4.42-4.83-6.42-7-6.58-3.67,1.54-4.58,2.63-4.58,5.67-5,7.13S21.69,33,21.69,33A7.78,7.78,0,0,0,19,34.08c-.92.75-.5,8.25-.5,8.25a16.47,16.47,0,0,0-2,2.5c-.54,1-.46,5.38-.17,5.58a15.59,15.59,0,0,0,2.88.29,10.37,10.37,0,0,0,.13,1.08A6,6,0,0,0,19.94,53l-1.08.17a2.56,2.56,0,0,0-1-1.54,3.64,3.64,0,0,0-2.21-.83,4.17,4.17,0,0,0-.58-1A8.8,8.8,0,0,0,13,48.33a13.14,13.14,0,0,0,2.21-2.21c.5-.83-.08-3.79-3.25-4.75a7.41,7.41,0,0,0-7.29,1.88c-1.5,1.42-1.75,5.5-1.75,5.5a18.67,18.67,0,0,0-1,2.75c-.46,1.63,1.42,4.13,1.42,4.13a5.63,5.63,0,0,0,1.38,3.5c1.38,1.46,4.63.92,4.63.92a9.46,9.46,0,0,0,2,.25,8.72,8.72,0,0,0,2.63-.67c.38-.12,1.58,1,3.42,1.29A13.19,13.19,0,0,0,22,60.29c.54-.12.5.08,1.63.46a3.92,3.92,0,0,0,2.63-.46c.46-.12.88.21,1.75.29s1.38-1,1.5-.92a6.68,6.68,0,0,1,1,1c.25.29.5.21,1-.21A3.87,3.87,0,0,0,32.48,59a2,2,0,0,0,1.58.75c.92-.08,3.38.79,4.58.75a10.5,10.5,0,0,0,2.83-.67c.75-.21,2.42.38,3.25.54s1.54-.21,2.71-.42,3,.67,5.13.71A4.65,4.65,0,0,0,56,59a2.61,2.61,0,0,0,1.71.54c1.13,0,3-1,4.21-5.08A5.23,5.23,0,0,0,60.06,48.5Zm-54-7.83c.21.08,2-1.46,4.21-1.79A8.18,8.18,0,0,1,14.94,40a5.82,5.82,0,0,0,.54-1.58c-.08-.25-1.71-1.5-5-1.21a8.9,8.9,0,0,0-5.17,2.08C5.14,39.46,5.89,40.58,6.1,40.67ZM49,42.29c.21.08,2-1.46,4.21-1.79a8.18,8.18,0,0,1,4.63,1.13A5.82,5.82,0,0,0,58.39,40c-.08-.25-1.71-1.5-5-1.21a8.9,8.9,0,0,0-5.17,2.08C48.06,41.08,48.81,42.21,49,42.29ZM20.1,26.54c.25-.12,0-8.67,0-8.83s-1.18-.19-1.33,0c-.29.46.13,8.63.25,8.79S19.85,26.67,20.1,26.54ZM43.1,31c.17-.08.38-10,.21-10.46s-1.09-.38-1.29-.08c-.08.13-.25,10.25-.12,10.5S42.94,31.08,43.1,31Z"/><path class="cls-3" d="M25.31,11.75c-.15-.15,4.13-7,6.08-6.92s6.5,7,6.08,7.17-1.75-1.37-6.21-.83S25.56,12,25.31,11.75Z"/><path class="cls-2" d="M27.85,9.67a8.86,8.86,0,0,1,2.25-2.5c.38,0,.79.29.67.54a18.34,18.34,0,0,1-2.08,2.46C28.56,10.13,27.85,9.88,27.85,9.67Z"/><path class="cls-4" d="M24.27,13.75c.23-.28,1.38-1.25,6-1.33s7.33,1,7.37,1.13.33,19.33.5,19.54S40.73,35,40.85,35.5a15.54,15.54,0,0,1,.08,3.33A14.27,14.27,0,0,1,38,36.13c-.58-1-1.46-6.54-1.5-9.83s-.12-9.17-4.79-9.46S26.31,21,26,25.21s-.71,11.33-.87,11.54-5,4.21-5,3.92,0-5.37.42-5.62,2.83-.54,2.88-.92S23.48,14.71,24.27,13.75Z"/><path class="cls-5" d="M31.23,18.42c1.21,0,3.71,1.33,3.67,5.92s.25,18.75.25,18.75a9.31,9.31,0,0,0-2-.87c-.12.13-.58.63-.37.75s2.29,1,2.38,1.29.21,1.38.08,1.38-2.37-1.71-2.5-1.54-.46.75-.25.88,2.63,1.46,2.71,1.92.13,1.17.13,1.17-3.12-2.5-3.33-2.25-.58.5-.37.67a37.45,37.45,0,0,1,3.71,2.79,1.43,1.43,0,0,1-.29.63,38.8,38.8,0,0,0-3.71-2.54c-.12.13-.58.42-.33.63s2.83,2.25,2.71,2.29-4,.13-5.25,0-1.87-.83-1.92-1.71.46-16.21.71-20.37S27.39,18.29,31.23,18.42Z"/><path class="cls-2" d="M29.35,20.13a2.36,2.36,0,0,1,3.79.25c1.08,1.67.79,6,.46,6.13s-4.5.42-4.92-.21S28.48,21,29.35,20.13Z"/><path class="cls-6" d="M31.19,20.29c.79-.05,1.46.71,1.54,2.67s0,2.58-.08,2.58-2.58.29-2.83,0S29.31,20.42,31.19,20.29Z"/><path class="cls-2" d="M35.06,13.46c.42-.05,2.17.58,2.13.83s0,.54-.12.54-2.29-.37-2.29-.62S34.73,13.5,35.06,13.46Z"/><path class="cls-2" d="M35.06,15c.42-.05,2.17.58,2.13.83s0,.54-.12.54-2.29-.37-2.29-.62S34.73,15,35.06,15Z"/><path class="cls-2" d="M35.81,16.79c.42-.05,1.38.38,1.33.63s0,.54-.12.54-1.5-.17-1.5-.42S35.48,16.83,35.81,16.79Z"/><path class="cls-5" d="M24.69,39.46l0,7.67s-.58-.92-2.75-.54-2.92,1.29-3,1.63.08,1.46-.08,1.46-.79-.12-.79-.12-.37-3,0-3.92S23.81,39.88,24.69,39.46Z"/><path class="cls-5" d="M37.19,38.71c.19-.17,5.33,4.25,6,4.71s1.46,1.25,1.5,1.71a24.36,24.36,0,0,1-.08,4c-.17,0-.79-.08-.79-.08s.08-1.71-.12-1.87a6.48,6.48,0,0,0-3.58-.67,1.94,1.94,0,0,0-1.79,1.63c0,.25.13,1.38,0,1.38s-1,.08-1,0S36.85,39,37.19,38.71Z"/><path class="cls-7" d="M19.94,49.5s-.17-1.08.08-1.29a4.65,4.65,0,0,1,2.38-.58c1.13,0,1.58.21,1.58.46s0,1.58-.12,1.67S20.35,49.5,19.94,49.5Z"/><path class="cls-7" d="M39.48,49.25s-.08-1.29.21-1.42a7.86,7.86,0,0,1,3,.25,4.41,4.41,0,0,1,0,1.33Z"/><path class="cls-4" d="M25.19,50.92c.17,0,1,.46,1.29.58s.71.25.71.25l-.08,1-1.87-.17Z"/><path class="cls-4" d="M35.6,51.79s.92,0,1.25-.46a2.2,2.2,0,0,0,.38-.79l.79.21,0,1.46-2.42,0Z"/><path class="cls-8" d="M39.31,50.25a10.36,10.36,0,0,1,3,.25,12,12,0,0,1,0,3,9.55,9.55,0,0,0-1.54,1.33c-.33.46-.12.63-.33.46a4.35,4.35,0,0,1-1.12-1.54A31.41,31.41,0,0,1,39.31,50.25Z"/><path class="cls-8" d="M20.77,50.71a11,11,0,0,1,2.13,0c.71,0,1.29.29,1.38.79a5.64,5.64,0,0,1-.54,2.71c-.37.46-.83,1.08-.87.92a15.65,15.65,0,0,0-1.67-1.62,1.8,1.8,0,0,1-.42-.5S20.27,51.21,20.77,50.71Z"/><path class="cls-2" d="M39.89,50.92l.5.08.13,2.42s-.67,0-.62-.17S39.89,50.92,39.89,50.92Z"/><path class="cls-2" d="M41,50.79l.5.08.13,2.42s-.67,0-.62-.17S41,50.79,41,50.79Z"/><path class="cls-2" d="M22.69,51.29l.5.08.13,2.42s-.67,0-.62-.17S22.69,51.29,22.69,51.29Z"/><path class="cls-2" d="M21.52,51.25c.21,0,.5-.08.54.13s.21,1.54,0,1.54a2.47,2.47,0,0,1-.62-.17Z"/><path class="cls-3" d="M25,53.58l2,.13a3.53,3.53,0,0,0,.79,3c1.21,1.71,1.75,2,1.71,2.29a1.1,1.1,0,0,1-.92.75c-.5.08-1.21-.79-2.29-.42a17.83,17.83,0,0,1-2.17.58,5.23,5.23,0,0,0-2.67-.62c-1.08.21-2.71,1-4.79.42s-2-1.17-3.21-.83a8,8,0,0,1-2.33.42c-.33,0-.58,0-.46-.08a3.86,3.86,0,0,0,.63-1.33c-.08-.12-.33-.54-.46-.33a3.15,3.15,0,0,1-1.37,1.25c-.62.17-2.79.25-3.87-1.12A3,3,0,0,1,5.31,54c.54-.5,1.5-1.08,1.54-1.21s-.62-.58-.62-.58-1.37-.08-1.42.13-.83,2.13-1,2A3.35,3.35,0,0,1,3,52a7.15,7.15,0,0,1,.63-2.12,2.8,2.8,0,0,0,1.46,1.46c1,.29,1.13.17,1.13.17s-2.33-2-1.83-4.25S6,42.88,8.27,42.58s5.5.54,5.42,2.38a4.1,4.1,0,0,1-2.58,3.25,11.16,11.16,0,0,0-2.33.38A2.28,2.28,0,0,0,7.6,49.88a5.49,5.49,0,0,0,1.17.38c.17,0-.12-.87,1.42-.87s3.46.63,3.67,1.79a3.4,3.4,0,0,1-.54,2.25s.83,1,1.33,1,.92-.71,1.17-1a5.36,5.36,0,0,0,.54-1.29s1.54.71,1.46,1.42-.5,1.21-.42,1.33,1,.54,1.29.29A2.34,2.34,0,0,1,21.27,55c1,.71,1,1.88,1.21,2s1.42-.54,2-1.79A7.94,7.94,0,0,0,25,53.58Z"/><path class="cls-6" d="M28.14,52h1.5a2.69,2.69,0,0,0,0,2.67c.79,1.38,1.54,1.63,1.63,2s2.33-1,2.42-2.37a3.3,3.3,0,0,0-.37-2l1,.13s1.17,2.67.08,4S31.23,58.67,30.94,59s-.54-1.12-1.67-2.42A4.47,4.47,0,0,1,28.14,52Z"/><path class="cls-8" d="M31.23,51.46a1.43,1.43,0,0,1,1.46,2,7.25,7.25,0,0,1-1.33,2.29,3.58,3.58,0,0,1-1.12-2.58A2.31,2.31,0,0,1,31.23,51.46Z"/><path class="cls-3" d="M35.85,53.46l1.92,0a4.93,4.93,0,0,0,1.29,2c1,1,.83,1.63,1.25,1.92s.83.33,1,0a4.14,4.14,0,0,1,.92-2.17A8.09,8.09,0,0,1,43.44,54l1.67.29s1,1.42,1.67,1.42a1.57,1.57,0,0,0,1.08-.62s-1.62-.75-1.17-1.87a5.18,5.18,0,0,1,5.21-2.42c2.58.38,4.5,2.92,4.54,4.54a3.7,3.7,0,0,1-3.08,3.88c-2.17.33-4.58-.83-6.12-.46s-.92.63-2.12.5-1.92-.67-3.12-.62-2.92,1-3.5.88a7.64,7.64,0,0,0-2.83-.67c-1.12.13-1.67.21-1.67.21s-.83-.33-.79-.46,2.33-1,2.5-2.67S35.85,53.46,35.85,53.46Z"/><path class="cls-3" d="M50.23,49.63a3.33,3.33,0,0,1,.25-3.83C51.89,44.29,55.27,44,57,45s2.58,5.46,2.38,6.58a3.14,3.14,0,0,1-1.12,1.79s.13.58.33.63,1-.58,1.33-1.25a10.92,10.92,0,0,0,.46-2.67,3.75,3.75,0,0,1,.75,4,9.61,9.61,0,0,1-2.79,4,4.67,4.67,0,0,1-1.46.29s2.08-3.17-.29-6A6.91,6.91,0,0,0,50.23,49.63Z"/></g></svg>