<svg id="Layer_1" data-name="Layer 1" xmlns="http://www.w3.org/2000/svg" width="64" height="64" viewBox="0 0 64 64"><defs><style>.cls-1{fill:#fff;}.cls-2{fill:#1d1d1b;}.cls-3{fill:#cbe7f5;}.cls-4{fill:#e7413e;}.cls-5{fill:#1f4863;}</style></defs><title>space-shuttle</title><g id="space-shuttle"><path class="cls-1" d="M31.53,62.7H30.1c-5-.08-7.13-.12-7.35-2.28a12.89,12.89,0,0,1,.11-2.06c-2.53-.48-2.92-1.5-3.07-1.87a6.08,6.08,0,0,1-.26-1.79,17.4,17.4,0,0,1-5.13.46c-1.25,0-2.46-.05-3.49-.15C7.15,54.64,5,53.45,5,51.74c0-.19,0-.8.09-1.46A3.41,3.41,0,0,1,3,47.33c-.16-1.78-.5-5.47,4.17-9.45a31.2,31.2,0,0,1,3.71-2.65,17.46,17.46,0,0,0,6.45-6.38C19.86,24.79,21,18.29,22.42,14c.66-2,1.18-3.6,1.6-4.51.18-.41.35-.85.53-1.3,1-2.63,2.54-6.6,8.28-6.86h.47c6.17,0,7.51,5.58,8.48,9.66l.2.81c.2.81.41,1.81.64,2.93,1,4.81,3.52,12.07,6.95,16.33A61,61,0,0,0,54,35.85c2.61,2.64,4.87,4.92,6.12,8.62,1.18,3.48,1.34,6,.47,7.49A2.41,2.41,0,0,1,59,53.18c-.26.05-1.22.14-2.85.25a2.25,2.25,0,0,1-.3,1.44c-.94,1.56-6.9,1.64-8.09,1.64h-.47A16.25,16.25,0,0,1,42.63,56a2.72,2.72,0,0,1-.33.73,4.8,4.8,0,0,1-2.56,1.71c.21,2-.11,2.51-.29,2.81C39,62,38.55,62.7,31.53,62.7Z"/><path class="cls-2" d="M6.9,48.93S4.82,49,4.65,47.18s-.33-4.67,3.58-8,6.67-3.33,10.5-9.42,5.58-16.83,6.83-19.58S27.4,3.26,32.9,3s6.33,4.75,7.42,9.17,3.42,14.33,7.92,19.92S56.74,39.84,58.49,45s.58,6.42.17,6.5-4.42.33-4.42.33A7.36,7.36,0,0,1,54.38,54c-.19.31-4.37.88-7.06.81s-4.37-.25-4.37-.62-.19-1.75-.19-1.75l-1.81.13s.44,2.5-.06,3.25A3.79,3.79,0,0,1,38.63,57a6.44,6.44,0,0,1-.81.06s.5,2.81.19,3.31-4.06.69-7.87.63-5.62-.12-5.69-.75a31.38,31.38,0,0,1,.31-3.37s-3.06-.19-3.37-1a18,18,0,0,1-.06-4.06H19.13A2.68,2.68,0,0,1,19.07,53c-.19.38-4.69.63-8,.31s-4.37-1.25-4.37-1.56S6.9,48.93,6.9,48.93Z"/><path class="cls-3" d="M7.94,47.3s-1.31-.12-1.25-.56.75-5.56,4.19-7.06,8.5-1.87,10.81-4.37,3.69-8.75,3.94-11.5,0-9.12,1.19-12.44,2-6.87,6.69-6.87c7.48,0,7.25,27.56,10.62,29.75a17.09,17.09,0,0,0,5.37,2.56,16.44,16.44,0,0,1,6.25,6.88c1.87,4.38,1.5,6.44,1.5,6.44l-2.94.25a5.55,5.55,0,0,0-5.56-4.87C43.69,45.36,43,51.36,43,51.36s-2.25.63-2.12.19-.31-14.87-1.06-17.62-2.37-3.56-3.06-3.69-1.12,1.44-1,1.63,1.94,0,2.31,5.81,1.31,16.88.63,17.38-4.81,1.06-9.06.81-5.56-.31-6.06-1.44.94-17.62,1.5-19.87,1.5-2.56,2.25-2.75A.9.9,0,0,0,28,30.61c-.12-.31-1.19-.37-2.19-.12s-2.69,1.69-3.19,7.31-.94,12.5-1.12,12.5-3.31-.25-3.31-.25.56-6-4.56-6.25S7.94,47.3,7.94,47.3Z"/><path class="cls-4" d="M13.44,45.43a3,3,0,0,1,2.94,3.06c0,1.56.13,2.88-.25,3a17.09,17.09,0,0,1-4.44-.06c-2.19-.25-2.56,0-2.56-.87S8.76,45.18,13.44,45.43Z"/><path class="cls-4" d="M48.69,47.18c3.06-.2,4,5,3.44,5.31a13,13,0,0,1-4.06.44c-2,.06-3,0-3.12-.94S44.88,47.43,48.69,47.18Z"/><path class="cls-5" d="M24,23.68c.25,0,.31,3.63-1.06,7s-3.5,5.13-4.81,5.5a14.67,14.67,0,0,1-2.94.44s4.25-2.87,6.12-6.87S24,23.68,24,23.68Z"/><path class="cls-5" d="M42.65,25a31.77,31.77,0,0,0,2.73,6.16c1.62,2.63,3.69,3.75,3.25,4S45.32,34.3,44,31.8A14.13,14.13,0,0,1,42.65,25Z"/><path class="cls-2" d="M27.38,16.43c-.06-.31.37-10.5,5.5-10.62s5.25,11.37,4.75,11.56-2-.94-5.62-.62S27.57,17.43,27.38,16.43Z"/><path class="cls-5" d="M28.69,15.49c-.33-.19.63-8.75,4.38-8.37s3.75,8.25,3.19,8.37-2.06-.44-3.94-.37S29.13,15.74,28.69,15.49Z"/><path class="cls-2" d="M36.51,20.36c.3-.25,2.25.81,2.19,1.38s.13.81-.19.75a9,9,0,0,1-2.56-1.31C35.82,20.86,36.13,20.68,36.51,20.36Z"/><path class="cls-2" d="M35.63,23.55c.18-.18,2.94,1.44,3,1.88s.37,1-.06.94-3.44-1.62-3.5-2S35.44,23.74,35.63,23.55Z"/><path class="cls-2" d="M34.88,26.11c.31.06,4.19,1.81,4.06,2.25s.25.75-.31.63-4.19-1.75-4.19-2.25A.64.64,0,0,1,34.88,26.11Z"/><path class="cls-2" d="M29.32,34.08c.35-.27,1,.25,2.66.31s2.75,0,2.75,0,.13.63,0,.81a9.15,9.15,0,0,1-2.69.28,12.27,12.27,0,0,1-2.84-.44A.92.92,0,0,1,29.32,34.08Z"/><path class="cls-2" d="M29.35,39c.35-.27,1,.25,2.66.31s2.75,0,2.75,0,.13.63,0,.81a9.15,9.15,0,0,1-2.69.28,12.27,12.27,0,0,1-2.84-.44A.92.92,0,0,1,29.35,39Z"/><path class="cls-2" d="M29.26,44.65c.35-.27,1,.25,2.66.31s2.75,0,2.75,0,.13.63,0,.81a9.15,9.15,0,0,1-2.69.28,12.27,12.27,0,0,1-2.84-.44A.92.92,0,0,1,29.26,44.65Z"/><path class="cls-2" d="M49.82,38.65c.13.16,2.41,2.09,2.34,2.38s-.19.41-.28.34a28.37,28.37,0,0,1-2.47-2C49.35,39.21,49.82,38.65,49.82,38.65Z"/><path class="cls-2" d="M47.35,39.33c.28,0,4.22,3.19,4.16,3.56s-.16.63-.31.63-4.44-3.31-4.41-3.59S47.35,39.33,47.35,39.33Z"/><path class="cls-2" d="M46.29,41.93a12.25,12.25,0,0,1,2.91,2.13c-.12.16.28.38-.37.34a9.25,9.25,0,0,1-3-1.72C45.76,42.49,46.13,42,46.29,41.93Z"/><path class="cls-4" d="M26.11,57.26c.07-.1,2.46.21,5.21.13s5-.37,5.13-.21a8.58,8.58,0,0,1,.21,2.5,32.16,32.16,0,0,1-6,.29c-2.71-.08-4.54,0-4.75-.29A5.3,5.3,0,0,1,26.11,57.26Z"/></g></svg>