<svg id="Layer_1" data-name="Layer 1" xmlns="http://www.w3.org/2000/svg" width="64" height="64" viewBox="0 0 64 64"><defs><style>.cls-1{fill:#fff;}.cls-2{fill:#1d1d1b;}.cls-3{fill:#cbe7f5;}.cls-4{fill:#92a0d1;}.cls-5{fill:#fab900;}.cls-6{fill:#696a9b;}</style></defs><title>space-capsule</title><g id="space-capsule"><path class="cls-1" d="M29.06,60.11c-12.82,0-20.17-3-21.58-5.83-.91-1.83-1.18-13.07-.07-14.77.68-1,2.27-1.63,3.63-2,1.48-9.82,1.88-10.22,2.3-10.65a4.64,4.64,0,0,1,.83-.65c.34-2.62,1.39-10.18,2.68-13.23C18.5,9.12,23.85,4.61,31.7,4c.52,0,1-.06,1.52-.06,6,0,10.88,3.25,13.66,9.16,2,4.3,3.18,11.61,3.51,13.95a8.2,8.2,0,0,1,1.78,4c.52,2.41,1.22,6.1,1.56,7.94a4.62,4.62,0,0,1,3.39,4c0,.1.62,10.92-.34,12.42-1.33,2.08-14.69,4.51-26,4.74Z"/><path class="cls-2" d="M12.55,39s1.54-10.42,2-10.88a4.09,4.09,0,0,1,1.21-.75S17,17.15,18.42,13.69s6.46-7.46,13.42-8S43,8.9,45.34,13.77,48.8,27.94,48.8,27.94s1,.21,1.71,3.46,1.75,9,1.75,9,2.92.21,3.17,2.71.29,10.75-.08,11.33-10,3.67-24.58,4S9.84,55.19,9,53.52,8.21,41.4,8.84,40.44,12.55,39,12.55,39Z"/><path class="cls-3" d="M14.13,39.77C13.63,39.48,16,29,16.71,28.94s1,.75,1.13,2.08.08,9.88,0,9.88A15.72,15.72,0,0,1,14.13,39.77Z"/><path class="cls-4" d="M19.8,41.69c0-.17,0-10.25-.17-12a2.64,2.64,0,0,0-1.21-2.29,1.36,1.36,0,0,0-.75-.33s1.58-11.21,2.92-13.33a15,15,0,0,1,12.17-6c6.42,0,9.63,3.58,11.54,8s2.42,12.54,2.42,12.54-1.92.54-2,1.38.67,12.17.54,12.21-1.33.29-1.33.29a48.17,48.17,0,0,0-3.42-4c-.25,0-.79.42-.62.63a38.87,38.87,0,0,1,2.67,3.38,10.47,10.47,0,0,1-1.12.17c-.17,0-2.08-2.46-2.25-2.46s-.75.17-.67.38,2.13,2.21,1.92,2.25-4.17.33-4.17.33S34.59,30.6,34.09,30.27s-3.63-.46-3.83.21-1.37,12.25-1.58,12.38a38.53,38.53,0,0,1-5.79-.54C21.25,42,19.8,41.69,19.8,41.69Z"/><path class="cls-3" d="M31.75,32c.12-.12.88-.17.92,0S34,42.69,33.8,42.85s-2.92.29-3,0S31.59,32.19,31.75,32Z"/><path class="cls-3" d="M47,30.35c0-.21.88-.25,1.08-.08a95.15,95.15,0,0,1,2.13,10.58c-.21.17-2.79,1-2.79.58S47,30.52,47,30.35Z"/><path class="cls-2" d="M21.17,16.44a5.56,5.56,0,0,1,1.38-3.33c1.38-1.58,1.92-2,2.17-1.83a1.19,1.19,0,0,1,.38,1c-.08.13-1.75.92-2.25,2.21a22.33,22.33,0,0,0-.58,2.38C22.13,16.9,21.34,16.52,21.17,16.44Z"/><path class="cls-2" d="M29.21,14.77c3.22-1.77,11.46-.12,10.5,7.58s-11.33,7.5-13.38,3.25S24.21,17.52,29.21,14.77Z"/><path class="cls-5" d="M30,16.32c2.46-1.35,8.75-.1,8,5.79s-8.66,5.73-10.22,2.48S26.15,18.42,30,16.32Z"/><path class="cls-2" d="M28.5,21.48A3.08,3.08,0,0,1,29,18.94a3.43,3.43,0,0,1,2.42-1.71.46.46,0,0,1,.17.75c-.25.21-1.58.58-1.92,1.42s-.33,1.67-.5,1.88S28.5,21.48,28.5,21.48Z"/><path class="cls-2" d="M29.67,23.06c-.17-.12.71-.67.88-.58s2.29,2.5,2,2.79-.29.38-.46.29S29.84,23.19,29.67,23.06Z"/><path class="cls-2" d="M31.34,21.52c-.17-.12.71-.67.88-.58s2.29,2.5,2,2.79-.29.38-.46.29S31.5,21.65,31.34,21.52Z"/><path class="cls-2" d="M33.09,19.85c-.17-.12.71-.67.88-.58s2.29,2.5,2,2.79-.29.38-.46.29S33.25,20,33.09,19.85Z"/><path class="cls-2" d="M29,11.6a.92.92,0,0,1,1.29,1.08c-.21.79-1.54,1-1.83.42A1.12,1.12,0,0,1,29,11.6Z"/><path class="cls-2" d="M33.8,10.73a.92.92,0,0,1,1.29,1.08c-.21.79-1.54,1-1.83.42A1.12,1.12,0,0,1,33.8,10.73Z"/><path class="cls-2" d="M38.3,12.56a.92.92,0,0,1,1.29,1.08c-.21.79-1.54,1-1.83.42A1.12,1.12,0,0,1,38.3,12.56Z"/><path class="cls-2" d="M41.75,16.9A.92.92,0,0,1,43,18c-.21.79-1.54,1-1.83.42A1.12,1.12,0,0,1,41.75,16.9Z"/><path class="cls-2" d="M42.13,23.1a.92.92,0,0,1,1.29,1.08c-.21.79-1.54,1-1.83.42A1.12,1.12,0,0,1,42.13,23.1Z"/><path class="cls-2" d="M38.38,28a.92.92,0,0,1,1.29,1.08c-.21.79-1.54,1-1.83.42A1.12,1.12,0,0,1,38.38,28Z"/><path class="cls-2" d="M26.5,29a.92.92,0,0,1,1.29,1.08c-.21.79-1.54,1-1.83.42A1.12,1.12,0,0,1,26.5,29Z"/><path class="cls-2" d="M22.84,25.06a.92.92,0,0,1,1.29,1.08c-.21.79-1.54,1-1.83.42A1.12,1.12,0,0,1,22.84,25.06Z"/><path class="cls-2" d="M22.3,19.85a.92.92,0,0,1,1.29,1.08c-.21.79-1.54,1-1.83.42A1.12,1.12,0,0,1,22.3,19.85Z"/><path class="cls-2" d="M24.5,14.23a.92.92,0,0,1,1.29,1.08c-.21.79-1.54,1-1.83.42A1.12,1.12,0,0,1,24.5,14.23Z"/><path class="cls-2" d="M21,33.9c0-.17,1-.42,1-.17a48.77,48.77,0,0,1,0,5c-.12.08-.83.17-.92,0S21,34.15,21,33.9Z"/><path class="cls-2" d="M41.09,37s.42-.92.58-.83a30.19,30.19,0,0,1,3,3.83,2.42,2.42,0,0,1-.42.88S41.17,37.1,41.09,37Z"/><path class="cls-2" d="M42.3,35.23c.13-.12.46-.79.71-.71s1.46,1.42,1.42,1.75-.12.67-.29.58S42.3,35.23,42.3,35.23Z"/><path class="cls-6" d="M11.21,41.73c.33-.17,4.58.83,7.83,1.63a44.78,44.78,0,0,0,13,1.71A99.49,99.49,0,0,0,46.25,43.9c2.88-.42,6.67-1.37,6.79-1.21a20.18,20.18,0,0,1,.33,2.46s-.75-.87-1-.75-.75.54-.58.67a14.64,14.64,0,0,1,1.54,1.71c0,.17,0,4,0,5a5.29,5.29,0,0,1-.08,1.21s-2.71.88-3.62,1.21a12.31,12.31,0,0,1-2.08.5s-1-1.5-1.21-1.5-.87,0-.79.21,1.13,1.29.79,1.38a9.24,9.24,0,0,1-1.17.13,16.29,16.29,0,0,0-1.75-2.54c-.21,0-.79.71-.79.71s1.75,2,1.46,2.17a3.67,3.67,0,0,1-1,.13S42,53.48,41.75,53.52a3.1,3.1,0,0,0-.79.33s1,1.75.79,1.79-.87.08-.87.08-.58-.79-.71-.79-.54,0-.62.13.13.79.13.79-3.33.38-8.25.42S24,56.1,24,56.1a27.22,27.22,0,0,0-2.12-2.5c-.21,0-.87-.12-.79.13a20.34,20.34,0,0,1,1.08,1.88,10.54,10.54,0,0,1-1.42-.29,20.8,20.8,0,0,0-2.12-3.12,1.87,1.87,0,0,0-.83.08,18.35,18.35,0,0,1,1.42,2.88c-.21,0-1.37-.29-1.37-.29a9.63,9.63,0,0,0-1.08-1.54,1.92,1.92,0,0,0-.75,0s.5,1.13.33,1.13a36.23,36.23,0,0,1-4-1c-.83-.33-1.12-.42-1.25-.67S10.55,42.06,11.21,41.73Z"/><path class="cls-2" d="M14.5,45.44a2.76,2.76,0,0,1,4.08,2.13c.33,1.54-.5,3.77-3.54,3A2.76,2.76,0,0,1,14.5,45.44Z"/><path class="cls-3" d="M15,46.4a1.69,1.69,0,0,1,2.5,1.3c.2.94-.31,2.3-2.17,1.86A1.69,1.69,0,0,1,15,46.4Z"/><path class="cls-2" d="M23.75,47.6a2.76,2.76,0,0,1,4.08,2.13c.33,1.54-.5,3.77-3.54,3A2.76,2.76,0,0,1,23.75,47.6Z"/><path class="cls-3" d="M24.26,48.57a1.69,1.69,0,0,1,2.5,1.3c.2.94-.31,2.3-2.17,1.86A1.69,1.69,0,0,1,24.26,48.57Z"/><path class="cls-2" d="M35.63,47.73a2.76,2.76,0,0,1,4.08,2.13c.33,1.54-.5,3.77-3.54,3A2.76,2.76,0,0,1,35.63,47.73Z"/><path class="cls-3" d="M36.13,48.7a1.69,1.69,0,0,1,2.5,1.3c.2.94-.31,2.3-2.17,1.86A1.69,1.69,0,0,1,36.13,48.7Z"/><path class="cls-2" d="M46,46.65a2.76,2.76,0,0,1,4.08,2.13c.33,1.54-.5,3.77-3.54,3A2.76,2.76,0,0,1,46,46.65Z"/><path class="cls-3" d="M46.55,47.61a1.69,1.69,0,0,1,2.5,1.3c.2.94-.31,2.3-2.17,1.86A1.69,1.69,0,0,1,46.55,47.61Z"/><path class="cls-2" d="M50.21,45.56c-.12-.08.42-.58.67-.42a12.55,12.55,0,0,1,1.88,2.38c-.12.08-.37.54-.5.46S50.34,45.65,50.21,45.56Z"/></g></svg>