<svg id="Layer_1" data-name="Layer 1" xmlns="http://www.w3.org/2000/svg" width="64" height="64" viewBox="0 0 64 64"><defs><style>.cls-1{fill:#fff;}.cls-2{fill:#1d1d1b;}.cls-3{fill:#e6e4da;}.cls-4{fill:#92a0d1;}.cls-5{fill:#f2910d;}.cls-6{fill:#ddc07c;}</style></defs><title>space-ship_3</title><g id="enterprise"><path class="cls-1" d="M52.75,62.48c-.58,0-2.07-.07-3.9-4.48a2,2,0,0,1-1.75-1.59c0-.11-.08-.4-.27-3.73l-7.54,3.93c.11,2.39-.29,3.1-1.07,3.53-1,.55-7.56.76-8.64.76-2.37,0-4.08-.11-4.56-1.61a11.5,11.5,0,0,1-.37-2.43c-1.46-.85-4.53-2.63-6-3.35l-.47-.23a3.57,3.57,0,0,1-.26,1.84,2.2,2.2,0,0,1-1.16,1c-.55,2-1.74,4.87-4.08,5h-.19c-2.35,0-4-2.84-4.73-4.62a2.19,2.19,0,0,1-1.48-1.92s0-.41,0-1c-.62-15.57-.59-15.6.12-16.31S9,35.75,11.79,35.75H12a9.33,9.33,0,0,1,2.1.25q-.53-.82-1-1.74c-3.19-5.83-3.63-12.34-1.29-19.36,1.73-5.19,7.92-11.46,16-12.85a33.33,33.33,0,0,1,5.72-.56c5.77,0,10.37,2.14,14.89,6.94C54.84,15.3,53.91,27,52.43,30.71l-.19.48a32.45,32.45,0,0,1-2.67,5.59,16.83,16.83,0,0,1,3.11-.23c2,0,5,1.29,5,3.24,0,.11,0,.69.07,1.55.69,14.54.58,14.63-.23,15.35a3.27,3.27,0,0,1-1.35.65c-.37,2.08-1.21,5.15-3.35,5.15h-.08Z"/><path class="cls-2" d="M14.56,33.45c-3.68-6.72-2.75-13.25-1.17-18S20.81,5,28.06,3.74,41,3.08,47.14,9.62,52,27.24,50.85,30.08,48,37.87,43.44,40.66A23.94,23.94,0,0,1,34.69,44l0,1.92s2,.13,2.29.67a11.8,11.8,0,0,1,.25,2.67S49,43.08,49,42.83s-.29-3.67,0-4,2-.54,3.67-.54S56,39.33,56,39.79s.79,15.29.42,15.63a4.52,4.52,0,0,1-1.71.46s-.71,5-1.87,4.92S50,56.33,50,56.33s-1.17.17-1.25-.25S48.39,50,48.39,50L37.52,55.62s.25,2.83-.12,3-10.46,1-10.75.13a14.61,14.61,0,0,1-.33-2.92S21.44,53,19.39,52s-3-1.37-3-1.37a28,28,0,0,1,0,3.75c-.17.33-1,.38-1,.38s-1,4.63-2.79,4.75-3.5-4.21-3.5-4.21S8,54.87,8,54.66s-.67-15.83-.42-16.08S9.19,37.41,12,37.45s3.79,1.21,3.88,1.71.17,5.5.17,5.5L25.27,49s-.08-2.37.75-2.79a5,5,0,0,1,2.13-.33l-.12-2S20.06,43.49,14.56,33.45Z"/><path class="cls-3" d="M31.1,5.54c6-.57,11.79,1.08,15.58,6.08s3.88,15.29,1.63,20S42.94,40.87,37.6,42s-13.54.33-17.54-4.33-6.83-11.29-6-16.79S19.19,6.66,31.1,5.54Z"/><path class="cls-2" d="M25.19,17.58c1.5-1.29,5.88-2.29,8.5-2.63s4.71.88,4.29,4-1.62,10.5-3.62,11.92-5.21.92-5.83.21-3.46-8-3.79-9.33S24,18.62,25.19,17.58Z"/><path class="cls-4" d="M27.19,18.12c.59-.34,7.5-2,8.29-1.37s0,3.54,0,3.54-.83-.46-1-.33-.62.5-.33.67,1.08.29,1.08.5a7.08,7.08,0,0,1-.21,1s-2.17-1.17-2.33-.83-.25.38-.08.54,2.33.75,2.29,1.08-.12.79-.12.79a22.68,22.68,0,0,0-3-1.08c-.08.13-.33.67-.21.79s2.92,1,2.88,1.29-.21.92-.21.92a19.43,19.43,0,0,0-3-1.25c-.08.17-.33.54-.08.71s3.08,1.25,3,1.46-.17.79-.33.75S30.94,25.87,30.69,26s-.37.63-.17.75,3.25,1.25,3.21,1.46,0,.63-.17.67-2.79-1-2.92-.92-.33.5,0,.71,2.71.71,2.5.92a4.05,4.05,0,0,1-1.92.54c-.79,0-1.17.17-2.29-2.46a40.47,40.47,0,0,1-2.5-7.83C26.39,19,26.31,18.62,27.19,18.12Z"/><path class="cls-2" d="M28.89,7.54c.05-.16.83-.25,1,0A24,24,0,0,1,30.64,12c-.17.21-.54.42-.62.25A42.34,42.34,0,0,1,28.89,7.54Z"/><path class="cls-2" d="M34.1,7.12a.73.73,0,0,1,1,.21,13.26,13.26,0,0,1-.42,4.38c-.25.08-.62.08-.67-.08A32.46,32.46,0,0,1,34.1,7.12Z"/><path class="cls-2" d="M41.64,10.74c.32-.21.92.75.58,1s-2.83,2.5-3,2.46-.58-.12-.42-.29S41.52,10.83,41.64,10.74Z"/><path class="cls-2" d="M39.94,19.12c0-.13,4.92-1.25,5.13-1s.58.79.17.92a46.54,46.54,0,0,1-5.29.88C39.77,19.83,40,19.29,39.94,19.12Z"/><path class="cls-2" d="M40.1,23.29c.15-.08,6.29.29,6.29.58s.25.58-.12.63A57.13,57.13,0,0,1,40.14,24C39.94,23.87,39.77,23.45,40.1,23.29Z"/><path class="cls-2" d="M40,28.08c.16-.05,4.63,1.33,4.5,1.67s-.21.58-.42.58a33.85,33.85,0,0,1-4.5-1.54C39.31,28.54,39.73,28.16,40,28.08Z"/><path class="cls-2" d="M37.23,32.08c.16-.1,4.46,4.42,4.29,4.63s-.5.58-.75.5-4.42-4.46-4.25-4.67A2.87,2.87,0,0,1,37.23,32.08Z"/><path class="cls-2" d="M30.23,34.33c1.69-1,5,.08,4.33,3.21s-4,2.75-5.12,1.5A3.13,3.13,0,0,1,30.23,34.33Z"/><path class="cls-5" d="M30.76,35.29a1.86,1.86,0,0,1,2.75,2,1.9,1.9,0,0,1-3.25,1A2,2,0,0,1,30.76,35.29Z"/><path class="cls-2" d="M24.23,31.87c.26,0,.63.13.54.46a21,21,0,0,1-3.29,3.58c-.25,0-.75-.17-.62-.46S23.77,32,24.23,31.87Z"/><path class="cls-2" d="M17.14,28.54c.06-.39,4.67-2,4.88-1.83s.46.71.21.83-4.58,2-4.75,1.92S17.1,28.79,17.14,28.54Z"/><path class="cls-2" d="M15.81,21.62a48.22,48.22,0,0,1,5.58,1c.17.17.29.46,0,.54s-5.87-.62-5.87-.62S15.6,21.74,15.81,21.62Z"/><path class="cls-2" d="M17.56,16c.16-.05,4.54,1.46,4.54,1.71s-.25.75-.42.71S17.44,17,17.27,16.91,17.31,16.12,17.56,16Z"/><path class="cls-2" d="M22.64,10.62c0-.15.71-.71.92-.58s3.25,3.67,3,4-.58.58-.71.46S22.69,10.83,22.64,10.62Z"/><path class="cls-6" d="M29.23,44.08c.11-.07,1,.17,2.38.29s1.88-.29,2,0a3.8,3.8,0,0,1,0,1.67c-.12,0-1.79-.17-2.75-.12s-1.54.21-1.58,0S29,44.24,29.23,44.08Z"/><path class="cls-3" d="M9.35,39.45c.23-.35,1.79-.62,3-.58s2,.58,2.13.92.42,12.75,0,12.83a14.6,14.6,0,0,0-3,.25c-1,.33-1.71.63-1.71.63S9.1,39.83,9.35,39.45Z"/><path class="cls-2" d="M10.56,40.2c.31-.31,1-.25,1.08,0s.21,3.21-.08,3.5-1.08.29-1.08,0A19.56,19.56,0,0,1,10.56,40.2Z"/><path class="cls-5" d="M10.44,55c0-.43,1.25-.71,2.29-.67s1.58.25,1.58.5-1,3.46-1.62,3.58S10.44,55.62,10.44,55Z"/><path class="cls-6" d="M16.44,46.24c.24-.18,9.29,4.08,9.29,4.29a22.68,22.68,0,0,1,.08,3.33c-.17.08-.71-.25-.71-.25A11.77,11.77,0,0,0,24.94,51c-.21-.08-1-.08-1,.08s.38,2.33.17,2.25-1.21-.54-1.21-.71.21-1.42,0-1.5-.92-.46-.87-.25,0,1.29,0,1.29-5.67-2.25-5.67-2.5A22.79,22.79,0,0,1,16.44,46.24Z"/><path class="cls-3" d="M27.48,47.79c.16-.23,7.83-.42,7.92,0a20.3,20.3,0,0,1,.13,3.42c-.12-.08-1-1-1.12-.83s-.42.58-.29.71,1.54,1.08,1.58,1.42.08,1.38.08,1.38S34.23,52,34,52.08s-.54.58-.37.75,2.17,2.38,2.29,2.67S36.23,57,36,57a2.24,2.24,0,0,1-.92,0c-.12-.08-2-2.92-2.17-2.92s-.58.25-.54.38A18.69,18.69,0,0,1,33.85,57,2.69,2.69,0,0,1,32.56,57c-.12-.12-1.17-2-1.37-2s-.92.29-.79.5.79,1.42.63,1.46-2.58.33-2.87,0S27.31,48,27.48,47.79Z"/><path class="cls-2" d="M28.81,48.87c.22-.11.71-.25.79.08s.33,3,0,3.08-.54.42-.71.08S28.56,49,28.81,48.87Z"/><path class="cls-6" d="M37.6,50.2c.29-.08,10.92-6.12,11-5.87a36.2,36.2,0,0,1,.13,4.25,66.42,66.42,0,0,1-7.54,4c0-.21.17-2.29,0-2.37s-.67-.17-.67,0,.21,2.71,0,2.75-1,.75-1,.5a19.57,19.57,0,0,0-.17-2.83c-.12,0-1,.29-1,.54s.38,2.63.13,2.79a10.74,10.74,0,0,1-1,.5S37.31,50.29,37.6,50.2Z"/><path class="cls-3" d="M50.48,39.74c.23-.37,1.63-.08,2.63.13a4.63,4.63,0,0,1,1.33.42s.17,10.71,0,10.54-1-1.17-1.25-1.17-.5.71-.42.88,1.58,1.13,1.63,1.38a4.23,4.23,0,0,1,0,.75,11.27,11.27,0,0,0-1.92-1.37c-.17.08-.42.71-.21.88a17.83,17.83,0,0,1,2.25,2c0,.21,0,.5-.29.38S52.35,53,52,53.08a.66.66,0,0,0-.37.88,6.28,6.28,0,0,0,.83.67s-1.54.54-1.71.21S50.27,40.08,50.48,39.74Z"/><path class="cls-5" d="M51.19,56c0-.33,1.54-.21,1.92-.25a1.15,1.15,0,0,1,.75.29s-.71,3.13-1.12,3.17S51.23,56.41,51.19,56Z"/></g></svg>