<svg id="Layer_1" data-name="Layer 1" xmlns="http://www.w3.org/2000/svg" width="64" height="64" viewBox="0 0 64 64"><defs><style>.cls-1{fill:#fff;}.cls-2{fill:#1d1d1b;}.cls-3{fill:#cbe7f5;}.cls-4{fill:#e6e4da;}.cls-5{fill:#f2910d;}.cls-6{fill:#ddc07c;}.cls-7{fill:#696a9b;}.cls-8{fill:#92a0d1;}</style></defs><title>space-observatory</title><g id="space-observatory"><path class="cls-1" d="M59.36,42.13c-.17-.31-.63-1.15-2.86-1.58-.06-3.33-.43-11.25-2.53-15.42a15.39,15.39,0,0,0-1.78-2.77,6.05,6.05,0,0,0,2.48-.65c.67-.58,2.5-2.17,1.33-5.5S49.35,15,49.35,15a13.69,13.69,0,0,0,2.92-2.5C53.43,11,52.85,4,48.52,3.63S40.68,6.46,40.43,9c-.19,1.91.88,5,1.39,6.39a17.2,17.2,0,0,0-2.73-.42A13.75,13.75,0,0,0,34,13.53a5,5,0,0,0-.58,0,12.82,12.82,0,0,0-2.22.46l1.11-1.81s.58-4.5-2.25-5.58-5.5,1.17-5.5,1.17A5.36,5.36,0,0,0,18.6,3c-5.5.42-3.5,5.58-3.5,5.58A8.45,8.45,0,0,0,9.6,7.21c-3.25.33-5.83,5.33-5.17,8.08s5.92,2.5,6.33,3.33-.32,4.44-.41,4.87c-.5,1-1,2.07-1.51,3.27A29.85,29.85,0,0,0,6.62,39.92a4.66,4.66,0,0,0-1.88,2.16c-.56,1.52.23,8.59.38,9.24C5.51,53,6.82,55,13.67,57.9a42.12,42.12,0,0,0,17,3.17c2.1,0,4.32-.1,6.79-.31,9.45-.81,20.83-6.46,21.56-7.87C59.31,52.24,60.11,43.52,59.36,42.13Z"/><path class="cls-2" d="M8.38,40.93a29.59,29.59,0,0,1,2-13.5c2.95-6.95,5.57-10,8.55-10.56a10.2,10.2,0,0,1,6.42,1.19l1,.88a12,12,0,0,1,7.25-3.7c1.9-.22,5,1.36,5,1.36a13.32,13.32,0,0,1,5.07,1.23C45.83,19,46,19.91,46,19.91s3.94,1,6.42,6S54.81,42,54.81,42s2.67.2,3.05.9-.19,8.77-.39,9.16-10.57,6.13-20.19,7-16.37,0-23-2.73S7,51.8,6.78,50.94,6,43.56,6.34,42.67A3.7,3.7,0,0,1,8.38,40.93Z"/><path class="cls-2" d="M6.65,13c-.11-.29,2.29-.4,2.32-.59s.16-2.23.41-2.31.4-.12.53,0,.54,1.94.64,2,1.63.1,1.68.38-1.14,1-1.14,1,.5,1.26,0,1.44-1.08-.29-1.17-.16S8.78,16.13,8.5,16s-.22-1.74-.26-2S6.76,13.32,6.65,13Z"/><path class="cls-2" d="M18.56,5.19c.88-.33,2.58.27,2.21,1.6a2.18,2.18,0,0,1-3.07,1.1C16.89,7.31,17.12,5.73,18.56,5.19Z"/><path class="cls-3" d="M18.81,5.94c.42-.16,1.23.13,1.05.76a1,1,0,0,1-1.46.52C18,7,18.12,6.2,18.81,5.94Z"/><path class="cls-2" d="M26.89,8.85a1.54,1.54,0,0,1,2.17,1.36c.26,1.3-2.38,1.82-2.79,1A1.59,1.59,0,0,1,26.89,8.85Z"/><path class="cls-3" d="M27.23,9.53a.73.73,0,0,1,1,.64c.12.62-1.13.86-1.32.49A.75.75,0,0,1,27.23,9.53Z"/><path class="cls-2" d="M45.66,8.13c.13,0,.58-2,.83-2.08s.58-.19.69,0a18.42,18.42,0,0,1,.27,2.05s1.68-.15,1.73.19S48,9.26,48,9.39s.19,1.21,0,1.22-1.37-.46-1.61-.35-1.42,1.61-1.64,1.5-.8-.3-.65-.47,1-2.12,1-2.12a6.59,6.59,0,0,1-1.55-.32c-.1-.15-.18-.52,0-.59S45.45,8.18,45.66,8.13Z"/><path class="cls-2" d="M52.7,16.24a1.57,1.57,0,0,1,1.19,2.38c-.51,1-2.67,1-3,.13A1.75,1.75,0,0,1,52.7,16.24Z"/><path class="cls-3" d="M52.55,17.07a.75.75,0,0,1,.57,1.15c-.25.5-1.29.51-1.44.06A.84.84,0,0,1,52.55,17.07Z"/><path class="cls-4" d="M10.29,40.52a29.63,29.63,0,0,1,1-10.13c1.44-4.68,4.05-9.73,6.48-11.17S23,17.88,26.28,21,30.87,32,31.15,34.78s.42,10.81.29,10.87-2.72.68-8.72-.92S12.06,42.61,10.29,40.52Z"/><path class="cls-2" d="M14.79,25.48c-.13-.2.55-1.47,1.69-2.91s2-2.11,2.36-2,.63.72.51.82a7,7,0,0,0-2.59,2.48C16,25.35,16.13,26,15.85,26A2.14,2.14,0,0,1,14.79,25.48Z"/><path class="cls-2" d="M28.41,36.27s.91.58.8.83-.2.35-.29.36-1-.36-1-.48S28.25,36.22,28.41,36.27Z"/><path class="cls-2" d="M27.47,38a12.29,12.29,0,0,1,2.4,2.16c0,.22,0,.53-.16.57a14.93,14.93,0,0,1-2.67-2C27,38.6,27.38,38,27.47,38Z"/><path class="cls-2" d="M26.32,40.08a31,31,0,0,1,3.26,3.08c0,.28,0,.63-.19.6a30,30,0,0,1-3.51-3.07A2.6,2.6,0,0,1,26.32,40.08Z"/><path class="cls-2" d="M25.05,41.43c.22.05,3,3.35,3,3.35s-.86.33-1,.21a36.58,36.58,0,0,1-2.67-3.14C24.5,41.74,25.05,41.43,25.05,41.43Z"/><path class="cls-2" d="M24.77,44.32a21.85,21.85,0,0,0-1.65-2.13c-.16,0-.59.06-.58.25A10.42,10.42,0,0,0,24,44.55C24.16,44.63,24.8,44.32,24.77,44.32Z"/><path class="cls-4" d="M9.82,42.11A56.88,56.88,0,0,0,21.4,46.35a48.89,48.89,0,0,0,17.87,1.12,41.66,41.66,0,0,0,11.87-3.41c1.1-.43,1.67-.93,2.2-.93s2.81.41,2.79.67S54.88,46.23,50.44,48a46.67,46.67,0,0,1-22.24,3.71c-10.37-.83-15-4.4-17.25-5.5s-2.76-1.29-2.7-1.42-.18-1.68,0-1.91A9.18,9.18,0,0,1,9.82,42.11Z"/><path class="cls-2" d="M38.15,48.31A3.17,3.17,0,0,1,41,48.5c1.07.73.4,1.61-.56,1.91a2.89,2.89,0,0,1-2.74-.32A1,1,0,0,1,38.15,48.31Z"/><path class="cls-5" d="M38.91,48.88a1.36,1.36,0,0,1,1.24.08c.46.31.17.69-.24.82a1.24,1.24,0,0,1-1.18-.14A.44.44,0,0,1,38.91,48.88Z"/><path class="cls-2" d="M48.51,45.83a3.17,3.17,0,0,1,2.83-.6c1.23.41.82,1.44,0,2a2.89,2.89,0,0,1-2.73.43A1,1,0,0,1,48.51,45.83Z"/><path class="cls-5" d="M49.4,46.18a1.36,1.36,0,0,1,1.22-.26c.53.18.35.62,0,.85a1.24,1.24,0,0,1-1.17.19A.44.44,0,0,1,49.4,46.18Z"/><path class="cls-2" d="M27.47,48.68a3.17,3.17,0,0,1,2.89.19c1.07.73.4,1.61-.56,1.91a2.89,2.89,0,0,1-2.74-.32A1,1,0,0,1,27.47,48.68Z"/><path class="cls-5" d="M28.23,49.26a1.36,1.36,0,0,1,1.24.08c.46.31.17.69-.24.82A1.24,1.24,0,0,1,28.05,50,.44.44,0,0,1,28.23,49.26Z"/><path class="cls-2" d="M18.55,47a3.17,3.17,0,0,1,2.89.19c1.07.73.4,1.61-.56,1.91a2.89,2.89,0,0,1-2.74-.32A1,1,0,0,1,18.55,47Z"/><path class="cls-5" d="M19.32,47.57a1.36,1.36,0,0,1,1.24.08c.46.31.17.69-.24.82a1.24,1.24,0,0,1-1.18-.14A.44.44,0,0,1,19.32,47.57Z"/><path class="cls-2" d="M11.58,43.86a2.55,2.55,0,0,1,2.13.94c.61.84-.14,1.32-.95,1.29a2.32,2.32,0,0,1-2-1A.82.82,0,0,1,11.58,43.86Z"/><path class="cls-5" d="M12,44.51a1.1,1.1,0,0,1,.92.41c.26.36-.06.57-.41.55a1,1,0,0,1-.85-.43A.35.35,0,0,1,12,44.51Z"/><path class="cls-6" d="M8.39,46.53a52.73,52.73,0,0,0,11.63,5c7.12,2,11.92,2.84,19.45,1.57a59.26,59.26,0,0,0,14.62-4.56c.91-.46,2-1.48,2.09-1.27s.36,3.2.12,3.37a1.65,1.65,0,0,1-.61.22,10.53,10.53,0,0,0-.12-2.22c-.16-.05-.92.3-.91.49a9.72,9.72,0,0,1,.14,2.12c-.15.13-1.11.84-1.12.62s0-2.19-.15-2.18-.68.19-.73.35.14,2,.05,2.16-.61.25-.61.25a15.32,15.32,0,0,0-.17-2.06c-.1,0-.93.24-.89.42s.17,2,.17,2l-.83.23a8.83,8.83,0,0,0-.11-2c-.15,0-.93.21-.92.33a17,17,0,0,1-.12,2.48,37.18,37.18,0,0,1-11.58,3c-6.5.69-14.23.82-20.52-1.1S9,51.48,8.7,50.65A13.32,13.32,0,0,1,8.39,46.53Z"/><path class="cls-2" d="M10.54,48.7c.09,0,.82.11,1,.42s.38,3.11,0,3.07a1.8,1.8,0,0,1-1.1-.69C10.33,51.31,10.26,48.78,10.54,48.7Z"/><path class="cls-3" d="M39.41,18.32C41.73,18,46.1,20.47,46,24.55s-4.27,6.2-8.89,2.82S35,19,39.41,18.32Z"/><path class="cls-2" d="M39.61,19.48c1.82-.28,5.24,1.69,5.17,4.88s-3.35,4.86-7,2.21S36.18,20,39.61,19.48Z"/><path class="cls-7" d="M39.78,20.47a3.89,3.89,0,0,1,4,3.73c-.06,2.44-2.56,3.72-5.33,1.69S37.15,20.87,39.78,20.47Z"/><path class="cls-2" d="M39.42,21.45c.17-.14.71-.13.73.21a11.82,11.82,0,0,1-1.35,2.89c-.13,0-.58-.25-.55-.35A19.18,19.18,0,0,1,39.42,21.45Z"/><path class="cls-2" d="M41.28,21.64c.16-.1.5.07.61.25a16.19,16.19,0,0,1-1.58,3.87c-.19-.05-.76-.18-.73-.27A38.57,38.57,0,0,1,41.28,21.64Z"/><path class="cls-2" d="M42.57,23.07c.08-.06.57.19.52.38a10.94,10.94,0,0,1-.95,2.24c-.19,0-.57-.1-.55-.25A12.89,12.89,0,0,1,42.57,23.07Z"/><path class="cls-8" d="M33.08,22.88a5.86,5.86,0,0,0,3,6,16.87,16.87,0,0,0,6,1.78,27.47,27.47,0,0,1-3.51,2.88A36.82,36.82,0,0,1,33,30.84c-1.11-.85-1.13-.69-1.11-.85s-.15-1-.32-2.46-.31-1.64-.28-1.74S33,23,33.08,22.88Z"/><path class="cls-7" d="M32.79,32.1a13.82,13.82,0,0,1,2.07,1.24c.42.26,1.12.5.95.79S33.08,37.56,33,37.47,32.57,32.2,32.79,32.1Z"/><path class="cls-1" d="M41.2,33.69s.87,1.64.44,5.39-1.43,6.18-1.17,6.29A6.79,6.79,0,0,0,42.86,45a27.66,27.66,0,0,0,.61-6.85,21.43,21.43,0,0,0-.91-5.4C42.39,32.65,41.2,33.69,41.2,33.69Z"/><path class="cls-1" d="M27.82,19.81s2.58-2.61,5.13-3A5.74,5.74,0,0,1,37.3,18l-1.47.61s-1.3-.84-3.63,0a7.79,7.79,0,0,0-3.44,2.44Z"/><path class="cls-4" d="M47.43,22.66a10.15,10.15,0,0,1,4.38,6.43,86.32,86.32,0,0,1,1.32,9.54s-3.12-3.9-3.24-3.8-.54.4-.5.56,3.7,4.19,3.71,4.53a3.46,3.46,0,0,1-.08.79l-.65.19s-3.41-3.51-3.5-3.48-.48.43-.4.65,3.21,3.33,3.06,3.47a7.86,7.86,0,0,1-1.07.49A29.31,29.31,0,0,0,48,39.55c-.15,0-.7.38-.53.59a28.27,28.27,0,0,1,2.1,2.39,3.91,3.91,0,0,1-.64.35,17.84,17.84,0,0,0-2.33-2c-.18.07-.51.46-.4.65s2,1.74,1.79,1.94a18.8,18.8,0,0,1-2.49.91,9.45,9.45,0,0,1-1.3.26,22.41,22.41,0,0,0,.69-8.33,29.75,29.75,0,0,0-.77-5,22,22,0,0,0,2.76-3.53,6,6,0,0,0,.83-3.33A18.12,18.12,0,0,0,47.43,22.66Z"/><path class="cls-2" d="M50.3,31.86s1.68,1.57,1.73,2,.2.87,0,.94a5.09,5.09,0,0,1-1.84-1.62A3.47,3.47,0,0,1,50.3,31.86Z"/></g></svg>