<svg id="Layer_1" data-name="Layer 1" xmlns="http://www.w3.org/2000/svg" width="64" height="64" viewBox="0 0 64 64"><defs><style>.cls-1{fill:#fff;}.cls-2{fill:#1d1d1b;}.cls-3{fill:#e6e4da;}.cls-4{fill:#cbe7f5;}.cls-5{fill:#e7413e;}.cls-6{fill:#f2910d;}.cls-7{fill:#a42116;}</style></defs><title>space-ship</title><g id="space-ship-3"><path class="cls-1" d="M31.22,62.15c-2.77.08-3.61,0-4.18-.89-.17-.26-.37-.56-.73-3a2,2,0,0,1-1.7-1.12s-.05-.13-.23-.64a1.84,1.84,0,0,1-.15.55c-.41,1-1.47,1.4-3.76,1.46a17.54,17.54,0,0,1-7-1.23C9.12,55.4,6.68,53,6.11,45.84S6,31,6.69,28c.31-1.33,1-4.43,3.42-4.5a2.46,2.46,0,0,1,.45,0,2.65,2.65,0,0,1,2.07,1.67c1.68,0,2.6.54,2.75,1.69a3.77,3.77,0,0,1,0,.41,2.56,2.56,0,0,1,1,.6c.32-1.11,1-3.3,2.55-7.88-.57-4.62-.63-5.79.62-6.35-.1-1.82.15-2.74,1.19-3.16a7,7,0,0,1,1.94-.3H23c1.58-3.24,3.38-6.33,5.28-7.35a8.2,8.2,0,0,1,3.62-1A5.94,5.94,0,0,1,37.48,4.9c.71,1.34,1.64,3.45,2.36,5.14,3.48,0,3.71,1.27,3.8,1.77a8.28,8.28,0,0,1,0,1.58,2.18,2.18,0,0,1,1.66,1.69c0,.25.08.54-.6,7.1A24.92,24.92,0,0,1,47,27.46a2.43,2.43,0,0,1,1.29-.33c.57,0,1.07,0,1.51,0a2.18,2.18,0,0,1,1.65-1.3l.21,0c.33,0,3.31.05,5.3,5.15,1.61,4.14,1.58,13.41-.07,18-1.82,5.11-4.48,7.87-8.6,9a22.91,22.91,0,0,1-5.07.79,9.14,9.14,0,0,1-2.64-.23c-.57-.17-1.93-.58-2.31-1.76-.39,1-.64,1.15-.9,1.33a2.09,2.09,0,0,1-.77.33c-.15,2.31-.42,2.72-1,3.13C35.26,61.81,34.94,62,31.22,62.15ZM44.88,36.39c-.4,1.32-.78,2.58-1.06,3.56l-.14.48.84-.83a9.14,9.14,0,0,0,.95-1.07c-.11-1.25-.2-2.31-.27-3.21ZM17.15,38.45A16.41,16.41,0,0,0,19,40.28l.15.07.16,0c-.79-2.29-1.61-4.77-2.22-7C17.14,35.27,17.15,37.3,17.15,38.45Z"/><path class="cls-2" d="M17.86,29c0-.21,2.82-8.84,2.82-8.84s-.6-4.9-.36-5a5.17,5.17,0,0,1,1.08-.07s-.34-2.91,0-3a4.48,4.48,0,0,1,2-.1c0,.17-.08,1.38,0,1.29s3.19-7.6,5.66-8.92S34.7,3.27,36,5.7s3.39,7.65,3.39,7.65,0-1.54.16-1.59,2.38.06,2.43.35,0,2.59,0,2.59,1.68.33,1.73.66S43,22.54,43,22.54s2.25,4.1,2.37,5.31S43.16,36,42.18,39.49s-2.28,7.45-2.28,7.45l2.52-.87a14.25,14.25,0,0,1,.87-3,24.87,24.87,0,0,0,2.43-2.28c1.38-1.37,1.49-1.92,1.49-1.92s-.68-7.52-.39-7.74A3.54,3.54,0,0,1,48,30.81s-.26-1.74-.06-1.92a9.57,9.57,0,0,1,3,.16c0,.12.37-1.47.79-1.52S54,28,55.37,31.6,56.86,44,55.29,48.44s-3.72,6.9-7.44,7.89-6.15.76-6.78.57-1.22-.38-1.19-.84.2-1.67.2-1.67H37.29a12.33,12.33,0,0,1-.89,2.32,4.37,4.37,0,0,1-1.41.12,16.78,16.78,0,0,1-.36,3.35c-.24.17-5.95.47-6.17.14a30.61,30.61,0,0,1-.65-3.77s-1.54.09-1.63-.12-1-2.89-1-2.89l-3-.16a11.7,11.7,0,0,1,.42,3c-.19.46-4.93.9-8.56-.67s-5.76-3.25-6.3-10-.17-14.38.53-17.36,1.49-3.25,1.95-3.18a.92.92,0,0,1,.77.73c.05.29.12,1.08.12,1.08s2.45-.32,2.5.09a13.16,13.16,0,0,1-.07,1.71s1.7-.18,1.77.61.08,9.71.08,9.71a20,20,0,0,0,2.79,2.67c.76.39.67.11.76.39s1,4.47,1.26,4.63a34.62,34.62,0,0,0,3.43.48S18.6,34.18,17.86,29Z"/><path class="cls-3" d="M32,4.94c2.33,0,3.41,2.57,5,6.23s6.54,16.77,6.57,17.9-8,26-8.24,26-.5.06-.5-.15,2.63-12.58,2.56-13.58-3.77-13.48-4.25-14-3.23-.61-3.63-.23-2.84,15.38-2.74,16,2.88,11.34,2.55,11.43a1.88,1.88,0,0,1-1.16.12c-.34-.16-7.69-23.45-7.91-25.28S23,18.46,24.77,14.49,28.83,4.91,32,4.94Z"/><path class="cls-2" d="M27.6,12.9c.3-.47,2.21-1.23,4.55-1.22a7.94,7.94,0,0,1,4.16,1c.09.16,2.82,7.92,2.45,8.1s-3.74-1.18-7.32-1-6.39,1.1-6.6.94S27,13.84,27.6,12.9Z"/><path class="cls-4" d="M32.1,12.65a7.26,7.26,0,0,1,3.57.85c.26.33,2,5.74,1.67,5.79a21.22,21.22,0,0,0-6.28-.86c-3.2.22-4.8,1.27-4.81,1s1.83-6,2.15-6.15A10,10,0,0,1,32.1,12.65Z"/><path class="cls-2" d="M28.6,10c.08-.25,1.53-3.3,1.9-3.35s.78-.31.55.11S29.64,9.84,29.4,10,28.6,10,28.6,10Z"/><path class="cls-2" d="M23.69,22.81s1,0,.92.18S23,27.59,22.79,27.8s-.62.27-.75.11S23.69,22.81,23.69,22.81Z"/><path class="cls-2" d="M22.47,31c0-.29.66-.23.84.06s1.21,4.22,1,4.31-.57.43-.71,0S22.47,31.23,22.47,31Z"/><path class="cls-5" d="M30.9,28.69c.13-.17.92,0,1,.14s2.35,7.73,2.19,7.73-1.4-.92-1.4-.79-.27.84-.1,1,1.79,1.2,1.92,1.61.79,2.64.79,2.64a19.76,19.76,0,0,0-2.18-2c-.12.09-.36.43-.19.59S35.16,41.65,35,42a4.57,4.57,0,0,0-.15.63,17.31,17.31,0,0,0-2.25-1.48c-.12.09-.36.47-.15.67s2.21,1.52,2.22,1.77S34.51,45,34.51,45a9.13,9.13,0,0,0-1.81-.57c0,.13-.3,1,0,1.17s1.53.83,1.53.83-1.34,8.33-1.59,8.38-1.37.21-1.5,0-2.68-11.63-2.64-12S30.66,29,30.9,28.69Z"/><path class="cls-2" d="M39.28,25.77a9.7,9.7,0,0,1,2.35,2,1.43,1.43,0,0,1-.28.55s-2.55-1.76-2.6-1.92S39.24,25.94,39.28,25.77Z"/><path class="cls-2" d="M37.59,27.78c0-.29,3.55,2.94,3.55,3.11s0,.58-.19.51A36.7,36.7,0,0,1,37,28.51C36.93,28.22,37.55,28,37.59,27.78Z"/><path class="cls-2" d="M36.82,29.89a23.22,23.22,0,0,1,3.94,3.55c.05.29.05.29-.11.38a21.74,21.74,0,0,1-4.14-3.3C36.45,30.15,36.7,30.06,36.82,29.89Z"/><path class="cls-2" d="M36.85,32.64a25.77,25.77,0,0,1,3.47,3.07c0,.17.09.37-.07.42a32,32,0,0,1-3.84-2.89C36.37,33.07,36.77,32.64,36.85,32.64Z"/><path class="cls-2" d="M37.15,35.51a25.32,25.32,0,0,1,2.52,2.09c0,.12,0,.71-.15.67a20,20,0,0,1-2.73-2.17C36.79,35.94,37.15,35.51,37.15,35.51Z"/><path class="cls-6" d="M48.1,32.27c.18-.1,1.91-.26,1.87-.1a48,48,0,0,1-1.85,5.06A38.81,38.81,0,0,1,48.1,32.27Z"/><path class="cls-6" d="M49.08,30.36s-.34-.37.07-.46a6.26,6.26,0,0,1,1.38,0s0,.67-.19.71A6.18,6.18,0,0,1,49.08,30.36Z"/><path class="cls-7" d="M45,44.11a31.12,31.12,0,0,0,5.13-6.9c1.85-3.76,2.4-6.24,2.61-6.29s1.32,2.46,1.38,5.92.24,8.08-.72,11.07a11.34,11.34,0,0,1-3.36,4.89,43.48,43.48,0,0,0-2.88-4.42c-.25,0-.75.11-.61.35s2.84,4.59,2.68,4.76a6.86,6.86,0,0,1-1.32.54s-2-3.86-2.24-3.85-.87.23-.78.36S47.2,54.1,47,54.27a1.35,1.35,0,0,1-.58.23l-1.79-2.62s-.66.23-.53.43,1.53,2.25,1.24,2.38-3,.55-3,.25S45,44.28,45,44.11Z"/><path class="cls-2" d="M48.44,46.76a20.8,20.8,0,0,1,2.65,3.67c0,.17-.48.56-.65.48a40.63,40.63,0,0,1-2.52-3.64C47.82,47,48.4,46.89,48.44,46.76Z"/><path class="cls-2" d="M49.48,45.36c0-.21.45-.43.66-.39a18.49,18.49,0,0,1,2.26,3.1c0,.21.14.66-.24.51A21.68,21.68,0,0,1,49.48,45.36Z"/><path class="cls-2" d="M50.72,43.61s.4-.72.52-.6,2.06,2.11,2,2.4,0,.71-.23.63S50.85,43.73,50.72,43.61Z"/><path class="cls-2" d="M51.82,41.29c0-.13.06-.75.31-.76s1.24,1,1.33,1.25.07.87-.06.84S51.82,41.29,51.82,41.29Z"/><path class="cls-6" d="M29,56.8a44.38,44.38,0,0,1,4.75-.1c0,.17,0,2.63-.34,2.72a21.51,21.51,0,0,1-4,.08C29.34,59.33,28.77,56.81,29,56.8Z"/><path class="cls-6" d="M11.53,27.72c.14-.15,1.16-.12,1.21,0s.16,1.12,0,1.21-1.33.25-1.33.08A10,10,0,0,1,11.53,27.72Z"/><path class="cls-6" d="M11.48,30.09c0-.29,2.37-.07,2.38.1s.44,6.57.23,6.45A20.57,20.57,0,0,1,11.48,30.09Z"/><path class="cls-7" d="M9.86,31.85c0-.39.87,5.48,3.19,7.87a22.23,22.23,0,0,0,4.23,3.5s2.57,8.14,2.4,8-1.78-2.41-1.95-2.44-.57.39-.53.52,2.73,3.46,2.86,3.75.41,1.16.29,1.24-.41.18-.5,0a45,45,0,0,0-3.63-4.52c-.34-.07-.58,0-.66.19s3.47,4.48,3.22,4.49a4,4,0,0,1-1.25-.09c-.17-.12-2.56-3.51-2.73-3.59s-.82.36-.69.56,2.5,2.89,2.25,2.89a7,7,0,0,1-5.71-4.17C9,46.3,9.7,33.56,9.86,31.85Z"/></g></svg>