<svg id="Layer_1" data-name="Layer 1" xmlns="http://www.w3.org/2000/svg" width="64" height="64" viewBox="0 0 64 64"><defs><style>.cls-1{fill:#fff;}.cls-2{fill:#1d1d1b;}.cls-3{fill:#ffe19b;}.cls-4{fill:#fab900;}.cls-5{fill:#cbe7f5;}.cls-6{fill:#e6e4da;}.cls-7{fill:#1f4863;}.cls-8{fill:#85bfe9;}.cls-9{fill:#e7413e;}.cls-10{fill:#a42116;}</style></defs><title>space-rover-1</title><g id="space-rover-1"><path class="cls-1" d="M18.21,58.82c-1.78,0-2.9,0-3.53-.09a9.89,9.89,0,0,1-8.88-6.8A12.55,12.55,0,0,1,7,40.62a7.94,7.94,0,0,1,3.7-2.89c-.77-.94-1-1.69-.59-2.52.1-.21.32-.64,1.63-1.66,2.71-2.83,3.49-2.83,4-2.83a2,2,0,0,1,1,.32A4.2,4.2,0,0,1,18,32.51l.51-.09-.69-9.22h-.06a24,24,0,0,1-3.73-.1,4.5,4.5,0,0,1-3.73-4.26C10,16.4,10,9.6,10,8.92a3.68,3.68,0,0,1,3.75-3.67c.84-.05,3.15-.06,4.94-.06,4,0,9.76.06,10.7.13,2.32.17,3.65,1.64,3.73,4.14,0,1.28,0,5.43-.08,8a19.9,19.9,0,0,1,3-.22,23.62,23.62,0,0,1,5.12.58c6.19,1.38,8.14,6,9.08,8.2l.2.46c.88,2,.18,5.51-.28,7.3,3.35,3.54,3.57,4.38,3.65,4.71s.09.39.12.56a8,8,0,0,1,4.27,4.42c1.72,4.05,1,10.57-2.6,12.9-2.7,1.77-5.84,1.92-8.82,1.92H44.52c-1.45,0-5,.09-9,.19C29.7,58.64,22.49,58.82,18.21,58.82Z"/><path class="cls-2" d="M56.6,44.16a5.93,5.93,0,0,0-4.34-3.81,3.71,3.71,0,0,0-.12-1.41c-.22-.84-3.91-4.66-3.91-4.66s1.53-5,.63-7.09-2.34-6.41-8.09-7.69-9.47.13-9.47.13.19-8.28.13-10.13S30.54,7.1,29.26,7s-13.41-.19-15.41-.06S11.72,8.38,11.69,9s0,7.38.25,9.69a2.79,2.79,0,0,0,2.38,2.75c.47.09,5,.06,5,.06l.94,12.56s-.75,0-1.44,0a7,7,0,0,0-1.72.44,10.69,10.69,0,0,0-1.34-2.09c-.41-.28-2.94,2.38-2.94,2.38A7.7,7.7,0,0,0,11.6,36c-.16.31,1.78,2.09,1.78,2.09l-.72.84a6.81,6.81,0,0,0-4.28,2.66,10.79,10.79,0,0,0-1,9.75A8.26,8.26,0,0,0,14.85,57c3.37.34,26.19-.47,29.91-.44s7.16.16,9.88-1.62S58.07,47.63,56.6,44.16ZM25.72,23.78c-.72,1.09-1.06,2.09-1.19,2.06a23,23,0,0,1-.28-4.47,18.15,18.15,0,0,1,3.88,0A20.47,20.47,0,0,0,25.72,23.78Z"/><path class="cls-3" d="M14.26,34.88c.13-.09.87-1.12,1.16-1s1,1,.94,1.19-1,1.22-1.12,1.13A12.66,12.66,0,0,1,14.26,34.88Z"/><path class="cls-4" d="M13.47,35.63c.28.19,1.19,1.28,1.09,1.44s-.31.53-.47.44a7.93,7.93,0,0,1-1.37-1.31C12.76,36.07,13.38,35.57,13.47,35.63Z"/><path class="cls-5" d="M16.19,19.94c-1.12,0-2.16,0-2.28-1.25a50,50,0,0,1-.12-6.28,7,7,0,0,1,2.13,0A54.66,54.66,0,0,0,16,17.94c.16.06.88.22.94,0s-.12-5.66.06-5.69a15.61,15.61,0,0,1,2.69,0,15.43,15.43,0,0,1,0,2.41c-.12,0-1.91.06-1.91.06s-.12.88,0,.94,1.84.06,1.84.06-.22,2.22,0,2.28.81.16.78,0a10.36,10.36,0,0,1,.06-2.22,10,10,0,0,1,2.75.06c0,.19-.22,2,0,2.06s.84.13.81,0a7.77,7.77,0,0,1,0-2.09c.16,0,1.28.19,1.28,0s.16-1.12,0-1.16L24,14.53s.25-4.91,0-5-.94-.09-.94.09S23,14.6,23,14.6l-2.44,0V9.38s-.91-.12-.91.06a11,11,0,0,1,0,1.78c-.09.06-2.81.13-2.81.13a4.79,4.79,0,0,0-.06-1.16c-.09,0-1.06-.09-1.06.06s.06,1.06,0,1.09-1.91.06-1.91.06V9.25s-.28-.84.59-.87,6.59.22,10.12.22,4.66,0,4.84.22a97.79,97.79,0,0,1-.09,10.5c-.19.09-6,.06-6.19.22s.88,14.28.63,14.38a5,5,0,0,1-1.78.06c-.06-.12-.75-14-1.09-14.12A43,43,0,0,0,16.19,19.94Z"/><path class="cls-2" d="M26.38,12.28s.75-.19.78,0a32.6,32.6,0,0,1,0,4.28c-.16.06-.94.19-.94,0S26.32,12.44,26.38,12.28Z"/><path class="cls-6" d="M30.54,22.16c1.88-1.21,6.31-1.56,9.53-.87a11.07,11.07,0,0,1,6.25,4.38c.78,1.13,1,4.09.84,5.09a6.7,6.7,0,0,1-.37,1.5,30.68,30.68,0,0,0-2.59-3.5c-.19.09-.62.25-.5.41s2.72,3.69,2.69,3.84-.19.81-.31.78a4.08,4.08,0,0,0-.62,0,40.63,40.63,0,0,0-2.59-3.37c-.19,0-.69.16-.59.31s2.16,3.19,2.16,3.19l-.87-.09a24.25,24.25,0,0,0-1.81-2.41c-.16,0-.81.38-.75.47a16.76,16.76,0,0,1,1.34,1.94c-.09.06-2.91.06-2.91.06s-.12-3.09-3-3.53-3.53.38-4.37,1.13-.44,2.59-.44,2.59-5.78,0-5.94-.09A15.23,15.23,0,0,1,26,28,11.72,11.72,0,0,1,30.54,22.16Z"/><path class="cls-2" d="M31.57,23.5c.28,0,.56.69.47.84a8,8,0,0,0-2.44,2.22c-.94,1.47-.84,1.78-1.06,1.88a1.46,1.46,0,0,1-.84-.06,9.12,9.12,0,0,1,1.13-2.69A6.84,6.84,0,0,1,31.57,23.5Z"/><path class="cls-2" d="M44.88,27.41s.41-.53.59-.41a3.7,3.7,0,0,1,.88,1.34c0,.22-.34.69-.5.59A8,8,0,0,1,44.88,27.41Z"/><path class="cls-7" d="M32.85,34.1c-.25.08-.47-.62-.41-1a2.44,2.44,0,0,1,3.31-1.78c2.37.88,2.66,2.66,2.31,2.75S33,34,32.85,34.1Z"/><path class="cls-8" d="M18.79,35.82c.4-.16,13.66-.12,19.72-.16a64.75,64.75,0,0,1,8.66.25c.31.09,2.66,3.13,2.38,3.16A18,18,0,0,1,46.88,39a22.68,22.68,0,0,0-1.19-2.09c-.12,0-1.06-.12-1,0s1.41,2.16,1.19,2.16a6.65,6.65,0,0,1-1.34,0,17,17,0,0,0-1.37-2.28c-.19,0-1,0-.94.25s1.38,2.06,1.16,2.09-1.44,0-1.44,0A14,14,0,0,0,40.85,37c-.16,0-1,0-1,.13s1.28,2,1.13,2.06-1.12,0-1.12,0a10.19,10.19,0,0,0-1-2c-.22-.06-.91,0-.94.19s.84,1.88.69,1.94-6.81-.06-10.62-.06S17,39,16.22,39s-.72-.09-.62-.25A36.39,36.39,0,0,1,18.79,35.82Z"/><path class="cls-9" d="M12.32,40.5c.41-.12,16.91,0,21.81-.06s14.72-.06,17.22.69,4,3.25,4.09,6.31-.31,5.47-3.28,6.81-18.34,1-25.91,1.16-13,1-15.44-1.53a9.92,9.92,0,0,1-2.38-8.5C8.94,43.28,10.38,41.1,12.32,40.5Z"/><path class="cls-10" d="M14.35,42.13c2-.63,30.88-.5,33.63-.22a5.71,5.71,0,0,1,5.44,5.19c.28,3.13-.56,5.63-3.25,6.28s-22.5,1-29,.84-9.06-.37-10.22-3.94S11.32,43.07,14.35,42.13Z"/><path class="cls-9" d="M16.91,43.25c2.87-.21,5.63,2.53,5.25,6.22s-5.5,4.91-8.06,3.09S10.19,43.75,16.91,43.25Z"/><path class="cls-9" d="M31.85,42.85c2.87-.21,5.63,2.53,5.25,6.22S31.6,54,29,52.16,25.13,43.35,31.85,42.85Z"/><path class="cls-9" d="M46.35,42.72c2.87-.21,5.63,2.53,5.25,6.22S46.1,53.85,43.54,52,39.63,43.22,46.35,42.72Z"/><path class="cls-2" d="M16.35,46.75c1.13-.39,2.16-.22,2.44,1.13a1.78,1.78,0,0,1-2.66,1.78C14.66,49,15.35,47.1,16.35,46.75Z"/><path class="cls-2" d="M30.63,47c.7-1,1.64-1.42,2.64-.49a1.78,1.78,0,0,1-1.14,3C30.53,49.74,30,47.82,30.63,47Z"/><path class="cls-2" d="M48.51,47.15c.24,1.17-.07,2.17-1.44,2.27a1.78,1.78,0,0,1-1.42-2.87C46.53,45.19,48.3,46.12,48.51,47.15Z"/></g></svg>