<svg id="Layer_1" data-name="Layer 1" xmlns="http://www.w3.org/2000/svg" width="64" height="64" viewBox="0 0 64 64"><defs><style>.cls-1{fill:#fff;}.cls-2{fill:#1d1d1b;}.cls-3{fill:#85bfe9;}.cls-4{fill:#e6e4da;}.cls-5{fill:#92a0d1;}.cls-6{fill:#ddc07c;}.cls-7{fill:#e7413e;}</style></defs><title>space-ship_2</title><g id="space-ship-2"><path class="cls-1" d="M31,62.35c-3.64,0-4.06-.19-4.38-.33a3.49,3.49,0,0,1-1.44-1.24c-2-.33-6.72-1.39-9.92-4.41-4.13-3.89-6.31-8.14-6.65-13-.18-2.5-.19-8.93-.11-14.19.16-11.58.3-11.8,1.55-12.26,0-1.41.21-1.8.54-2.17a1.81,1.81,0,0,1,1.3-.58l.33,0c.51,0,1.35-.1,2-.1a4.17,4.17,0,0,1,1.49.22c3.26-8.86,3.49-9,4-9.34L20,4.87c0-1.39.23-2.82,1.65-3.11A21.45,21.45,0,0,1,24,1.65c2,0,4,0,4.32,1.73a10.53,10.53,0,0,1,.09,1.29,1.89,1.89,0,0,1,.59,1,10.65,10.65,0,0,1,0,2.77c0,.67-.08,1.62-.11,2.47,1,0,2.9-.05,4.5-.05h1.58c-.06-4-.07-5.41.55-6-.13-1.36.17-1.78.36-2a1.93,1.93,0,0,1,1.3-.75C37.41,2,38.25,2,39.07,2,40.51,2,42,2,42.49,3.33a4.4,4.4,0,0,1,.22,1.2,1.89,1.89,0,0,1,.43.32c.24.24.24.24,2.33,4,.75,1.37,1.81,3.31,2.59,4.7.63-.07,1.5-.12,2.11-.12.81,0,2.69,0,3,1.65a13.12,13.12,0,0,1,.09,1.52,1.91,1.91,0,0,1,1.63,1.64c0,.17,1,22.51.49,25.46-.74,4.6-2.74,10.7-8,13.63a28.24,28.24,0,0,1-7.89,3.21A4.28,4.28,0,0,1,37.3,62,46.48,46.48,0,0,1,31,62.35Z"/><path class="cls-2" d="M16,18.6s4.38-12,4.71-12.21a3.16,3.16,0,0,1,1-.29s-.21-2.58.21-2.67,4.63-.21,4.71.25.08,2.37.08,2.37.54-.33.63,0-.42,7-.12,7.17a2.23,2.23,0,0,0,.75.21s.13-.83.33-.83,7.42-.17,7.54,0,0,.46.17.5.54.21.63.08-.17-7,.08-7a3.74,3.74,0,0,1,.71,0s-.54-2.37-.12-2.42,3.46-.17,3.58.17A15.79,15.79,0,0,1,41.1,6s.67-.12.83,0,5.71,10.5,5.75,10.25-.17-.87.13-1,3.58-.37,3.67.08.08,3,.08,3,1.58-.33,1.63,0,.92,22.42.5,25-1.83,9.46-7.17,12.42-8,3.13-8,3.13a2.88,2.88,0,0,1-1.62,1.38,52,52,0,0,1-9.5.08,2.54,2.54,0,0,1-1-1.25s-6.17-.62-9.83-4.08-5.79-7.25-6.12-11.87-.08-24.58.38-24.75a2.79,2.79,0,0,1,1.17,0s-.25-2.58,0-2.58,3.25-.29,3.29,0-.17,2.58,0,2.63A6,6,0,0,0,16,18.6Z"/><path class="cls-3" d="M22.77,5.89c-.12,0-.29-1.54,0-1.58s3-.21,2.92.08.29,1.42,0,1.5S23,5.85,22.77,5.89Z"/><path class="cls-4" d="M22.1,7.55a23.85,23.85,0,0,1,3.42-.12c-.08.17-.17,7.17.13,7.29s1.92.5,1.92.5L26.27,22.3s-1-1.46-1.17-1.42-.54.29-.42.38S26,23.05,26,23.05l0,1.13-1.08.33a25.44,25.44,0,0,0-2.12-2.87c-.21,0-.79.25-.62.46S24,24.76,24,24.76l-1,.58a19.44,19.44,0,0,0-2.33-2.67c-.25,0-.58.25-.46.46s2.21,2.38,2,2.5-.58.54-.58.54a23.82,23.82,0,0,0-2.46-2.58c-.17.08-.37.83-.37.83l2.25,2.25-.54.46a5.22,5.22,0,0,1-3.54-3.58c-.75-2.87-.62-2.62-.62-2.62S21.85,7.64,22.1,7.55Z"/><path class="cls-5" d="M12.9,18.43s-.42-1.58-.12-1.54,1.46-.29,1.5,0,.13,1.54-.08,1.58A11.35,11.35,0,0,1,12.9,18.43Z"/><path class="cls-3" d="M38.31,5.85s-.12-1,.08-1a5.11,5.11,0,0,1,1.63,0c0,.13.17,1.21,0,1.21S38.31,5.85,38.31,5.85Z"/><path class="cls-4" d="M38.52,7.68l2.33,0,5.67,10.83a23.29,23.29,0,0,0-2.21-1.62c-.12,0-.5.42-.29.54a13.55,13.55,0,0,1,2,1.75c0,.17,0,1.38-.25,1.54s-2.5-2.25-2.62-2.21-.33.54-.33.54a25,25,0,0,1,2.67,2.54A8,8,0,0,1,45,22.89a32.22,32.22,0,0,0-3.08-2.67c-.17.08-.46.46-.37.63s3,2.58,2.88,2.88a3.2,3.2,0,0,1-.67.75,35.23,35.23,0,0,0-3-3.08c-.21,0-.75.58-.46.71a18.78,18.78,0,0,1,3,3l-.62.46s-2.79-3-3-3-.5.67-.33.75S41,25.05,41,25.05a9,9,0,0,0-1.71-.62c-.46,0-.75,0-.75,0L36.6,14.85s2-.54,2-1S38.52,7.68,38.52,7.68Z"/><path class="cls-5" d="M48.81,16.22c0-.13,1.83-.17,1.88.13s.08,1.79-.08,1.83-1.83,0-1.83,0S48.85,16.43,48.81,16.22Z"/><path class="cls-6" d="M12.31,20A14.09,14.09,0,0,1,15,19.93s.13,4.21.92,5.5a24.64,24.64,0,0,0,3,3.38,12.4,12.4,0,0,0-2,4.63,15.61,15.61,0,0,0-.08,3.75s-1.5.67-3,1.46a22.5,22.5,0,0,0-2.21,1.25S12,20.3,12.31,20Z"/><path class="cls-6" d="M47.65,20.14a27.14,27.14,0,0,1,3.75.21c.08.21.58,16.62.67,18.67a12.15,12.15,0,0,1-.12,2.92,13.4,13.4,0,0,0-2.58-1.58,10.93,10.93,0,0,1-1.5-.67s.46-4.75-.46-7.79-1.29-3.5-2.21-4.37a8.56,8.56,0,0,0-1.21-1,10.64,10.64,0,0,0,2.71-3.21A15.17,15.17,0,0,0,47.65,20.14Z"/><path class="cls-4" d="M29.44,14.14c.24-.35,4.92-.21,5.13,0s1.08,5.37,1.08,5.37-1-1-1.12-.87-.29.58-.17.67A9.06,9.06,0,0,1,35.9,20.6l.21,1.08a9.29,9.29,0,0,0-1.37-1.08c-.12,0-.29.75-.12.92a19.93,19.93,0,0,1,1.63,1.63c.08.21.58,2.13.58,2.13s-2-2.46-2.25-2.37-.37.83-.25,1,2.58,2.5,2.63,2.67.33,1.67.33,1.67S34.35,24.85,34.15,25a.92.92,0,0,0-.21.92c.08.38,3.46,3.71,3.63,4.08s.58,2.83.58,2.83S34,27.43,33.77,27.64a1.41,1.41,0,0,0-.17,1.13c.08.13,4.58,5.42,4.67,5.67a5.27,5.27,0,0,1,.13.88L37.27,35s-4.37-5.25-4.54-5.17a1,1,0,0,0-.21.83c.08.17,3.58,4.08,3.33,4.08a4.79,4.79,0,0,1-.87-.08c-.12,0-2.58-2.54-2.71-2.54s-.42.58-.29.83a19.38,19.38,0,0,0,1.5,1.58,20.11,20.11,0,0,0-3.83,0,25.76,25.76,0,0,0-3.62.46S29.1,14.64,29.44,14.14Z"/><path class="cls-4" d="M25.19,26.8c.3-.14-.75,8.29-.75,8.29a20.61,20.61,0,0,0-3.12.75c-1.46.5-3,1-3,1s.17-4.29,1.79-6.5S24.48,27.14,25.19,26.8Z"/><path class="cls-2" d="M22.19,30.14c.24-.12.67.33.54.67s-.92.63-1.21,1.71-.08,1.79-.29,1.79-.62.08-.71,0a4.22,4.22,0,0,1,1.67-4.13Z"/><path class="cls-4" d="M39.06,26.3c.21,0,5,1.08,6.17,5a22.5,22.5,0,0,1,.83,7.58,14,14,0,0,0-3-1.75,26,26,0,0,1-2.46-1Z"/><path class="cls-6" d="M12,41.22c0-.13,10.71-5.54,20.71-4.92S51.6,43.93,51.6,43.93l-1,4S42.1,41,38.35,39.18a15.78,15.78,0,0,0-13.54.54C20.94,42,13.52,47.51,13.52,47.51A12.1,12.1,0,0,1,12,41.22Z"/><path class="cls-2" d="M14.77,40.64A1.92,1.92,0,0,1,17.4,43.1a1.94,1.94,0,0,1-3.54.54A2.51,2.51,0,0,1,14.77,40.64Z"/><path class="cls-3" d="M15.16,41.52a1,1,0,0,1,1.39,1.3,1,1,0,0,1-1.87.29A1.33,1.33,0,0,1,15.16,41.52Z"/><path class="cls-2" d="M49.87,43.47a1.51,1.51,0,0,1-2.32,1.62,1.53,1.53,0,0,1,.16-2.82A2,2,0,0,1,49.87,43.47Z"/><path class="cls-3" d="M49.13,43.63a.8.8,0,0,1-1.23.86A.81.81,0,0,1,48,43,1,1,0,0,1,49.13,43.63Z"/><path class="cls-4" d="M20.19,45.1s5.25-5.79,12.42-5.5,12.13,5.67,12.13,5.67-1.46,1.42-2.83,2.79a10.74,10.74,0,0,1-2.71,2s.13-4.21-.37-5.58-1.87-1.54-3.29-1.54-7.29,0-8,.13-1.5,1-1.58,3a25.13,25.13,0,0,1-.25,4A10.2,10.2,0,0,1,20.19,45.1Z"/><path class="cls-2" d="M22.52,44.72c.13,0,.54,1.21,1,1.83s1.17.83,1.29,1a.79.79,0,0,1-.12.75,4.66,4.66,0,0,1-2.21-1.29c-.58-.67-1.21-1.54-1-1.83A1.53,1.53,0,0,1,22.52,44.72Z"/><path class="cls-6" d="M18.48,46.3a37.2,37.2,0,0,0,3.29,3.54,10.67,10.67,0,0,0,3.88,2s0,5.13-.29,5.17a15.34,15.34,0,0,1-6.83-3,16.28,16.28,0,0,1-4-4.79A42.38,42.38,0,0,1,18.48,46.3Z"/><path class="cls-2" d="M18.56,49.05c.19,0,.42.33.38.58a6.2,6.2,0,0,1-1.54,1.58c-.21,0-.67-.17-.54-.46A7.37,7.37,0,0,1,18.56,49.05Z"/><path class="cls-2" d="M20,50.93c.15-.08.75.33.67.54a9.13,9.13,0,0,1-1.58,1.88c-.12-.08-.62-.21-.5-.42A18.85,18.85,0,0,1,20,50.93Z"/><path class="cls-2" d="M22,52.51c.15-.22.88.13.71.46a10.29,10.29,0,0,1-1.21,1.92c-.12,0-.62,0-.54-.25S21.94,52.64,22,52.51Z"/><path class="cls-4" d="M27.85,44.64c.43-.43,8.83-.08,9.13.25s.21,13.38-.08,13.46-8.71.33-9.08-.12S27.69,44.8,27.85,44.64Z"/><path class="cls-2" d="M30.6,46.47a2.91,2.91,0,0,1,4.46,1.33c.88,2.46-1.25,4-3.33,3.67A2.83,2.83,0,0,1,30.6,46.47Z"/><path class="cls-5" d="M31.34,47.41a1.7,1.7,0,0,1,2.6.78A1.61,1.61,0,0,1,32,50.32,1.65,1.65,0,0,1,31.34,47.41Z"/><path class="cls-2" d="M31.11,53.91a2.07,2.07,0,0,1,3.18,1,2,2,0,0,1-2.38,2.62A2,2,0,0,1,31.11,53.91Z"/><path class="cls-7" d="M31.64,54.58a1.21,1.21,0,0,1,1.85.55,1.15,1.15,0,0,1-1.39,1.53A1.18,1.18,0,0,1,31.64,54.58Z"/><path class="cls-6" d="M39.06,51.6a14.66,14.66,0,0,0,4-2.42c2.13-1.75,2.92-2.67,3-2.71s3.54,2.79,3.58,3.21-2,3.58-4.71,5.17a22.65,22.65,0,0,1-5.67,2.54A33.73,33.73,0,0,1,39.06,51.6Z"/><path class="cls-2" d="M40.15,52.6a.5.5,0,0,1,.63-.29c.25.13,1.63,2,1.38,2.38a1.25,1.25,0,0,1-1,.42A13.19,13.19,0,0,1,40.15,52.6Z"/><path class="cls-2" d="M42.56,51.51c0-.17.33-.33.5-.33s1.63,1.58,1.38,1.83a4.67,4.67,0,0,1-.75.54S42.6,51.72,42.56,51.51Z"/><path class="cls-2" d="M44.81,49.55c0-.21.46-.5.58-.42s1.79,1.92,1.63,2.25a.83.83,0,0,1-.58.54C46.15,52,44.81,49.8,44.81,49.55Z"/><path class="cls-2" d="M22.66,9.35c.13-.09.63.09.63.25a23.35,23.35,0,0,1-1.34,3.16c-.16.09-1,0-1-.12A27.24,27.24,0,0,1,22.66,9.35Z"/></g></svg>