<svg id="Layer_1" data-name="Layer 1" xmlns="http://www.w3.org/2000/svg" width="64" height="64" viewBox="0 0 64 64"><defs><style>.cls-1{fill:#fff;}.cls-2{fill:#1d1d1b;}.cls-3{fill:#cbe7f5;}.cls-4{fill:#fab900;}.cls-5{fill:#85bfe9;}.cls-6{fill:#b2b2b3;}</style></defs><title>sputnick-1</title><g id="sputnick-1"><path class="cls-1" d="M31.53,56A2.37,2.37,0,0,1,29.7,55a2,2,0,0,1-.2-1.8,29.8,29.8,0,0,1,1.58-2.81c.67-1.16,1.68-2.92,2.18-3.83a2.66,2.66,0,0,1,.12-1.48c.16-.42,2.1-4.08,4.07-7.75A9.35,9.35,0,0,1,36,36.94a9.57,9.57,0,0,1-1.35-.62c-8.09,8.84-8.18,8.86-9,9h-.1c-9.54,10-9.58,10-10.51,10h0l-.24,0A2.93,2.93,0,0,1,13,53.87a1.86,1.86,0,0,1-.15-1.66c.12-.29.12-.29,3.58-4.74,1.47-1.88,3.34-4.29,4.31-5.56a1.9,1.9,0,0,1-.08-1.8c.29-.59,4.58-5.87,5.88-7.25.44-.46.81-.89,1.13-1.25-7.51,7.24-7.55,7.25-8.15,7.37a2,2,0,0,1-.36,0h0c-6.84,6.56-7,6.56-7.83,6.56H11.1A3,3,0,0,1,8.86,44a1.87,1.87,0,0,1,.25-1.8c0-.05.15-.19,6-6.65a2,2,0,0,1,.08-1.38c.18-.41.22-.49,5.13-5.43l1.77-1.79c.75-.77,1.68-1.68,2.28-2.26a16.48,16.48,0,0,1,.21-4.62,13.49,13.49,0,0,1,1.3-3.64,4.31,4.31,0,0,1,.1-2.25,11.33,11.33,0,0,1,3.41-4A10.08,10.08,0,0,1,34,8.33h.18a2.46,2.46,0,0,1,1,.32,21.53,21.53,0,0,1,5.3-.7,13.1,13.1,0,0,1,7.73,2.22c5.35,3.79,7.06,6.73,7.06,12.14A16.39,16.39,0,0,1,52,31.49a6,6,0,0,1-.67,2.85,10.53,10.53,0,0,1-4.09,3.16,5.13,5.13,0,0,1-1.77.37,2.46,2.46,0,0,1-1.18-.27l-.13-.05C42.8,40.31,39.3,47.62,38.32,48.9l0,0c-.14.16-.78,1-1.34,1.7C32.89,55.89,32.68,56,31.66,56h-.13Z"/><path class="cls-2" d="M27.69,16.72a4.66,4.66,0,0,1-.12-1.91,9.68,9.68,0,0,1,2.81-3.28A8.63,8.63,0,0,1,34,10a1.55,1.55,0,0,1,.78.5s7.37-2.53,12.41,1,6.34,6.06,6.34,10.75-3.31,8.59-3.31,8.59a6.08,6.08,0,0,1-.41,2.53A9.06,9.06,0,0,1,46.6,35.9c-1,.38-1.47.25-1.56.19s-1-.37-1-.37-.84-.28-1,.06S37.41,47.5,37.13,47.72s-5.06,6.66-5.47,6.63S31,54,31.1,53.78s4.09-7.06,4-7.16a1,1,0,0,1-.16-1c.19-.5,5.16-9.75,5.16-9.75a16.71,16.71,0,0,1-3.56-.56,9,9,0,0,1-2.22-1.22s-8.62,9.44-8.87,9.47a.69.69,0,0,1-.47-.16s-9.72,10.16-9.94,10.13-.72-.56-.66-.72S22.81,42.06,22.78,42s-.72-.91-.62-1.09,4-5.19,5.59-6.84a29.78,29.78,0,0,0,2.41-2.84,16.89,16.89,0,0,1-1.41-1.53,7.15,7.15,0,0,1-.59-.91s-8.84,8.53-9,8.56-.5-.22-.5-.22-7.09,6.81-7.37,6.78-1-.47-.84-.62,6.72-7.44,6.72-7.44-.53-.69-.41-1,5.38-5.5,6.56-6.72,2.84-2.81,2.84-2.81a15.43,15.43,0,0,1,.09-4.91A10.56,10.56,0,0,1,27.69,16.72Z"/><path class="cls-3" d="M29.31,15.12a6,6,0,0,1,2-2.06,9,9,0,0,1,2-1,16.09,16.09,0,0,0,3.16,8.81c3.19,4.31,6.78,8,8.63,8.69s4.19,1,4.09,1.16a9.28,9.28,0,0,1-2,2.56,3.76,3.76,0,0,1-2.31.88A57.69,57.69,0,0,1,37,27.72C32.88,23.72,30.19,18.87,29.31,15.12Z"/><path class="cls-4" d="M35.41,12.06a12.35,12.35,0,0,1,10,.47c5.19,2.5,6.28,8.81,6.28,8.81s-1.22-1.5-1.44-1.44-.44.41-.34.5a18.63,18.63,0,0,1,1.75,2c.06.25,0,1,.06,1.41a3.77,3.77,0,0,1-.06.88,32.18,32.18,0,0,0-2.62-3c-.22,0-.59.47-.44.59a29.81,29.81,0,0,1,2.84,3.16A5.37,5.37,0,0,1,50.72,27c-.12,0-2.69-3.81-2.84-3.87s-.72.38-.66.5,3,3.84,3,4.13-.66.69-.75.72-2.66-4.12-2.84-4.19-.72.25-.66.44,3,3.94,2.81,4.09A1.7,1.7,0,0,1,48,29s-2.66-4-2.84-4-.94.56-.75.72,2.56,3,2.28,3a24.54,24.54,0,0,1-6.66-5.94C37.53,19.44,35,14.19,35.41,12.06Z"/><path class="cls-5" d="M28.63,18.44a26.46,26.46,0,0,0,6.75,9.66c5.06,4.72,6.66,6,6.56,6.09a13.27,13.27,0,0,1-3.69,0,6.53,6.53,0,0,1-3.06-.87s1.16-1.09,1.06-1.19-.91-.78-.91-.78-10.09,11.09-10.25,11-1.84-1.28-1.75-1.44S33.41,29,33.31,28.81s-.56-.72-.66-.62-1.25,1.53-1.25,1.53a14.61,14.61,0,0,1-3-4.53C27.47,22.75,28.1,18.62,28.63,18.44Z"/><path class="cls-2" d="M32.19,15.84c-1,.28-1.78,1.84-1,2.59a1.5,1.5,0,0,0,2.59-.78C34,16.15,33.12,15.57,32.19,15.84Zm.58,1.6a.46.46,0,0,1-.79.24c-.23-.23,0-.71.32-.79S32.85,17,32.77,17.44Zm2.48,4.21a1.34,1.34,0,0,0-.87,2.25c.59.69,2.09.94,2.31-.56S35.88,21.58,35.25,21.65ZM35,23.53c-.37-.19-.19-.94.25-1a.54.54,0,0,1,.59.59A.58.58,0,0,1,35,23.53Zm4.06,2.75c-1.31.31-1,1.72-.25,2.34a1,1,0,0,0,1.69-1A1.39,1.39,0,0,0,39.1,26.28Zm.66,1.56c-.16.19-.44.13-.62-.06s-.22-.72.19-.66C39.51,27.15,39.91,27.65,39.75,27.84Zm4.72,2.69a1,1,0,0,0-1,1.44,1.17,1.17,0,0,0,1.84.16C45.85,31.56,45.34,30.58,44.47,30.53ZM39.85,13a9,9,0,0,0-2.62.63c-.09.09.16.88.34.91s.59-.31,2-.66a5.82,5.82,0,0,1,2.78.09,4.73,4.73,0,0,0,0-.91C42.22,12.9,41.35,12.87,39.85,13ZM29.6,22c-.09-.16-.87,0-.94.13a4,4,0,0,0,0,1.72,8.34,8.34,0,0,0,1,2.09c.09.13.88-.28,1-.53S30.44,25,30,24.06A5.11,5.11,0,0,1,29.6,22Z"/><path class="cls-5" d="M26.63,26.44a3.13,3.13,0,0,1,.84,1.44c-.12.06-8.31,8.41-8.5,8.34s-1.31-1-1.19-1.22S26.38,26.5,26.63,26.44Z"/><path class="cls-6" d="M23.35,42.69l.47.44s-4.56,5.31-4.69,5.28S23.28,42.75,23.35,42.69Z"/><path class="cls-5" d="M41.25,36c0-.15.69,0,.69,0S37,46.4,36.78,46.4s-.78-.22-.78-.34S41.22,36.09,41.25,36Z"/><path class="cls-6" d="M35.69,47.4c.22,0,.47.13.38.19s-1.44,1.78-1.53,1.78A21.5,21.5,0,0,1,35.69,47.4Z"/></g></svg>