<svg id="Layer_1" data-name="Layer 1" xmlns="http://www.w3.org/2000/svg" width="64" height="64" viewBox="0 0 64 64"><defs><style>.cls-1{fill:#fff;}.cls-2{fill:#1d1d1b;}.cls-3{fill:#fab900;}.cls-4{fill:#cbe7f5;}.cls-5{fill:#85bfe9;}.cls-6{fill:#b2b2b3;}</style></defs><title>sputnick-2</title><g id="sputnick-2"><path class="cls-1" d="M47.78,59.61A2,2,0,0,1,46.3,59c-.33-.33-.57-.57-5.7-15a3,3,0,0,1-1.85-1.76L37.32,39l-.62.12-.41.07c.17,2.9.1,3.42-.48,3.92.54,12.9.53,12.92,0,13.55s-1.31.76-3,.76a7.22,7.22,0,0,1-1.76-.11c-1.51-.38-1.51-.38-1.77-11.79,0-1,0-1.92-.06-2.58a2.23,2.23,0,0,1-.64-.61,12,12,0,0,1-.84,1.59A3.09,3.09,0,0,1,26.15,45C21.5,58,21.3,58.14,20.59,58.52a2,2,0,0,1-1,.24s-4.54-.28-5-2.33c-.11-.57-.15-.76,4.4-13.81a2.59,2.59,0,0,1-.7-2.09c.05-.36.31-2.72.53-4.69a11,11,0,0,1-3.53-3.64c-.41-.74-.73-1.35-.95-1.87-1.22-.45-2.8-1.33-3.05-2.89,0-.06-.86-6,.33-7.45a3.1,3.1,0,0,1,2.19-1A19.1,19.1,0,0,1,24,6.61a21.83,21.83,0,0,1,9.08-2.22A16.8,16.8,0,0,1,45,9.56a17.07,17.07,0,0,1,5,8.95,2,2,0,0,1,1.24.57A7.15,7.15,0,0,1,53,24.22c0,3-1.06,4.86-2,5.51a7.8,7.8,0,0,1-2.29.94,11.68,11.68,0,0,1-.58,1.19,10,10,0,0,1-.87,1.31c2.47,7.16,2.36,7.53,2.2,8.08A2.43,2.43,0,0,1,48,42.74c4.91,13.5,4.71,13.95,4.39,14.66C51.72,59,48.4,59.61,47.78,59.61Z"/><path class="cls-2" d="M15.25,20.59s1.37-8.69,9.5-12.44,14.18-2.09,19.06,2.62a14.7,14.7,0,0,1,4.69,9.81s1.19-.62,1.5-.31a5.53,5.53,0,0,1,1.25,3.94c0,2.44-.81,3.81-1.25,4.13a17.29,17.29,0,0,1-2.62.94A6.9,6.9,0,0,1,46.62,31a7.42,7.42,0,0,1-1.31,1.75s2.63,7.56,2.5,8-1.94,1-1.94,1,5.25,14.38,5,14.94-3.06,1.44-3.37,1.13S41.81,42.4,41.81,42.4a1.12,1.12,0,0,1-1.5-.75l-2-4.72a11.46,11.46,0,0,1-1.91.47l-1.91.34s.25,4,.12,4.09a1.67,1.67,0,0,1-.56.13s.56,13.44.44,13.59a12,12,0,0,1-3,.06c-.37-.09-.5-13.59-.59-13.72s-.87-.44-.87-.56,0-3.47-.09-3.53a9.16,9.16,0,0,0-1.16-.16s-1.94,4.63-2.37,5.22a2.12,2.12,0,0,1-1.5.59S20.12,56.84,19.78,57s-3.41-.62-3.47-.94,4.72-14,4.72-14-1.09-.69-1-1.31.66-5.84.66-5.84a10.3,10.3,0,0,1-3.84-3.56C15.62,29.15,15.78,29,15.78,29s-2.56-.66-2.75-1.81-.47-5.56,0-6.09S15.25,20.59,15.25,20.59Z"/><path class="cls-3" d="M16.5,20.56s2.31-6.12,5.91-9a15.54,15.54,0,0,1,12.28-3.5,15,15,0,0,1,9.47,6.12c1.66,2.59,2.5,7.09,2.25,7.28a1.62,1.62,0,0,1-.59.25s-3.19-6.19-3.41-6.16-.87.38-.66.66a65.37,65.37,0,0,1,3.37,5.81,9,9,0,0,1-1.09.31s-2.53-4.25-2.75-4.31-.56.25-.5.41,2.63,4.16,2.41,4.22-1.34.25-1.34.25S39.94,20,39.81,20s-.75.41-.69.59,2.25,2.44,2,2.56a16.59,16.59,0,0,1-1.78.41,17.65,17.65,0,0,0-1.09-1.94c-.12,0-.87.38-.81.47a10.75,10.75,0,0,1,1,1.72c-.09.06-2.56.72-9,.41s-9.22-1-11-1.78S16.5,20.56,16.5,20.56Z"/><path class="cls-4" d="M14.56,22.47c.18-.12,2.22,1.56,5.47,2.19a37.49,37.49,0,0,0,11.59,1.16A52,52,0,0,0,44.5,24c1.91-.66,4.19-1.94,4.47-1.5a5.57,5.57,0,0,1,.22,2.81,4.52,4.52,0,0,1-1.09,2.31c-.12.16-9.09,2.75-14.87,2.78s-12.41-.66-15.53-2.12-3.09-1.47-3.12-1.69S14.28,22.65,14.56,22.47Z"/><path class="cls-2" d="M24.84,26.09A1.48,1.48,0,0,0,24,28.65a1.61,1.61,0,0,0,2.56-.5C27,27.19,26,26.07,24.84,26.09Zm.88,1.75a.71.71,0,0,1-1.13.22A.65.65,0,0,1,25,26.93C25.48,26.92,25.94,27.41,25.72,27.84Z"/><path class="cls-2" d="M17.81,24.56a1.48,1.48,0,0,0-.87,2.56,1.61,1.61,0,0,0,2.56-.5C20,25.65,18.94,24.54,17.81,24.56Zm.88,1.75a.71.71,0,0,1-1.13.22.65.65,0,0,1,.39-1.13C18.44,25.39,18.91,25.88,18.69,26.31Z"/><path class="cls-2" d="M34.08,27.09a1.48,1.48,0,0,0-2.69.34A1.61,1.61,0,0,0,33,29.51C34.06,29.54,34.6,28.09,34.08,27.09Zm-1.19,1.56a.71.71,0,0,1-.69-.92.65.65,0,0,1,1.19-.15C33.61,28,33.37,28.66,32.89,28.65Z"/><path class="cls-2" d="M40.53,26.23a1.48,1.48,0,0,0-2.56.89,1.61,1.61,0,0,0,2,1.71C41,28.62,41.24,27.1,40.53,26.23ZM39.69,28a.71.71,0,0,1-.87-.76.65.65,0,0,1,1.13-.39C40.26,27.23,40.16,27.91,39.69,28Z"/><path class="cls-2" d="M44.44,25.71A1.48,1.48,0,0,0,46.8,27a1.61,1.61,0,0,0,0-2.61C45.92,23.76,44.62,24.6,44.44,25.71Zm1.88-.54a.71.71,0,0,1,0,1.15.65.65,0,0,1-1-.59C45.37,25.24,45.94,24.87,46.32,25.17Z"/><path class="cls-5" d="M18.12,29.87c0-.08,2.56,1.91,8.66,2s8.41.16,12.69-.62a40.66,40.66,0,0,0,6.13-1.47L43.5,32.9c-.19.28,1.09,2.78,1,2.78s-1.44-.75-1.56-.53-.34.66-.19.75,1.81.69,1.94.75a2.89,2.89,0,0,1,.41.72s-2.22-.72-2.31-.69-.19.81,0,.88a19,19,0,0,1,2.47.75c.09.16.34.53.22.56a19.46,19.46,0,0,0-2.53-.56c-.09.16-.16.53,0,.66s2.47.59,2.41.78a27.1,27.1,0,0,1-3.56.91s-3-7.16-3.25-7.28-1.53.34-1.47.5.56,1.19.56,1.31a14,14,0,0,1-4.34.94c-2,.13-4.12.22-4.12.22s.47-1,.34-1.12-1.5-.66-1.62-.47-2.06,6.63-2.47,6.69A6.71,6.71,0,0,1,23.06,41a3.41,3.41,0,0,1-1.25-.66c0-.09,1.5-7.56,1.38-7.75s-1.59-.81-1.72-.56S21,33.25,21,33.25A8.16,8.16,0,0,1,18.12,29.87Z"/><path class="cls-6" d="M22.56,42.87c.19,0,.94.25.91.34s-4.69,12.66-4.81,12.66a8.15,8.15,0,0,1-.81-.19S22.37,42.84,22.56,42.87Z"/><path class="cls-5" d="M31.66,37.72c.08-.24,1.34-.12,1.44.09s0,3.28,0,3.28-1.37.13-1.41,0S31.62,37.81,31.66,37.72Z"/><path class="cls-6" d="M32.44,42.47l.31,0s.62,9.63.5,9.75-.56.06-.56.06S32.44,42.56,32.44,42.47Z"/><path class="cls-6" d="M43.41,42c.16-.08.72-.47.84-.34s4.78,12.84,4.66,13a1.39,1.39,0,0,1-.81.22C48,54.75,43.34,42,43.41,42Z"/><path class="cls-2" d="M18.31,20.15A12.09,12.09,0,0,1,20,16.37a14.22,14.22,0,0,1,2.66-3.22c.19,0,.84.88.72.91a9.25,9.25,0,0,0-2.78,3.19c-1,1.91-1.34,3.28-1.47,3.31A2.1,2.1,0,0,1,18.31,20.15Z"/></g></svg>