<svg id="Layer_1" data-name="Layer 1" xmlns="http://www.w3.org/2000/svg" width="64" height="64" viewBox="0 0 64 64"><defs><style>.cls-1{fill:#fff;}.cls-2{fill:#1d1d1b;}.cls-3{fill:#e7413e;}.cls-4{fill:#a42116;}.cls-5{fill:#f2910d;}</style></defs><title>venus</title><g id="venus"><path class="cls-1" d="M30.61,60.53c-5.21,0-9.87-1.08-13.11-3C11.57,53.9,8,50.07,4.3,43.35c-4-7.23-3-13.68-1.48-20.2S11.46,10.65,14.69,8.78a43.5,43.5,0,0,1,16.4-5.22c.68-.06,1.39-.08,2.11-.08a34,34,0,0,1,16,4.25c8.14,4.35,10.94,11.07,12.45,14.69l.13.32c1.73,4.15.36,16.17-4.53,22.59-.94,1.23-1.71,2.35-2.46,3.44-2.93,4.24-5.25,7.59-12.55,10A38.18,38.18,0,0,1,30.61,60.53Z"/><path class="cls-2" d="M31.23,5.25a31.21,31.21,0,0,1,17.16,4c7.84,4.19,10.38,10.72,11.81,14.16s.38,14.75-4.31,20.91S50.2,54.35,41.7,57.1,23.61,59.19,18.39,56,9.61,49.47,5.79,42.53s-2.62-13.25-1.31-19S12.36,12.1,15.54,10.25A41.9,41.9,0,0,1,31.23,5.25Z"/><path class="cls-3" d="M31.73,7.22c6.13-.37,10.06.94,14.34,2.63s6.56,4.81,8.69,7.25,2.16,3.63,2.16,3.63-2.06-.78-3.19.13-2.22,2-2.22,1.88A24.84,24.84,0,0,1,51,19.1,8.9,8.9,0,0,0,50.51,16a9.71,9.71,0,0,0-.91-1.47c-.34-.53-.34-.84-.75-1s-1.12.16-1,.44,1.19,1.88,1.06,2.41-1.37,1.91-1.47,2.44a2,2,0,0,0,0,1.22,9.14,9.14,0,0,1,.59,3.06c-.09.94.13,1-.12,1s-.56.22-.78,0-.31-2.41-1.12-3.53-3.31-2.09-4-2.22a1.55,1.55,0,0,0-1.37.22,1.66,1.66,0,0,0-.28.78s.56.59.91.41a1.09,1.09,0,0,1,1.06-.16c.56.16,1.66.69,1.59,1s-.06.44-.22.44-1.94-.69-2.25-.5-.53,1.16-.09,1.25,3.44.72,3.63,1.22a1.87,1.87,0,0,1-.53,2.19c-.84.53-1,.91-3.56-.41S38,23.13,36.29,23.19a16.06,16.06,0,0,1-2.47.09c-.47-.09-3.34-3-3.75-2.78s-.78.66-.62.91S32,23.91,32,24.25s-.84,3.16.19,3.84,3.41,1.41,3.66,2.16a1.2,1.2,0,0,1-.16,1.19,16.88,16.88,0,0,1-3.66.88c-.91-.06-2.94-1.44-5.81-.53a24.71,24.71,0,0,1-7.41,1.5c-2.28,0-4.62-1.22-6.84-1.22a9.09,9.09,0,0,0-4.16.69c-.84.41-2.19,1.59-2.47,1.34s-.72-5.66,1.09-10.31,6.91-10.34,10.47-12.34A33.09,33.09,0,0,1,31.73,7.22Z"/><path class="cls-2" d="M38.51,9.91a9.63,9.63,0,0,1,3.72.5c.19.22.66.47.19.56a22,22,0,0,1-3.84-.12C38.29,10.72,38.2,10.06,38.51,9.91Z"/><path class="cls-2" d="M38.61,15.22c.11,0,1.5-.37,2.34-.56s1.44-.09,1.47.09.37.34-.25.53a21.29,21.29,0,0,1-3.41.84C38.61,16,38.48,15.25,38.61,15.22Z"/><path class="cls-2" d="M32.17,11.85c1-.1,3.66,1.28,3.47,2.44a4.88,4.88,0,0,1-4,3.06c-1.62-.06-3.34-.37-3.81-1.81S28.45,12.19,32.17,11.85Z"/><path class="cls-4" d="M32.11,12.63c1.13,0,2.75,1,2.47,1.75a4.57,4.57,0,0,1-2.91,2.09c-.91,0-3-.09-2.87-1.44S30,12.63,32.11,12.63Z"/><path class="cls-2" d="M35.54,18.94c.45-.15,2.5,0,2.53.41s.34.63-.16.72A7.67,7.67,0,0,1,35.17,20,1.93,1.93,0,0,1,35.54,18.94Z"/><path class="cls-2" d="M24.51,11c-.06-.09.69-.5,1.69-.72s1.41-.25,1.47-.09.22.38,0,.5a5.75,5.75,0,0,0-1.59.5c-.59.41-.56.53-.87.59S24.58,11.13,24.51,11Z"/><path class="cls-2" d="M19.48,14.31a6.12,6.12,0,0,1,4.72-.66,3,3,0,0,1,1.31,3.19,1.68,1.68,0,0,1-1.37,1.34c-.5.09-2.94.78-4.53.06S17.26,16,19.48,14.31Z"/><path class="cls-4" d="M20.23,14.75c.45-.29,2.78-.94,3.44-.53s1.34,1.63,1.06,2.25-1.28,1.06-2.66,1.09-2.66,0-2.78-.78A2,2,0,0,1,20.23,14.75Z"/><path class="cls-2" d="M20.45,22c.95-.3,3.47-.12,4.28,1.63A2.34,2.34,0,0,1,23.42,27c-1,.5-3.69,1.19-5.12-.72S17.33,23,20.45,22Z"/><path class="cls-4" d="M20.36,22.81a3.68,3.68,0,0,1,3.31.88c1,1,.34,2.09-.75,2.59s-2.94.81-3.78-.62S18.7,23.25,20.36,22.81Z"/><path class="cls-2" d="M26.92,20.31c.29-.06,1,.13.84.63a.8.8,0,0,1-1.31.28C26.11,20.78,26.61,20.38,26.92,20.31Z"/><path class="cls-2" d="M27.83,23.81c.48-.16,2,0,2,.19s.13.41-.16.53a3.56,3.56,0,0,1-1.59.13C27.86,24.53,27.73,23.85,27.83,23.81Z"/><path class="cls-2" d="M25.7,29.88c.31-.1,1.28-.37,1.38-.12s.22.44,0,.63-1.19.47-1.31.34S25.51,29.94,25.7,29.88Z"/><path class="cls-2" d="M17.17,29.19a5.54,5.54,0,0,1,2.09.22c.72.25,1.09.5.94.69s-.06.38-.37.28a2.35,2.35,0,0,0-1.37-.25c-.66.13-.78.34-1.19.25S16.86,29.28,17.17,29.19Z"/><path class="cls-2" d="M9.58,29c.08-.19,1.78-1.28,2.31-1.06a8.63,8.63,0,0,0,1.59.53c.41.06.94,0,.78.25s0,.72-.53.75-1.78-.62-2.09-.56-1.12,1-1.53,1S9.48,29.25,9.58,29Z"/><path class="cls-2" d="M11.79,23.25c.19-.28,2.06-1,2.31-.78s.38.47.19.69a5.91,5.91,0,0,1-2.12.72C12,23.78,11.73,23.35,11.79,23.25Z"/><path class="cls-5" d="M5.7,35.66c0-.18,2.72-2.75,5.41-2.31s5.12,2,8.31,1.38,6.78-2.12,9-1.72,2.94,1.09,4,.81.84-.53,1.66-.59a6.76,6.76,0,0,0,2.19-.28,2.34,2.34,0,0,0,1.19-1.78,6.74,6.74,0,0,0-1.09-2.28c-.31-.16-1.5-1-1.84-1.16s-1.34-.31-1.37-.75-.31-1.69.25-1.91,3.69-.53,4.69.19,2.31,2,4.06,2a6.74,6.74,0,0,0,3.66-.81c.59-.41.81-1.31,1.09-1.31s1.91-.06,2.09-.31a7.81,7.81,0,0,0-.06-3.28c-.28-.59-.69-1.56-.37-2.09s.78-1.87,1.12-1.81.59.59.56,1.22a39.84,39.84,0,0,0,.25,4.59c.16.81,0,.88.34,1s1-.44,1-.44,1-1.16,1.63-1.28a4.29,4.29,0,0,1,1.5.09s-1,1.16-.87,1.69.72,1.28.19,1.75S52,28.28,52.17,29a21,21,0,0,0,1.09,3.34c.25.47.22.63,1.06.53s1.09-.62,1.5-.5a1.89,1.89,0,0,0,1.25.06c.47-.16,1.53,0,1.53.19s-.81,2.66-.81,2.66a9.28,9.28,0,0,0-3.25-.37c-1.59.16-.94.53-2.22.06s-2.78-1.75-3.41-1.78a1.85,1.85,0,0,0-1.47.63,9.72,9.72,0,0,0,1.22,2.59c.37.59.56.84,1.25.94s1,0,1.31.47A24.11,24.11,0,0,1,53.14,42c-.09.25.09.41-.31.28S50.11,40.19,48,39.75a17.21,17.21,0,0,1-3.47-.84c-.25-.19-.56-.37-.53-.53s.22-1.69,0-1.87a2.68,2.68,0,0,0-.87-.31s-.28,1.63-.47,1.5-.41,0-.41-.28-.34-1.31-.19-1.59.41-.22.28-.53-.87-.84-.87-.84a11.6,11.6,0,0,1-3.06.75c-1.34.06-2.53.13-2.56.47A8.35,8.35,0,0,1,34.7,39.1c-.87,1.38-.31,1.47-1.16,1.56s-4.12-.41-4.37,0A10.62,10.62,0,0,0,29,43.47c0,.5.22,3.56-.31,4.13s-.41.72-1,.78-4-.41-5.31,0-2.87,1.09-3.12,1.72.09,1.72.56,2.94A10.42,10.42,0,0,0,21,55.13s-2.81-1.56-3.47-2-1-.72-1-1-.5-4.37.91-6,4.09-.25,5.53-2.12,2.72-5.34,3.25-5.22.34.38.69.22.91-.47.81-.59-.44-.91-.59-1.22a8.28,8.28,0,0,0-.41-1,1.73,1.73,0,0,0-1.22-.09,16.62,16.62,0,0,1-4.5,1.5c-2.59.5-3.62.34-4.37.06s-2.09-1.44-3.69-1.37-1.75,1-3.19,1.84S7,39.85,6.76,39.63A7.23,7.23,0,0,1,5.7,35.66Z"/><path class="cls-3" d="M58.54,31.31c-.25,0-1.62,0-2.44.06s-1.31.31-1.66,0a7.79,7.79,0,0,1-.94-2.56c0-.25,2-1.69,1.94-2.37s-.41-1.81-.09-1.94,1.31-.34,1.34-.78.22-.72-.09-.87-1-.28-1-.44-.06-.37.19-.37,1.31-.37,1.72-.09,1.19,1.69,1.25,4.31A38.68,38.68,0,0,1,58.54,31.31Z"/><path class="cls-3" d="M52.79,37a23.73,23.73,0,0,1,3.84-.22c.44,0,.72.13.69.22a17.37,17.37,0,0,1-2.75,6.38C52.64,45.78,50,50.1,48,51.78a23,23,0,0,1-4.37,2.78A35.6,35.6,0,0,0,41,51.31c-.25-.06-1.12.19-1,.34s2.81,3.16,2.62,3.31a3.12,3.12,0,0,1-1.25.47,32.38,32.38,0,0,0-2-2.87c-.22-.09-1,0-.84.25s2,2.78,1.84,2.94a12.42,12.42,0,0,1-1.91.56,11.53,11.53,0,0,1-1-2.62c-.22-1.16-.37-2.12.56-2.87s2.59-1.75,2.06-3.66-1.19-3-.91-3.81S41,40.81,41.33,41s.19,1.53.75,2.19a8.72,8.72,0,0,0,1.69,1.34s.5,2.81,1.09,3.53,1,.69,1.34,1.28.41,1.09.81,1,.5-.25.44-.44-.53-1.16-.34-1.22.81.63,1.06.47.75-.62.66-.72-.81-.84-1.12-.91l-.94-.19s-.91-2-1.34-2.87A10.46,10.46,0,0,0,44,42.66c-.41-.56-1.06-2.5-.72-2.56s1.34.94,2.5,1a4.86,4.86,0,0,1,3.31,1.22,6.35,6.35,0,0,0,3.5,1.47,6.42,6.42,0,0,0,1.69-1.41,1.19,1.19,0,0,0,.41-1.22C54.54,40.78,52.76,37.19,52.79,37Z"/><path class="cls-3" d="M23,55.78s-2.25-4-2.06-4.5a3,3,0,0,1,3.31-1.47c2,.41,4.22.91,5.41-.66s.94-3.44,1-4.06-.06-2.78.44-2.81,3.41-.12,4-.69a14.22,14.22,0,0,0,1.91-3c.13-.37.41-1.75.66-1.78a10,10,0,0,1,2.38,0c0,.16,1.06.81-.12,2.28s-2.06,2.19-2.41,3,.38,3.69.5,4.75.56,1.53-.12,2.13-2.5,1.66-2.34,3.69,1.25,3.72,1.13,4-4.44,1.09-7.91.44S23,55.78,23,55.78Z"/><path class="cls-2" d="M24.45,52.88l1.75.22a13.25,13.25,0,0,1,1.53.13c.09.09.38.59.19.75a12.37,12.37,0,0,1-3.34-.19C24.23,53.63,24.36,53,24.45,52.88Z"/><path class="cls-2" d="M28,51.5a2.26,2.26,0,0,1,2.13-.41c1.09.44,1.19.94,1.88.94s.72,0,.84.22.5.75.19.81a3.28,3.28,0,0,1-1.25-.19c-.25-.09-1.34-.84-2-.78s-1.19.28-1.34.22S28,51.5,28,51.5Z"/><path class="cls-2" d="M31.58,48.13a7.48,7.48,0,0,1,2.53-.69c.13.19.28.13.13.41a6,6,0,0,1-2.63,1.09C31.39,48.75,31.58,48.22,31.58,48.13Z"/><path class="cls-2" d="M32.48,43.31s2.25-.12,2.53-.19.28.53.22.63a5.13,5.13,0,0,1-1.59.31c-.31,0-1.22-.25-1.22-.25Z"/><path class="cls-2" d="M42.54,48.81c.09.09,3.41,3.25,3.16,3.53a1.13,1.13,0,0,1-.56.34s-3.06-2.78-3.06-3.16S42.54,48.81,42.54,48.81Z"/><path class="cls-2" d="M39.23,28.75a1.48,1.48,0,0,1,1.16,0c.5.28.91,1.56,1.56,1.38s.69-.75,1.47-.53a5.5,5.5,0,0,1,1.94.84c-.06.13,0,.31-.28.34s-1.94-.59-2.16-.44-.06.34-.91.34a1.74,1.74,0,0,1-1.59-.75c-.19-.37-.28-.87-.59-.81A.55.55,0,0,1,39.23,28.75Z"/><path class="cls-2" d="M46.83,30.1c0-.38,1.25-.22,1.34.13s0,.56-.28.66-.66.28-.94,0S46.83,30.16,46.83,30.1Z"/><path class="cls-2" d="M48.2,27.5c0-.17,1-2,1.25-2s.81.22.69.59-1,1.78-1.28,1.78S48.26,27.81,48.2,27.5Z"/><path class="cls-3" d="M7.58,41c.16-.4,2.84-1.62,3.25-1.91s1.47-1.53,2.16-1.12a8.86,8.86,0,0,0,5.22,1.53c2.44-.22,5.91-1.37,6-1.12a16.66,16.66,0,0,1-2.59,4.81c-.66.44-3.69.47-4.72,1.63a7.55,7.55,0,0,0-1.53,4.28c0,1.13,0,2.28,0,2.28a55,55,0,0,1-5-5.28C7.79,43,7.51,41.13,7.58,41Z"/><path class="cls-2" d="M10.48,41.56c-.12-.35,1.22-1.37,1.47-1.28a4,4,0,0,0,1.53.66c.69,0,1.81-.25,1.94,0s.16.5,0,.59a3.81,3.81,0,0,1-1.31.09c-.75,0-1.78-.31-2.06-.28s-.62.72-1,.75S10.51,41.66,10.48,41.56Z"/><path class="cls-2" d="M17.79,40.78a3.55,3.55,0,0,0,1.41-.16c.44-.16.66-.44.88-.25s.34.53.19.66-.06.28-.66.38a8.43,8.43,0,0,1-2.22.13C17.29,41.41,17.7,40.75,17.79,40.78Z"/><path class="cls-2" d="M12.7,43.41c.07-.27,2.22-.37,2.34-.19s.47.44.09.59a10.58,10.58,0,0,1-2.19.5A1.79,1.79,0,0,1,12.7,43.41Z"/><path class="cls-2" d="M13.08,45.56a5.67,5.67,0,0,1,1.53-.44c.09.09.53.25.25.5a4.06,4.06,0,0,1-1.37.75A1.8,1.8,0,0,1,13.08,45.56Z"/></g></svg>